<?xml version="1.0" encoding="utf-8"?>
<!-- Generator: Adobe Illustrator 21.1.0, SVG Export Plug-In . SVG Version: 6.00 Build 0)  -->
<svg version="1.1" id="Layer_1" xmlns="http://www.w3.org/2000/svg" xmlns:xlink="http://www.w3.org/1999/xlink" x="0px" y="0px"
	 viewBox="0 0 617 568.2" enable-background="new 0 0 617 568.2" xml:space="preserve">
<path fill="none" stroke="#D9D9D8" stroke-width="0.1153" stroke-linejoin="round" stroke-miterlimit="10" d="M57.1,149H46.7
	 M57.1,195H46.7 M57.1,240H46.7 M57.1,285H46.7 M57.1,331H46.7 M57.1,376H46.7 M57.1,422H46.7 M57.1,467H46.7"/>
<path fill="none" stroke="#D9D9D8" stroke-linejoin="round" stroke-miterlimit="10" d="M58.1,149v364"/>
<line fill="none" stroke="#C0BFBF" stroke-width="0.1153" stroke-linejoin="round" stroke-miterlimit="10" x1="57.1" y1="513" x2="57.1" y2="150"/>
<line fill="none" stroke="#C0BFBF" stroke-width="0.8334" stroke-linejoin="round" stroke-miterlimit="10" x1="57.7" y1="513" x2="580.3" y2="513"/>
<polyline fill="none" stroke="#4A72B8" stroke-width="2" stroke-linecap="round" stroke-linejoin="round" stroke-miterlimit="10" points="
	57.6,243.5 83.6,217.5 109.6,204.5 136.6,168.5 162.6,179.5 188.6,203.5 214.6,246.5 240.6,303.5 266.6,332.5 292.6,363.5 
	319.6,341.5 345.6,364.5 371.6,396.5 397.6,411.5 423.6,437.5 449.6,462.5 475.6,440.5 501.6,385.5 528.6,412.5 554.6,465.5 
	554.6,465.6 553.3,464.9 "/>
<circle fill="#4A72B8" cx="57.5" cy="242.9" r="2"/>
<circle fill="none" stroke="#4A72B8" stroke-linejoin="round" stroke-miterlimit="10" cx="57.5" cy="242.9" r="2"/>
<circle fill="#4A72B8" cx="83.5" cy="215.9" r="2"/>
<circle fill="none" stroke="#4A72B8" stroke-linejoin="round" stroke-miterlimit="10" cx="83.5" cy="215.9" r="2"/>
<circle fill="#4A72B8" cx="109.5" cy="202.9" r="2"/>
<circle fill="none" stroke="#4A72B8" stroke-linejoin="round" stroke-miterlimit="10" cx="109.5" cy="202.9" r="2"/>
<circle fill="#4A72B8" cx="135.5" cy="166.9" r="2"/>
<circle fill="none" stroke="#4A72B8" stroke-linejoin="round" stroke-miterlimit="10" cx="135.5" cy="166.9" r="2"/>
<circle fill="#4A72B8" cx="161.5" cy="178.9" r="2"/>
<circle fill="none" stroke="#4A72B8" stroke-linejoin="round" stroke-miterlimit="10" cx="161.5" cy="178.9" r="2"/>
<circle fill="#4A72B8" cx="187.5" cy="201.9" r="2"/>
<circle fill="none" stroke="#4A72B8" stroke-linejoin="round" stroke-miterlimit="10" cx="187.5" cy="201.9" r="2"/>
<circle fill="#4A72B8" cx="214.5" cy="244.9" r="2"/>
<circle fill="none" stroke="#4A72B8" stroke-linejoin="round" stroke-miterlimit="10" cx="214.5" cy="244.9" r="2"/>
<circle fill="#4A72B8" cx="240.5" cy="301.9" r="2"/>
<circle fill="none" stroke="#4A72B8" stroke-linejoin="round" stroke-miterlimit="10" cx="240.5" cy="301.9" r="2"/>
<circle fill="#4A72B8" cx="266.5" cy="331.9" r="2"/>
<circle fill="none" stroke="#4A72B8" stroke-linejoin="round" stroke-miterlimit="10" cx="266.5" cy="331.9" r="2"/>
<circle fill="#4A72B8" cx="292.5" cy="361.9" r="2"/>
<circle fill="none" stroke="#4A72B8" stroke-linejoin="round" stroke-miterlimit="10" cx="292.5" cy="361.9" r="2"/>
<circle fill="#4A72B8" cx="318.5" cy="340.9" r="2"/>
<circle fill="none" stroke="#4A72B8" stroke-linejoin="round" stroke-miterlimit="10" cx="318.5" cy="340.9" r="2"/>
<circle fill="#4A72B8" cx="344.5" cy="362.9" r="2"/>
<circle fill="none" stroke="#4A72B8" stroke-linejoin="round" stroke-miterlimit="10" cx="344.5" cy="362.9" r="2"/>
<circle fill="#4A72B8" cx="370.5" cy="395.9" r="2"/>
<circle fill="none" stroke="#4A72B8" stroke-linejoin="round" stroke-miterlimit="10" cx="370.5" cy="395.9" r="2"/>
<circle fill="#4A72B8" cx="396.5" cy="410.9" r="2"/>
<circle fill="none" stroke="#4A72B8" stroke-linejoin="round" stroke-miterlimit="10" cx="396.5" cy="410.9" r="2"/>
<circle fill="#4A72B8" cx="423.5" cy="435.9" r="2"/>
<circle fill="none" stroke="#4A72B8" stroke-linejoin="round" stroke-miterlimit="10" cx="423.5" cy="435.9" r="2"/>
<circle fill="#4A72B8" cx="449.5" cy="461.9" r="2"/>
<circle fill="none" stroke="#4A72B8" stroke-linejoin="round" stroke-miterlimit="10" cx="449.5" cy="461.9" r="2"/>
<circle fill="#4A72B8" cx="475.5" cy="439.9" r="2"/>
<circle fill="none" stroke="#4A72B8" stroke-linejoin="round" stroke-miterlimit="10" cx="475.5" cy="439.9" r="2"/>
<circle fill="#4A72B8" cx="501.5" cy="384.9" r="2"/>
<circle fill="none" stroke="#4A72B8" stroke-linejoin="round" stroke-miterlimit="10" cx="501.5" cy="384.9" r="2"/>
<circle fill="#4A72B8" cx="527.5" cy="411.9" r="2"/>
<circle fill="none" stroke="#4A72B8" stroke-linejoin="round" stroke-miterlimit="10" cx="527.5" cy="411.9" r="2"/>
<circle fill="#4A72B8" cx="553.5" cy="464.9" r="2"/>
<circle fill="none" stroke="#4A72B8" stroke-linejoin="round" stroke-miterlimit="10" cx="553.5" cy="464.9" r="2"/>
<polyline fill="none" stroke="#ED7D30" stroke-width="2" stroke-linecap="round" stroke-linejoin="round" stroke-miterlimit="10" points="
	57.6,215.5 83.6,207.5 109.6,161.5 136.6,158.5 162.6,162.5 188.6,162.5 214.6,200.5 240.6,244.5 266.6,298.5 292.6,330.5 
	319.6,313.5 345.6,328.5 371.6,354.5 397.6,383.5 423.6,395.5 449.6,414.5 475.6,347.5 501.6,344.5 528.6,371.5 554.6,401.5 
	580.6,446.5 580.3,447 "/>
<circle fill="#ED7D30" cx="57.5" cy="213.9" r="2"/>
<circle fill="none" stroke="#ED7D30" stroke-linejoin="round" stroke-miterlimit="10" cx="57.5" cy="213.9" r="2"/>
<circle fill="#ED7D30" cx="83.5" cy="205.9" r="2"/>
<circle fill="none" stroke="#ED7D30" stroke-linejoin="round" stroke-miterlimit="10" cx="83.5" cy="205.9" r="2"/>
<circle fill="#ED7D30" cx="109.5" cy="159.9" r="2"/>
<circle fill="none" stroke="#ED7D30" stroke-linejoin="round" stroke-miterlimit="10" cx="109.5" cy="159.9" r="2"/>
<circle fill="#ED7D30" cx="135.5" cy="157.9" r="2"/>
<circle fill="none" stroke="#ED7D30" stroke-linejoin="round" stroke-miterlimit="10" cx="135.5" cy="157.9" r="2"/>
<circle fill="#ED7D30" cx="161.5" cy="161.9" r="2"/>
<circle fill="none" stroke="#ED7D30" stroke-linejoin="round" stroke-miterlimit="10" cx="161.5" cy="161.9" r="2"/>
<circle fill="#ED7D30" cx="187.5" cy="160.9" r="2"/>
<circle fill="none" stroke="#ED7D30" stroke-linejoin="round" stroke-miterlimit="10" cx="187.5" cy="160.9" r="2"/>
<circle fill="#ED7D30" cx="214.5" cy="199.9" r="2"/>
<circle fill="none" stroke="#ED7D30" stroke-linejoin="round" stroke-miterlimit="10" cx="214.5" cy="199.9" r="2"/>
<circle fill="#ED7D30" cx="240.5" cy="243.9" r="2"/>
<circle fill="none" stroke="#ED7D30" stroke-linejoin="round" stroke-miterlimit="10" cx="240.5" cy="243.9" r="2"/>
<circle fill="#ED7D30" cx="266.5" cy="296.9" r="2"/>
<circle fill="none" stroke="#ED7D30" stroke-linejoin="round" stroke-miterlimit="10" cx="266.5" cy="296.9" r="2"/>
<circle fill="#ED7D30" cx="292.5" cy="328.9" r="2"/>
<circle fill="none" stroke="#ED7D30" stroke-linejoin="round" stroke-miterlimit="10" cx="292.5" cy="328.9" r="2"/>
<circle fill="#ED7D30" cx="318.5" cy="312.9" r="2"/>
<circle fill="none" stroke="#ED7D30" stroke-linejoin="round" stroke-miterlimit="10" cx="318.5" cy="312.9" r="2"/>
<circle fill="#ED7D30" cx="344.5" cy="326.9" r="2"/>
<circle fill="none" stroke="#ED7D30" stroke-linejoin="round" stroke-miterlimit="10" cx="344.5" cy="326.9" r="2"/>
<circle fill="#ED7D30" cx="370.5" cy="353.9" r="2"/>
<circle fill="none" stroke="#ED7D30" stroke-linejoin="round" stroke-miterlimit="10" cx="370.5" cy="353.9" r="2"/>
<circle fill="#ED7D30" cx="396.5" cy="381.9" r="2"/>
<circle fill="none" stroke="#ED7D30" stroke-linejoin="round" stroke-miterlimit="10" cx="396.5" cy="381.9" r="2"/>
<circle fill="#ED7D30" cx="423.5" cy="393.9" r="2"/>
<circle fill="none" stroke="#ED7D30" stroke-linejoin="round" stroke-miterlimit="10" cx="423.5" cy="393.9" r="2"/>
<circle fill="#ED7D30" cx="449.5" cy="413.9" r="2"/>
<circle fill="none" stroke="#ED7D30" stroke-linejoin="round" stroke-miterlimit="10" cx="449.5" cy="413.9" r="2"/>
<circle fill="#ED7D30" cx="475.5" cy="345.9" r="2"/>
<circle fill="none" stroke="#ED7D30" stroke-linejoin="round" stroke-miterlimit="10" cx="475.5" cy="345.9" r="2"/>
<circle fill="#ED7D30" cx="501.5" cy="342.9" r="2"/>
<circle fill="none" stroke="#ED7D30" stroke-linejoin="round" stroke-miterlimit="10" cx="501.5" cy="342.9" r="2"/>
<circle fill="#ED7D30" cx="527.5" cy="369.9" r="2"/>
<circle fill="none" stroke="#ED7D30" stroke-linejoin="round" stroke-miterlimit="10" cx="527.5" cy="369.9" r="2"/>
<circle fill="#ED7D30" cx="553.5" cy="400.9" r="2"/>
<circle fill="none" stroke="#ED7D30" stroke-linejoin="round" stroke-miterlimit="10" cx="553.5" cy="400.9" r="2"/>
<circle fill="#ED7D30" cx="579.5" cy="445.9" r="2"/>
<circle fill="none" stroke="#ED7D30" stroke-linejoin="round" stroke-miterlimit="10" cx="579.5" cy="445.9" r="2"/>
<text transform="matrix(1 0 0 1 27.5476 515.653)" fill="#595A5A" font-family="'Avenir-Book'" font-size="9px">1060</text>
<text transform="matrix(1 0 0 1 27.5476 470.1825)" fill="#595A5A" font-family="'Avenir-Book'" font-size="9px">1080</text>
<text transform="matrix(1 0 0 1 27.5476 424.7121)" fill="#595A5A" font-family="'Avenir-Book'" font-size="9px">1100</text>
<text transform="matrix(1 0 0 1 27.5476 379.2416)" fill="#595A5A" font-family="'Avenir-Book'" font-size="9px">1120</text>
<text transform="matrix(1 0 0 1 27.5476 333.7712)" fill="#595A5A" font-family="'Avenir-Book'" font-size="9px">1140</text>
<text transform="matrix(1 0 0 1 27.5476 288.3007)" fill="#595A5A" font-family="'Avenir-Book'" font-size="9px">1160</text>
<text transform="matrix(1 0 0 1 27.5476 242.8303)" fill="#595A5A" font-family="'Avenir-Book'" font-size="9px">1180</text>
<text transform="matrix(1 0 0 1 27.5476 197.3598)" fill="#595A5A" font-family="'Avenir-Book'" font-size="9px">1200</text>
<text transform="matrix(1 0 0 1 27.5476 151.8895)" fill="#595A5A" font-family="'Avenir-Book'" font-size="9px">1220</text>
<text transform="matrix(1 0 0 1 47.2993 527.8005)" fill="#595A5A" font-family="'Avenir-Book'" font-size="9px">1995</text>
<text transform="matrix(1 0 0 1 177.9436 527.8005)" fill="#595A5A" font-family="'Avenir-Book'" font-size="9px">2000</text>
<text transform="matrix(1 0 0 1 308.5879 527.8005)" fill="#595A5A" font-family="'Avenir-Book'" font-size="9px">2005</text>
<text transform="matrix(1 0 0 1 439.2322 527.8005)" fill="#595A5A" font-family="'Avenir-Book'" font-size="9px">2010</text>
<text transform="matrix(1 0 0 1 569.8767 527.8005)" fill="#595A5A" font-family="'Avenir-Book'" font-size="9px">2015</text>
<rect x="44" y="26.6" fill="none" width="442.7" height="25.9"/>
<text transform="matrix(1 0 0 1 44.0059 48.4241)" fill="#4A72B8" font-family="'Avenir-Roman'" font-size="28.8589px">Arizona is Running Out of Water</text>
<rect x="43" y="58.6" fill="none" width="520.9" height="40.1"/>
<text transform="matrix(1 0 0 1 43.0059 66.9482)"><tspan x="0" y="0" fill="#58595B" font-family="'Avenir-Book'" font-size="11px">Arizona has been in a drought for the last 22 years and things just keep getting worse. </tspan><tspan x="0" y="13.2" fill="#58595B" font-family="'Avenir-Book'" font-size="11px">The elevations levels of Lake Meade are indicated with points of the lowest and higest  </tspan><tspan x="0" y="26.4" fill="#58595B" font-family="'Avenir-Book'" font-size="11px">elevation for each year. </tspan></text>
<g>
	
		<line fill="none" stroke="#4A72B8" stroke-width="2.2461" stroke-linecap="round" stroke-linejoin="round" stroke-miterlimit="10" x1="45.2" y1="107.3" x2="66.5" y2="107.3"/>
	<text transform="matrix(1 0 0 1 69.0784 110.8846)" fill="#595A5A" font-family="'Avenir-Book'" font-size="10.1072px">Low Elevation </text>
	<text transform="matrix(1 0 0 1 432.3856 556.0441)" fill="#595A5A" font-family="'Avenir-Book'" font-size="10.1072px">Source: Hoover Dam Control Room </text>
</g>
<g>
	
		<line fill="none" stroke="#ED7D30" stroke-width="2.2461" stroke-linecap="round" stroke-linejoin="round" stroke-miterlimit="10" x1="168.2" y1="107.3" x2="189.5" y2="107.3"/>
	<circle fill="#ED7D30" cx="178.6" cy="107.3" r="2.2"/>
	
		<circle fill="none" stroke="#ED7D30" stroke-width="1.123" stroke-linejoin="round" stroke-miterlimit="10" cx="178.6" cy="107.3" r="2.2"/>
	<text transform="matrix(1 0 0 1 192.4388 110.8846)" fill="#595A5A" font-family="'Avenir-Book'" font-size="10.1072px">High Elevation</text>
</g>
<circle fill="#4971B7" cx="55.3" cy="107.3" r="2.2"/>
<text transform="matrix(1 0 0 1 399.4605 477.3243)"><tspan x="0" y="0" fill="#4A72B8" font-family="'Avenir-Medium'" font-size="10px">2015</tspan><tspan x="22.6" y="0" fill="#58595B" font-family="'Avenir-Book'" font-size="10px"> continues the downward  </tspan><tspan x="7.8" y="12" fill="#58595B" font-family="'Avenir-Book'" font-size="10px">trend. The water elevation is  </tspan><tspan x="-7.5" y="24" fill="#4A72B8" font-family="'Avenir-Medium'" font-size="10px">nearly 100% lower </tspan><tspan x="80.4" y="24" fill="#58595B" font-family="'Avenir-Book'" font-size="10px">then in 1995.</tspan></text>
</svg>
