<?xml version="1.0" encoding="utf-8"?>
<!-- Generator: Adobe Illustrator 21.1.0, SVG Export Plug-In . SVG Version: 6.00 Build 0)  -->
<svg version="1.1" id="Layer_1" xmlns="http://www.w3.org/2000/svg" xmlns:xlink="http://www.w3.org/1999/xlink" x="0px" y="0px"
	 viewBox="0 0 822.9 453" enable-background="new 0 0 822.9 453" xml:space="preserve">
<rect opacity="0" fill="#FFFFFF" width="59245.7" height="32614.3"/>
<g>
	<defs>
		<rect id="SVGID_1_" width="822.9" height="453"/>
	</defs>
	<clipPath id="SVGID_2_">
		<use xlink:href="#SVGID_1_"  overflow="visible"/>
	</clipPath>
	<rect x="86.2" y="63.7" clip-path="url(#SVGID_2_)" fill="#FFFF00" width="14.5" height="312.6"/>
	
		<rect x="86.2" y="63.7" clip-path="url(#SVGID_2_)" fill="none" stroke="#000000" stroke-width="0.75" stroke-linecap="round" stroke-linejoin="round" stroke-miterlimit="10" width="14.5" height="312.6"/>
	<rect x="100.7" y="59" clip-path="url(#SVGID_2_)" fill="#00FF00" width="14.5" height="317.3"/>
	
		<rect x="100.7" y="59" clip-path="url(#SVGID_2_)" fill="none" stroke="#000000" stroke-width="0.75" stroke-linecap="round" stroke-linejoin="round" stroke-miterlimit="10" width="14.5" height="317.3"/>
	<rect x="129.6" y="68.7" clip-path="url(#SVGID_2_)" fill="#FFFF00" width="14.5" height="307.7"/>
	
		<rect x="129.6" y="68.7" clip-path="url(#SVGID_2_)" fill="none" stroke="#000000" stroke-width="0.75" stroke-linecap="round" stroke-linejoin="round" stroke-miterlimit="10" width="14.5" height="307.7"/>
	<rect x="144" y="63.5" clip-path="url(#SVGID_2_)" fill="#00FF00" width="14.5" height="312.9"/>
	
		<rect x="144" y="63.5" clip-path="url(#SVGID_2_)" fill="none" stroke="#000000" stroke-width="0.75" stroke-linecap="round" stroke-linejoin="round" stroke-miterlimit="10" width="14.5" height="312.9"/>
	<rect x="172.9" y="75.2" clip-path="url(#SVGID_2_)" fill="#FFFF00" width="14.5" height="301.1"/>
	
		<rect x="172.9" y="75.2" clip-path="url(#SVGID_2_)" fill="none" stroke="#000000" stroke-width="0.75" stroke-linecap="round" stroke-linejoin="round" stroke-miterlimit="10" width="14.5" height="301.1"/>
	<rect x="187.4" y="68.4" clip-path="url(#SVGID_2_)" fill="#00FF00" width="14.5" height="307.9"/>
	
		<rect x="187.4" y="68.4" clip-path="url(#SVGID_2_)" fill="none" stroke="#000000" stroke-width="0.75" stroke-linecap="round" stroke-linejoin="round" stroke-miterlimit="10" width="14.5" height="307.9"/>
	<rect x="216.3" y="78.6" clip-path="url(#SVGID_2_)" fill="#FFFF00" width="14.5" height="297.7"/>
	
		<rect x="216.3" y="78.6" clip-path="url(#SVGID_2_)" fill="none" stroke="#000000" stroke-width="0.75" stroke-linecap="round" stroke-linejoin="round" stroke-miterlimit="10" width="14.5" height="297.7"/>
	<rect x="230.7" y="74.5" clip-path="url(#SVGID_2_)" fill="#00FF00" width="14.5" height="301.9"/>
	
		<rect x="230.7" y="74.5" clip-path="url(#SVGID_2_)" fill="none" stroke="#000000" stroke-width="0.75" stroke-linecap="round" stroke-linejoin="round" stroke-miterlimit="10" width="14.5" height="301.9"/>
	<rect x="259.6" y="82" clip-path="url(#SVGID_2_)" fill="#FFFF00" width="14.5" height="294.3"/>
	
		<rect x="259.6" y="82" clip-path="url(#SVGID_2_)" fill="none" stroke="#000000" stroke-width="0.75" stroke-linecap="round" stroke-linejoin="round" stroke-miterlimit="10" width="14.5" height="294.3"/>
	<rect x="274.1" y="78.1" clip-path="url(#SVGID_2_)" fill="#00FF00" width="14.5" height="298.2"/>
	
		<rect x="274.1" y="78.1" clip-path="url(#SVGID_2_)" fill="none" stroke="#000000" stroke-width="0.75" stroke-linecap="round" stroke-linejoin="round" stroke-miterlimit="10" width="14.5" height="298.2"/>
	<rect x="303" y="81" clip-path="url(#SVGID_2_)" fill="#FFFF00" width="14.5" height="295.4"/>
	
		<rect x="303" y="81" clip-path="url(#SVGID_2_)" fill="none" stroke="#000000" stroke-width="0.75" stroke-linecap="round" stroke-linejoin="round" stroke-miterlimit="10" width="14.5" height="295.4"/>
	<rect x="317.4" y="76.6" clip-path="url(#SVGID_2_)" fill="#00FF00" width="14.5" height="299.8"/>
	
		<rect x="317.4" y="76.6" clip-path="url(#SVGID_2_)" fill="none" stroke="#000000" stroke-width="0.75" stroke-linecap="round" stroke-linejoin="round" stroke-miterlimit="10" width="14.5" height="299.8"/>
	<rect x="346.3" y="82.3" clip-path="url(#SVGID_2_)" fill="#FFFF00" width="14.5" height="294.1"/>
	
		<rect x="346.3" y="82.3" clip-path="url(#SVGID_2_)" fill="none" stroke="#000000" stroke-width="0.75" stroke-linecap="round" stroke-linejoin="round" stroke-miterlimit="10" width="14.5" height="294.1"/>
	<rect x="360.8" y="78.1" clip-path="url(#SVGID_2_)" fill="#00FF00" width="14.5" height="298.2"/>
	
		<rect x="360.8" y="78.1" clip-path="url(#SVGID_2_)" fill="none" stroke="#000000" stroke-width="0.75" stroke-linecap="round" stroke-linejoin="round" stroke-miterlimit="10" width="14.5" height="298.2"/>
	<rect x="389.7" y="86.2" clip-path="url(#SVGID_2_)" fill="#FFFF00" width="14.5" height="290.1"/>
	
		<rect x="389.7" y="86.2" clip-path="url(#SVGID_2_)" fill="none" stroke="#000000" stroke-width="0.75" stroke-linecap="round" stroke-linejoin="round" stroke-miterlimit="10" width="14.5" height="290.1"/>
	<rect x="404.2" y="81" clip-path="url(#SVGID_2_)" fill="#00FF00" width="14.5" height="295.4"/>
	
		<rect x="404.2" y="81" clip-path="url(#SVGID_2_)" fill="none" stroke="#000000" stroke-width="0.75" stroke-linecap="round" stroke-linejoin="round" stroke-miterlimit="10" width="14.5" height="295.4"/>
	<rect x="433.1" y="87.8" clip-path="url(#SVGID_2_)" fill="#FFFF00" width="14.5" height="288.6"/>
	
		<rect x="433.1" y="87.8" clip-path="url(#SVGID_2_)" fill="none" stroke="#000000" stroke-width="0.75" stroke-linecap="round" stroke-linejoin="round" stroke-miterlimit="10" width="14.5" height="288.6"/>
	<rect x="447.5" y="84.1" clip-path="url(#SVGID_2_)" fill="#00FF00" width="14.5" height="292.2"/>
	
		<rect x="447.5" y="84.1" clip-path="url(#SVGID_2_)" fill="none" stroke="#000000" stroke-width="0.75" stroke-linecap="round" stroke-linejoin="round" stroke-miterlimit="10" width="14.5" height="292.2"/>
	<rect x="476.4" y="90.7" clip-path="url(#SVGID_2_)" fill="#FFFF00" width="14.5" height="285.7"/>
	
		<rect x="476.4" y="90.7" clip-path="url(#SVGID_2_)" fill="none" stroke="#000000" stroke-width="0.75" stroke-linecap="round" stroke-linejoin="round" stroke-miterlimit="10" width="14.5" height="285.7"/>
	<rect x="490.9" y="85.4" clip-path="url(#SVGID_2_)" fill="#00FF00" width="14.5" height="290.9"/>
	
		<rect x="490.9" y="85.4" clip-path="url(#SVGID_2_)" fill="none" stroke="#000000" stroke-width="0.75" stroke-linecap="round" stroke-linejoin="round" stroke-miterlimit="10" width="14.5" height="290.9"/>
	<rect x="519.8" y="93.5" clip-path="url(#SVGID_2_)" fill="#FFFF00" width="14.5" height="282.8"/>
	
		<rect x="519.8" y="93.5" clip-path="url(#SVGID_2_)" fill="none" stroke="#000000" stroke-width="0.75" stroke-linecap="round" stroke-linejoin="round" stroke-miterlimit="10" width="14.5" height="282.8"/>
	<rect x="534.2" y="88.1" clip-path="url(#SVGID_2_)" fill="#00FF00" width="14.5" height="288.3"/>
	
		<rect x="534.2" y="88.1" clip-path="url(#SVGID_2_)" fill="none" stroke="#000000" stroke-width="0.75" stroke-linecap="round" stroke-linejoin="round" stroke-miterlimit="10" width="14.5" height="288.3"/>
	<rect x="563.1" y="92.5" clip-path="url(#SVGID_2_)" fill="#FFFF00" width="14.5" height="283.9"/>
	
		<rect x="563.1" y="92.5" clip-path="url(#SVGID_2_)" fill="none" stroke="#000000" stroke-width="0.75" stroke-linecap="round" stroke-linejoin="round" stroke-miterlimit="10" width="14.5" height="283.9"/>
	<rect x="577.6" y="80.5" clip-path="url(#SVGID_2_)" fill="#00FF00" width="14.5" height="295.9"/>
	
		<rect x="577.6" y="80.5" clip-path="url(#SVGID_2_)" fill="none" stroke="#000000" stroke-width="0.75" stroke-linecap="round" stroke-linejoin="round" stroke-miterlimit="10" width="14.5" height="295.9"/>
	<rect x="606.5" y="84.9" clip-path="url(#SVGID_2_)" fill="#FFFF00" width="14.5" height="291.4"/>
	
		<rect x="606.5" y="84.9" clip-path="url(#SVGID_2_)" fill="none" stroke="#000000" stroke-width="0.75" stroke-linecap="round" stroke-linejoin="round" stroke-miterlimit="10" width="14.5" height="291.4"/>
	<rect x="620.9" y="79.7" clip-path="url(#SVGID_2_)" fill="#00FF00" width="14.5" height="296.7"/>
	
		<rect x="620.9" y="79.7" clip-path="url(#SVGID_2_)" fill="none" stroke="#000000" stroke-width="0.75" stroke-linecap="round" stroke-linejoin="round" stroke-miterlimit="10" width="14.5" height="296.7"/>
	<rect x="649.8" y="87.8" clip-path="url(#SVGID_2_)" fill="#FFFF00" width="14.5" height="288.6"/>
	
		<rect x="649.8" y="87.8" clip-path="url(#SVGID_2_)" fill="none" stroke="#000000" stroke-width="0.75" stroke-linecap="round" stroke-linejoin="round" stroke-miterlimit="10" width="14.5" height="288.6"/>
	<rect x="664.3" y="82.8" clip-path="url(#SVGID_2_)" fill="#00FF00" width="14.5" height="293.5"/>
	
		<rect x="664.3" y="82.8" clip-path="url(#SVGID_2_)" fill="none" stroke="#000000" stroke-width="0.75" stroke-linecap="round" stroke-linejoin="round" stroke-miterlimit="10" width="14.5" height="293.5"/>
	<rect x="693.2" y="94.1" clip-path="url(#SVGID_2_)" fill="#FFFF00" width="14.5" height="282.3"/>
	
		<rect x="693.2" y="94.1" clip-path="url(#SVGID_2_)" fill="none" stroke="#000000" stroke-width="0.75" stroke-linecap="round" stroke-linejoin="round" stroke-miterlimit="10" width="14.5" height="282.3"/>
	<rect x="707.6" y="86.5" clip-path="url(#SVGID_2_)" fill="#00FF00" width="14.5" height="289.9"/>
	
		<rect x="707.6" y="86.5" clip-path="url(#SVGID_2_)" fill="none" stroke="#000000" stroke-width="0.75" stroke-linecap="round" stroke-linejoin="round" stroke-miterlimit="10" width="14.5" height="289.9"/>
	<rect x="736.5" y="95.4" clip-path="url(#SVGID_2_)" fill="#FFFF00" width="14.5" height="281"/>
	
		<rect x="736.5" y="95.4" clip-path="url(#SVGID_2_)" fill="none" stroke="#000000" stroke-width="0.75" stroke-linecap="round" stroke-linejoin="round" stroke-miterlimit="10" width="14.5" height="281"/>
	<rect x="751" y="91.7" clip-path="url(#SVGID_2_)" fill="#00FF00" width="14.5" height="284.6"/>
	
		<rect x="751" y="91.7" clip-path="url(#SVGID_2_)" fill="none" stroke="#000000" stroke-width="0.75" stroke-linecap="round" stroke-linejoin="round" stroke-miterlimit="10" width="14.5" height="284.6"/>
</g>
<g>
	<defs>
		<rect id="SVGID_3_" width="822.9" height="453"/>
	</defs>
	<clipPath id="SVGID_4_">
		<use xlink:href="#SVGID_3_"  overflow="visible"/>
	</clipPath>
	<g clip-path="url(#SVGID_4_)">
		<text transform="matrix(1 0 0 1 87.314 405.4562)" font-family="'ArialMT'" font-size="12px">2000</text>
	</g>
	<g clip-path="url(#SVGID_4_)">
		<text transform="matrix(1 0 0 1 130.6694 405.4562)" font-family="'ArialMT'" font-size="12px">2001</text>
	</g>
	<g clip-path="url(#SVGID_4_)">
		<text transform="matrix(1 0 0 1 174.0249 405.4562)" font-family="'ArialMT'" font-size="12px">2002</text>
	</g>
	<g clip-path="url(#SVGID_4_)">
		<text transform="matrix(1 0 0 1 217.3804 405.4562)" font-family="'ArialMT'" font-size="12px">2003</text>
	</g>
	<g clip-path="url(#SVGID_4_)">
		<text transform="matrix(1 0 0 1 260.7363 405.4562)" font-family="'ArialMT'" font-size="12px">2004</text>
	</g>
	<g clip-path="url(#SVGID_4_)">
		<text transform="matrix(1 0 0 1 304.0918 405.4562)" font-family="'ArialMT'" font-size="12px">2005</text>
	</g>
	<g clip-path="url(#SVGID_4_)">
		<text transform="matrix(1 0 0 1 347.4473 405.4562)" font-family="'ArialMT'" font-size="12px">2006</text>
	</g>
	<g clip-path="url(#SVGID_4_)">
		<text transform="matrix(1 0 0 1 390.8032 405.4562)" font-family="'ArialMT'" font-size="12px">2007</text>
	</g>
	<g clip-path="url(#SVGID_4_)">
		<text transform="matrix(1 0 0 1 434.1582 405.4562)" font-family="'ArialMT'" font-size="12px">2008</text>
	</g>
	<g clip-path="url(#SVGID_4_)">
		<text transform="matrix(1 0 0 1 477.5146 405.4562)" font-family="'ArialMT'" font-size="12px">2009</text>
	</g>
	<g clip-path="url(#SVGID_4_)">
		<text transform="matrix(1 0 0 1 520.8701 405.4562)" font-family="'ArialMT'" font-size="12px">2010</text>
	</g>
	<g clip-path="url(#SVGID_4_)">
		<text transform="matrix(1 0 0 1 564.2256 405.4562)" font-family="'ArialMT'" font-size="12px">2011</text>
	</g>
	<g clip-path="url(#SVGID_4_)">
		<text transform="matrix(1 0 0 1 607.5811 405.4562)" font-family="'ArialMT'" font-size="12px">2012</text>
	</g>
	<g clip-path="url(#SVGID_4_)">
		<text transform="matrix(1 0 0 1 650.9365 405.4562)" font-family="'ArialMT'" font-size="12px">2013</text>
	</g>
	<g clip-path="url(#SVGID_4_)">
		<text transform="matrix(1 0 0 1 694.293 405.4562)" font-family="'ArialMT'" font-size="12px">2014</text>
	</g>
	<g clip-path="url(#SVGID_4_)">
		<text transform="matrix(1 0 0 1 737.6484 405.4562)" font-family="'ArialMT'" font-size="12px">2015</text>
	</g>
</g>
<g>
	<defs>
		<rect id="SVGID_5_" width="822.9" height="453"/>
	</defs>
	<clipPath id="SVGID_6_">
		<use xlink:href="#SVGID_5_"  overflow="visible"/>
	</clipPath>
	<g clip-path="url(#SVGID_6_)">
		<text transform="matrix(1 0 0 1 259.2026 25.4526)" font-family="'Arial-BoldMT'" font-size="16.8px">Lake Mead Annual High &amp; Low Elevations</text>
	</g>
	<g clip-path="url(#SVGID_6_)">
		<text transform="matrix(1 0 0 1 173.7627 45.6125)" font-family="'Arial-BoldMT'" font-size="16.8px">data proves Lake Mead is not in a drought for the past 15 years</text>
	</g>
	<g clip-path="url(#SVGID_6_)">
		<text transform="matrix(1 0 0 1 406.8179 434.2565)" font-family="'ArialMT'" font-size="18px">Year</text>
	</g>
	<g clip-path="url(#SVGID_6_)">
		<text transform="matrix(6.123234e-17 -1 1 6.123234e-17 12.9601 326.8622)" font-family="'ArialMT'" font-size="18px">Elevation Above Sea Level</text>
	</g>
</g>
<g>
	<defs>
		<rect id="SVGID_7_" width="822.9" height="453"/>
	</defs>
	<clipPath id="SVGID_8_">
		<use xlink:href="#SVGID_7_"  overflow="visible"/>
	</clipPath>
	
		<line clip-path="url(#SVGID_8_)" fill="none" stroke="#000000" stroke-width="0.75" stroke-linecap="round" stroke-linejoin="round" stroke-miterlimit="10" x1="59" y1="376.4" x2="59" y2="62.7"/>
	
		<line clip-path="url(#SVGID_8_)" fill="none" stroke="#000000" stroke-width="0.75" stroke-linecap="round" stroke-linejoin="round" stroke-miterlimit="10" x1="59" y1="376.4" x2="51.8" y2="376.4"/>
	
		<line clip-path="url(#SVGID_8_)" fill="none" stroke="#000000" stroke-width="0.75" stroke-linecap="round" stroke-linejoin="round" stroke-miterlimit="10" x1="59" y1="324.1" x2="51.8" y2="324.1"/>
	
		<line clip-path="url(#SVGID_8_)" fill="none" stroke="#000000" stroke-width="0.75" stroke-linecap="round" stroke-linejoin="round" stroke-miterlimit="10" x1="59" y1="271.8" x2="51.8" y2="271.8"/>
	
		<line clip-path="url(#SVGID_8_)" fill="none" stroke="#000000" stroke-width="0.75" stroke-linecap="round" stroke-linejoin="round" stroke-miterlimit="10" x1="59" y1="219.5" x2="51.8" y2="219.5"/>
	
		<line clip-path="url(#SVGID_8_)" fill="none" stroke="#000000" stroke-width="0.75" stroke-linecap="round" stroke-linejoin="round" stroke-miterlimit="10" x1="59" y1="167.3" x2="51.8" y2="167.3"/>
	
		<line clip-path="url(#SVGID_8_)" fill="none" stroke="#000000" stroke-width="0.75" stroke-linecap="round" stroke-linejoin="round" stroke-miterlimit="10" x1="59" y1="115" x2="51.8" y2="115"/>
	
		<line clip-path="url(#SVGID_8_)" fill="none" stroke="#000000" stroke-width="0.75" stroke-linecap="round" stroke-linejoin="round" stroke-miterlimit="10" x1="59" y1="62.7" x2="51.8" y2="62.7"/>
	<g clip-path="url(#SVGID_8_)">
		<text transform="matrix(6.123234e-17 -1 1 6.123234e-17 41.7599 379.7)" font-family="'ArialMT'" font-size="12px">0</text>
	</g>
	<g clip-path="url(#SVGID_8_)">
		<text transform="matrix(6.123234e-17 -1 1 6.123234e-17 41.7599 334.0965)" font-family="'ArialMT'" font-size="12px">200</text>
	</g>
	<g clip-path="url(#SVGID_8_)">
		<text transform="matrix(6.123234e-17 -1 1 6.123234e-17 41.76 281.8192)" font-family="'ArialMT'" font-size="12px">400</text>
	</g>
	<g clip-path="url(#SVGID_8_)">
		<text transform="matrix(6.123234e-17 -1 1 6.123234e-17 41.76 229.5418)" font-family="'ArialMT'" font-size="12px">600</text>
	</g>
	<g clip-path="url(#SVGID_8_)">
		<text transform="matrix(6.123234e-17 -1 1 6.123234e-17 41.76 177.2645)" font-family="'ArialMT'" font-size="12px">800</text>
	</g>
	<g clip-path="url(#SVGID_8_)">
		<text transform="matrix(6.123234e-17 -1 1 6.123234e-17 41.7602 128.325)" font-family="'ArialMT'" font-size="12px">1000</text>
	</g>
	<g clip-path="url(#SVGID_8_)">
		<text transform="matrix(6.123234e-17 -1 1 6.123234e-17 41.7602 76.0477)" font-family="'ArialMT'" font-size="12px">1200</text>
	</g>
</g>
<g>
	<defs>
		<rect id="SVGID_9_" x="59" y="59" width="733.6" height="320.5"/>
	</defs>
	<clipPath id="SVGID_10_">
		<use xlink:href="#SVGID_9_"  overflow="visible"/>
	</clipPath>
	<rect x="767.9" y="64.4" clip-path="url(#SVGID_10_)" fill="#FFFF00" width="4.3" height="3.6"/>
	
		<rect x="767.9" y="64.4" clip-path="url(#SVGID_10_)" fill="none" stroke="#000000" stroke-width="0.75" stroke-linecap="round" stroke-linejoin="round" stroke-miterlimit="10" width="4.3" height="3.6"/>
	<rect x="767.9" y="71.6" clip-path="url(#SVGID_10_)" fill="#00FF00" width="4.3" height="3.6"/>
	
		<rect x="767.9" y="71.6" clip-path="url(#SVGID_10_)" fill="none" stroke="#000000" stroke-width="0.75" stroke-linecap="round" stroke-linejoin="round" stroke-miterlimit="10" width="4.3" height="3.6"/>
	<g clip-path="url(#SVGID_10_)">
		<text transform="matrix(1 0 0 1 777.5771 68.3872)" font-family="'ArialMT'" font-size="6px">Low</text>
	</g>
	<g clip-path="url(#SVGID_10_)">
		<text transform="matrix(1 0 0 1 777.5771 75.587)" font-family="'ArialMT'" font-size="6px">High</text>
	</g>
</g>
</svg>
