<?xml version="1.0" encoding="utf-8"?>
<!-- Generator: Adobe Illustrator 17.1.0, SVG Export Plug-In . SVG Version: 6.00 Build 0)  -->
<!DOCTYPE svg PUBLIC "-//W3C//DTD SVG 1.1//EN" "http://www.w3.org/Graphics/SVG/1.1/DTD/svg11.dtd">
<svg version="1.1" id="Layer_1" xmlns="http://www.w3.org/2000/svg" xmlns:xlink="http://www.w3.org/1999/xlink" x="0px" y="0px"
	 viewBox="0 0 281.2 204.7" enable-background="new 0 0 281.2 204.7" xml:space="preserve">
<line fill="none" stroke="#000000" stroke-linejoin="round" stroke-miterlimit="10" x1="106.1" y1="78.8" x2="122.3" y2="93.4"/>
<line fill="none" stroke="#000000" stroke-linejoin="round" stroke-miterlimit="10" x1="106.1" y1="78.8" x2="156.4" y2="107.7"/>
<line fill="none" stroke="#000000" stroke-linejoin="round" stroke-miterlimit="10" x1="106.1" y1="78.8" x2="97.2" y2="121.6"/>
<line fill="none" stroke="#000000" stroke-linejoin="round" stroke-miterlimit="10" x1="106.1" y1="78.8" x2="41.7" y2="103.7"/>
<line fill="none" stroke="#000000" stroke-linejoin="round" stroke-miterlimit="10" x1="106.1" y1="78.8" x2="62.4" y2="30.3"/>
<line fill="none" stroke="#000000" stroke-linejoin="round" stroke-miterlimit="10" x1="106.1" y1="78.8" x2="43.6" y2="58.4"/>
<line fill="none" stroke="#000000" stroke-linejoin="round" stroke-miterlimit="10" x1="106.1" y1="78.8" x2="99.3" y2="143.8"/>
<line fill="none" stroke="#000000" stroke-linejoin="round" stroke-miterlimit="10" x1="106.1" y1="78.8" x2="156" y2="129.3"/>
<line fill="none" stroke="#000000" stroke-linejoin="round" stroke-miterlimit="10" x1="106.1" y1="78.8" x2="52.9" y2="74.3"/>
<line fill="none" stroke="#000000" stroke-linejoin="round" stroke-miterlimit="10" x1="106.1" y1="78.8" x2="106.7" y2="4.5"/>
<line fill="none" stroke="#000000" stroke-linejoin="round" stroke-miterlimit="10" x1="106.1" y1="78.8" x2="53.8" y2="133.3"/>
<line fill="none" stroke="#000000" stroke-linejoin="round" stroke-miterlimit="10" x1="106.1" y1="78.8" x2="136.5" y2="137.9"/>
<line fill="none" stroke="#000000" stroke-linejoin="round" stroke-miterlimit="10" x1="106.1" y1="78.8" x2="124" y2="26.3"/>
<line fill="none" stroke="#000000" stroke-linejoin="round" stroke-miterlimit="10" x1="106.1" y1="78.8" x2="162" y2="84"/>
<line fill="none" stroke="#000000" stroke-linejoin="round" stroke-miterlimit="10" x1="106.1" y1="78.8" x2="95.2" y2="36.3"/>
<line fill="none" stroke="#000000" stroke-linejoin="round" stroke-miterlimit="10" x1="106.1" y1="78.8" x2="182" y2="66.9"/>
<line fill="none" stroke="#000000" stroke-linejoin="round" stroke-miterlimit="10" x1="122.3" y1="93.4" x2="156.4" y2="107.7"/>
<line fill="none" stroke="#000000" stroke-linejoin="round" stroke-miterlimit="10" x1="122.3" y1="93.4" x2="97.2" y2="121.6"/>
<line fill="none" stroke="#000000" stroke-linejoin="round" stroke-miterlimit="10" x1="122.3" y1="93.4" x2="99.3" y2="143.8"/>
<line fill="none" stroke="#000000" stroke-linejoin="round" stroke-miterlimit="10" x1="122.3" y1="93.4" x2="136.5" y2="137.9"/>
<line fill="none" stroke="#000000" stroke-linejoin="round" stroke-miterlimit="10" x1="122.3" y1="93.4" x2="124" y2="26.3"/>
<line fill="none" stroke="#000000" stroke-linejoin="round" stroke-miterlimit="10" x1="122.3" y1="93.4" x2="162" y2="84"/>
<line fill="none" stroke="#000000" stroke-linejoin="round" stroke-miterlimit="10" x1="122.3" y1="93.4" x2="95.2" y2="36.3"/>
<line fill="none" stroke="#000000" stroke-linejoin="round" stroke-miterlimit="10" x1="122.3" y1="93.4" x2="168.7" y2="157.7"/>
<line fill="none" stroke="#000000" stroke-linejoin="round" stroke-miterlimit="10" x1="156.4" y1="107.7" x2="97.2" y2="121.6"/>
<line fill="none" stroke="#000000" stroke-linejoin="round" stroke-miterlimit="10" x1="156.4" y1="107.7" x2="218.8" y2="127.6"/>
<line fill="none" stroke="#000000" stroke-linejoin="round" stroke-miterlimit="10" x1="156.4" y1="107.7" x2="99.3" y2="143.8"/>
<line fill="none" stroke="#000000" stroke-linejoin="round" stroke-miterlimit="10" x1="156.4" y1="107.7" x2="156" y2="129.3"/>
<line fill="none" stroke="#000000" stroke-linejoin="round" stroke-miterlimit="10" x1="156.4" y1="107.7" x2="163.1" y2="182.6"/>
<line fill="none" stroke="#000000" stroke-linejoin="round" stroke-miterlimit="10" x1="156.4" y1="107.7" x2="136.5" y2="137.9"/>
<line fill="none" stroke="#000000" stroke-linejoin="round" stroke-miterlimit="10" x1="156.4" y1="107.7" x2="214" y2="70.5"/>
<line fill="none" stroke="#000000" stroke-linejoin="round" stroke-miterlimit="10" x1="156.4" y1="107.7" x2="209.7" y2="92.6"/>
<line fill="none" stroke="#000000" stroke-linejoin="round" stroke-miterlimit="10" x1="97.2" y1="121.6" x2="99.3" y2="143.8"/>
<line fill="none" stroke="#000000" stroke-linejoin="round" stroke-miterlimit="10" x1="97.2" y1="121.6" x2="53.8" y2="133.3"/>
<line fill="none" stroke="#000000" stroke-linejoin="round" stroke-miterlimit="10" x1="97.2" y1="121.6" x2="136.5" y2="137.9"/>
<line fill="none" stroke="#000000" stroke-linejoin="round" stroke-miterlimit="10" x1="41.7" y1="103.7" x2="52.9" y2="74.3"/>
<line fill="none" stroke="#000000" stroke-linejoin="round" stroke-miterlimit="10" x1="41.7" y1="103.7" x2="43.6" y2="58.4"/>
<line fill="none" stroke="#000000" stroke-linejoin="round" stroke-miterlimit="10" x1="62.4" y1="30.3" x2="4.5" y2="16.2"/>
<line fill="none" stroke="#000000" stroke-linejoin="round" stroke-miterlimit="10" x1="62.4" y1="30.3" x2="52.9" y2="74.3"/>
<line fill="none" stroke="#000000" stroke-linejoin="round" stroke-miterlimit="10" x1="62.4" y1="30.3" x2="43.6" y2="58.4"/>
<line fill="none" stroke="#000000" stroke-linejoin="round" stroke-miterlimit="10" x1="43.6" y1="58.4" x2="4.5" y2="16.2"/>
<line fill="none" stroke="#000000" stroke-linejoin="round" stroke-miterlimit="10" x1="156" y1="129.3" x2="218.8" y2="127.6"/>
<line fill="none" stroke="#000000" stroke-linejoin="round" stroke-miterlimit="10" x1="156" y1="129.3" x2="168.7" y2="157.7"/>
<line fill="none" stroke="#000000" stroke-linejoin="round" stroke-miterlimit="10" x1="156" y1="129.3" x2="208.8" y2="137.1"/>
<line fill="none" stroke="#000000" stroke-linejoin="round" stroke-miterlimit="10" x1="163.1" y1="182.6" x2="208.8" y2="137.1"/>
<line fill="none" stroke="#000000" stroke-linejoin="round" stroke-miterlimit="10" x1="136.5" y1="137.9" x2="208.8" y2="137.1"/>
<line fill="none" stroke="#000000" stroke-linejoin="round" stroke-miterlimit="10" x1="256.7" y1="170.7" x2="218.8" y2="127.6"/>
<line fill="none" stroke="#000000" stroke-linejoin="round" stroke-miterlimit="10" x1="256.7" y1="170.7" x2="208.8" y2="137.1"/>
<line fill="none" stroke="#000000" stroke-linejoin="round" stroke-miterlimit="10" x1="203.7" y1="200.1" x2="218.8" y2="127.6"/>
<line fill="none" stroke="#000000" stroke-linejoin="round" stroke-miterlimit="10" x1="203.7" y1="200.1" x2="208.8" y2="137.1"/>
<line fill="none" stroke="#000000" stroke-linejoin="round" stroke-miterlimit="10" x1="276.7" y1="133" x2="218.8" y2="127.6"/>
<line fill="none" stroke="#000000" stroke-linejoin="round" stroke-miterlimit="10" x1="276.7" y1="133" x2="208.8" y2="137.1"/>
<line fill="none" stroke="#000000" stroke-linejoin="round" stroke-miterlimit="10" x1="162" y1="84" x2="208.8" y2="137.1"/>
<line fill="none" stroke="#000000" stroke-linejoin="round" stroke-miterlimit="10" x1="272.4" y1="108.3" x2="218.8" y2="127.6"/>
<line fill="none" stroke="#000000" stroke-linejoin="round" stroke-miterlimit="10" x1="272.4" y1="108.3" x2="208.8" y2="137.1"/>
<line fill="none" stroke="#000000" stroke-linejoin="round" stroke-miterlimit="10" x1="223.8" y1="191" x2="218.8" y2="127.6"/>
<line fill="none" stroke="#000000" stroke-linejoin="round" stroke-miterlimit="10" x1="223.8" y1="191" x2="208.8" y2="137.1"/>
<line fill="none" stroke="#000000" stroke-linejoin="round" stroke-miterlimit="10" x1="257.6" y1="85.8" x2="218.8" y2="127.6"/>
<line fill="none" stroke="#000000" stroke-linejoin="round" stroke-miterlimit="10" x1="257.6" y1="85.8" x2="239.5" y2="25.9"/>
<line fill="none" stroke="#000000" stroke-linejoin="round" stroke-miterlimit="10" x1="257.6" y1="85.8" x2="214" y2="70.5"/>
<line fill="none" stroke="#000000" stroke-linejoin="round" stroke-miterlimit="10" x1="257.6" y1="85.8" x2="262.8" y2="144.1"/>
<line fill="none" stroke="#000000" stroke-linejoin="round" stroke-miterlimit="10" x1="257.6" y1="85.8" x2="208.8" y2="137.1"/>
<line fill="none" stroke="#000000" stroke-linejoin="round" stroke-miterlimit="10" x1="205.7" y1="9.8" x2="239.5" y2="25.9"/>
<line fill="none" stroke="#000000" stroke-linejoin="round" stroke-miterlimit="10" x1="205.7" y1="9.8" x2="214" y2="70.5"/>
<line fill="none" stroke="#000000" stroke-linejoin="round" stroke-miterlimit="10" x1="205.7" y1="9.8" x2="182" y2="66.9"/>
<line fill="none" stroke="#000000" stroke-linejoin="round" stroke-miterlimit="10" x1="239.5" y1="25.9" x2="182" y2="66.9"/>
<line fill="none" stroke="#000000" stroke-linejoin="round" stroke-miterlimit="10" x1="250.7" y1="194.7" x2="208.8" y2="137.1"/>
<line fill="none" stroke="#000000" stroke-linejoin="round" stroke-miterlimit="10" x1="250.7" y1="194.7" x2="262.8" y2="144.1"/>
<line fill="none" stroke="#000000" stroke-linejoin="round" stroke-miterlimit="10" x1="214" y1="70.5" x2="208.8" y2="137.1"/>
<line fill="none" stroke="#000000" stroke-linejoin="round" stroke-miterlimit="10" x1="209.7" y1="92.6" x2="208.8" y2="137.1"/>
<line fill="none" stroke="#000000" stroke-linejoin="round" stroke-miterlimit="10" x1="209.7" y1="92.6" x2="182" y2="66.9"/>
<line fill="none" stroke="#000000" stroke-linejoin="round" stroke-miterlimit="10" x1="262.8" y1="144.1" x2="218.8" y2="127.6"/>
<line fill="none" stroke="#000000" stroke-linejoin="round" stroke-miterlimit="10" x1="262.8" y1="144.1" x2="208.8" y2="137.1"/>
<line fill="none" stroke="#000000" stroke-linejoin="round" stroke-miterlimit="10" x1="168.7" y1="157.7" x2="208.8" y2="137.1"/>
<line fill="none" stroke="#000000" stroke-linejoin="round" stroke-miterlimit="10" x1="168.7" y1="157.7" x2="218.8" y2="127.6"/>
<line fill="none" stroke="#000000" stroke-linejoin="round" stroke-miterlimit="10" x1="182" y1="66.9" x2="208.8" y2="137.1"/>
<line fill="none" stroke="#000000" stroke-linejoin="round" stroke-miterlimit="10" x1="182" y1="66.9" x2="218.8" y2="127.6"/>
<line fill="none" stroke="#000000" stroke-linejoin="round" stroke-miterlimit="10" x1="218.8" y1="127.6" x2="208.8" y2="137.1"/>
<g>
	<defs>
		<rect id="SVGID_1_" x="101.5" y="74.3" width="9.1" height="9.1"/>
	</defs>
	<clipPath id="SVGID_2_">
		<use xlink:href="#SVGID_1_"  overflow="visible"/>
	</clipPath>
	<path clip-path="url(#SVGID_2_)" d="M102.5,78.8c0,0.9,0.4,1.8,1,2.5s1.6,1,2.5,1s1.8-0.4,2.5-1s1-1.6,1-2.5s-0.4-1.8-1-2.5
		s-1.6-1-2.5-1s-1.8,0.4-2.5,1S102.5,77.9,102.5,78.8z"/>
	<path clip-path="url(#SVGID_2_)" fill="none" stroke="#000000" stroke-linejoin="round" stroke-miterlimit="10" d="M102.5,78.8
		c0,0.9,0.4,1.8,1,2.5s1.6,1,2.5,1s1.8-0.4,2.5-1s1-1.6,1-2.5s-0.4-1.8-1-2.5s-1.6-1-2.5-1s-1.8,0.4-2.5,1S102.5,77.9,102.5,78.8z"
		/>
</g>
<g>
	<defs>
		<rect id="SVGID_3_" x="117.8" y="88.9" width="9.1" height="9.1"/>
	</defs>
	<clipPath id="SVGID_4_">
		<use xlink:href="#SVGID_3_"  overflow="visible"/>
	</clipPath>
	<path clip-path="url(#SVGID_4_)" d="M118.8,93.4c0,0.9,0.4,1.8,1,2.5s1.6,1,2.5,1s1.8-0.4,2.5-1s1-1.6,1-2.5s-0.4-1.8-1-2.5
		s-1.6-1-2.5-1s-1.8,0.4-2.5,1S118.8,92.5,118.8,93.4z"/>
	<path clip-path="url(#SVGID_4_)" fill="none" stroke="#000000" stroke-linejoin="round" stroke-miterlimit="10" d="M118.8,93.4
		c0,0.9,0.4,1.8,1,2.5s1.6,1,2.5,1s1.8-0.4,2.5-1s1-1.6,1-2.5s-0.4-1.8-1-2.5s-1.6-1-2.5-1s-1.8,0.4-2.5,1S118.8,92.5,118.8,93.4z"
		/>
</g>
<g>
	<defs>
		<rect id="SVGID_5_" x="151.9" y="103.1" width="9.1" height="9.1"/>
	</defs>
	<clipPath id="SVGID_6_">
		<use xlink:href="#SVGID_5_"  overflow="visible"/>
	</clipPath>
	<path clip-path="url(#SVGID_6_)" d="M152.9,107.7c0,0.9,0.4,1.8,1,2.5s1.6,1,2.5,1s1.8-0.4,2.5-1s1-1.6,1-2.5s-0.4-1.8-1-2.5
		s-1.6-1-2.5-1s-1.8,0.4-2.5,1S152.9,106.7,152.9,107.7z"/>
	<path clip-path="url(#SVGID_6_)" fill="none" stroke="#000000" stroke-linejoin="round" stroke-miterlimit="10" d="M152.9,107.7
		c0,0.9,0.4,1.8,1,2.5s1.6,1,2.5,1s1.8-0.4,2.5-1s1-1.6,1-2.5s-0.4-1.8-1-2.5s-1.6-1-2.5-1s-1.8,0.4-2.5,1S152.9,106.7,152.9,107.7z
		"/>
</g>
<g>
	<defs>
		<rect id="SVGID_7_" x="92.6" y="117" width="9.1" height="9.1"/>
	</defs>
	<clipPath id="SVGID_8_">
		<use xlink:href="#SVGID_7_"  overflow="visible"/>
	</clipPath>
	<path clip-path="url(#SVGID_8_)" d="M93.6,121.6c0,0.9,0.4,1.8,1,2.5s1.6,1,2.5,1s1.8-0.4,2.5-1s1-1.6,1-2.5s-0.4-1.8-1-2.5
		s-1.6-1-2.5-1s-1.8,0.4-2.5,1S93.6,120.6,93.6,121.6z"/>
	<path clip-path="url(#SVGID_8_)" fill="none" stroke="#000000" stroke-linejoin="round" stroke-miterlimit="10" d="M93.6,121.6
		c0,0.9,0.4,1.8,1,2.5s1.6,1,2.5,1s1.8-0.4,2.5-1s1-1.6,1-2.5s-0.4-1.8-1-2.5s-1.6-1-2.5-1s-1.8,0.4-2.5,1S93.6,120.6,93.6,121.6z"
		/>
</g>
<g>
	<defs>
		<rect id="SVGID_9_" x="37.1" y="99.2" width="9.1" height="9.1"/>
	</defs>
	<clipPath id="SVGID_10_">
		<use xlink:href="#SVGID_9_"  overflow="visible"/>
	</clipPath>
	<path clip-path="url(#SVGID_10_)" d="M38.1,103.7c0,0.9,0.4,1.8,1,2.5s1.6,1,2.5,1s1.8-0.4,2.5-1s1-1.6,1-2.5s-0.4-1.8-1-2.5
		s-1.6-1-2.5-1s-1.8,0.4-2.5,1S38.1,102.8,38.1,103.7z"/>
	<path clip-path="url(#SVGID_10_)" fill="none" stroke="#000000" stroke-linejoin="round" stroke-miterlimit="10" d="M38.1,103.7
		c0,0.9,0.4,1.8,1,2.5s1.6,1,2.5,1s1.8-0.4,2.5-1s1-1.6,1-2.5s-0.4-1.8-1-2.5s-1.6-1-2.5-1s-1.8,0.4-2.5,1S38.1,102.8,38.1,103.7z"
		/>
</g>
<g>
	<defs>
		<rect id="SVGID_11_" x="57.9" y="25.7" width="9.1" height="9.1"/>
	</defs>
	<clipPath id="SVGID_12_">
		<use xlink:href="#SVGID_11_"  overflow="visible"/>
	</clipPath>
	<path clip-path="url(#SVGID_12_)" d="M58.9,30.3c0,0.9,0.4,1.8,1,2.5s1.6,1,2.5,1s1.8-0.4,2.5-1s1-1.6,1-2.5s-0.4-1.8-1-2.5
		s-1.6-1-2.5-1s-1.8,0.4-2.5,1S58.9,29.3,58.9,30.3z"/>
	<path clip-path="url(#SVGID_12_)" fill="none" stroke="#000000" stroke-linejoin="round" stroke-miterlimit="10" d="M58.9,30.3
		c0,0.9,0.4,1.8,1,2.5s1.6,1,2.5,1s1.8-0.4,2.5-1s1-1.6,1-2.5s-0.4-1.8-1-2.5s-1.6-1-2.5-1s-1.8,0.4-2.5,1S58.9,29.3,58.9,30.3z"/>
</g>
<g>
	<defs>
		<rect id="SVGID_13_" x="39" y="53.8" width="9.1" height="9.1"/>
	</defs>
	<clipPath id="SVGID_14_">
		<use xlink:href="#SVGID_13_"  overflow="visible"/>
	</clipPath>
	<path clip-path="url(#SVGID_14_)" d="M40,58.4c0,0.9,0.4,1.8,1,2.5s1.6,1,2.5,1s1.8-0.4,2.5-1s1-1.6,1-2.5s-0.4-1.8-1-2.5
		s-1.6-1-2.5-1s-1.8,0.4-2.5,1S40,57.4,40,58.4z"/>
	<path clip-path="url(#SVGID_14_)" fill="none" stroke="#000000" stroke-linejoin="round" stroke-miterlimit="10" d="M40,58.4
		c0,0.9,0.4,1.8,1,2.5s1.6,1,2.5,1s1.8-0.4,2.5-1s1-1.6,1-2.5s-0.4-1.8-1-2.5s-1.6-1-2.5-1s-1.8,0.4-2.5,1S40,57.4,40,58.4z"/>
</g>
<g>
	<defs>
		<rect id="SVGID_15_" x="94.8" y="139.2" width="9.1" height="9.1"/>
	</defs>
	<clipPath id="SVGID_16_">
		<use xlink:href="#SVGID_15_"  overflow="visible"/>
	</clipPath>
	<path clip-path="url(#SVGID_16_)" d="M95.8,143.8c0,0.9,0.4,1.8,1,2.5s1.6,1,2.5,1s1.8-0.4,2.5-1s1-1.6,1-2.5s-0.4-1.8-1-2.5
		s-1.6-1-2.5-1s-1.8,0.4-2.5,1S95.8,142.8,95.8,143.8z"/>
	<path clip-path="url(#SVGID_16_)" fill="none" stroke="#000000" stroke-linejoin="round" stroke-miterlimit="10" d="M95.8,143.8
		c0,0.9,0.4,1.8,1,2.5s1.6,1,2.5,1s1.8-0.4,2.5-1s1-1.6,1-2.5s-0.4-1.8-1-2.5s-1.6-1-2.5-1s-1.8,0.4-2.5,1S95.8,142.8,95.8,143.8z"
		/>
</g>
<g>
	<defs>
		<rect id="SVGID_17_" x="151.5" y="124.8" width="9.1" height="9.1"/>
	</defs>
	<clipPath id="SVGID_18_">
		<use xlink:href="#SVGID_17_"  overflow="visible"/>
	</clipPath>
	<path clip-path="url(#SVGID_18_)" d="M152.5,129.3c0,0.9,0.4,1.8,1,2.5s1.6,1,2.5,1s1.8-0.4,2.5-1s1-1.6,1-2.5s-0.4-1.8-1-2.5
		s-1.6-1-2.5-1s-1.8,0.4-2.5,1S152.5,128.4,152.5,129.3z"/>
	<path clip-path="url(#SVGID_18_)" fill="none" stroke="#000000" stroke-linejoin="round" stroke-miterlimit="10" d="M152.5,129.3
		c0,0.9,0.4,1.8,1,2.5s1.6,1,2.5,1s1.8-0.4,2.5-1s1-1.6,1-2.5s-0.4-1.8-1-2.5s-1.6-1-2.5-1s-1.8,0.4-2.5,1S152.5,128.4,152.5,129.3z
		"/>
</g>
<g>
	<defs>
		<rect id="SVGID_19_" x="158.5" y="178.1" width="9.1" height="9.1"/>
	</defs>
	<clipPath id="SVGID_20_">
		<use xlink:href="#SVGID_19_"  overflow="visible"/>
	</clipPath>
	<path clip-path="url(#SVGID_20_)" d="M159.5,182.6c0,0.9,0.4,1.8,1,2.5s1.6,1,2.5,1s1.8-0.4,2.5-1s1-1.6,1-2.5s-0.4-1.8-1-2.5
		s-1.6-1-2.5-1s-1.8,0.4-2.5,1S159.5,181.7,159.5,182.6z"/>
	<path clip-path="url(#SVGID_20_)" fill="none" stroke="#000000" stroke-linejoin="round" stroke-miterlimit="10" d="M159.5,182.6
		c0,0.9,0.4,1.8,1,2.5s1.6,1,2.5,1s1.8-0.4,2.5-1s1-1.6,1-2.5s-0.4-1.8-1-2.5s-1.6-1-2.5-1s-1.8,0.4-2.5,1S159.5,181.7,159.5,182.6z
		"/>
</g>
<g>
	<defs>
		<rect id="SVGID_21_" x="48.3" y="69.8" width="9.1" height="9.1"/>
	</defs>
	<clipPath id="SVGID_22_">
		<use xlink:href="#SVGID_21_"  overflow="visible"/>
	</clipPath>
	<path clip-path="url(#SVGID_22_)" d="M49.3,74.3c0,0.9,0.4,1.8,1,2.5s1.6,1,2.5,1s1.8-0.4,2.5-1s1-1.6,1-2.5s-0.4-1.8-1-2.5
		s-1.6-1-2.5-1s-1.8,0.4-2.5,1S49.3,73.4,49.3,74.3z"/>
	<path clip-path="url(#SVGID_22_)" fill="none" stroke="#000000" stroke-linejoin="round" stroke-miterlimit="10" d="M49.3,74.3
		c0,0.9,0.4,1.8,1,2.5s1.6,1,2.5,1s1.8-0.4,2.5-1s1-1.6,1-2.5s-0.4-1.8-1-2.5s-1.6-1-2.5-1s-1.8,0.4-2.5,1S49.3,73.4,49.3,74.3z"/>
</g>
<g>
	<defs>
		<rect id="SVGID_23_" x="102.2" width="9.1" height="9.1"/>
	</defs>
	<clipPath id="SVGID_24_">
		<use xlink:href="#SVGID_23_"  overflow="visible"/>
	</clipPath>
	<path clip-path="url(#SVGID_24_)" d="M103.2,4.5c0,0.9,0.4,1.8,1,2.5s1.6,1,2.5,1s1.8-0.4,2.5-1s1-1.6,1-2.5s-0.4-1.8-1-2.5
		s-1.6-1-2.5-1s-1.8,0.4-2.5,1S103.2,3.6,103.2,4.5z"/>
	<path clip-path="url(#SVGID_24_)" fill="none" stroke="#000000" stroke-linejoin="round" stroke-miterlimit="10" d="M103.2,4.5
		c0,0.9,0.4,1.8,1,2.5s1.6,1,2.5,1s1.8-0.4,2.5-1s1-1.6,1-2.5s-0.4-1.8-1-2.5s-1.6-1-2.5-1s-1.8,0.4-2.5,1S103.2,3.6,103.2,4.5z"/>
</g>
<g>
	<defs>
		<rect id="SVGID_25_" x="49.2" y="128.8" width="9.1" height="9.1"/>
	</defs>
	<clipPath id="SVGID_26_">
		<use xlink:href="#SVGID_25_"  overflow="visible"/>
	</clipPath>
	<path clip-path="url(#SVGID_26_)" d="M50.2,133.3c0,0.9,0.4,1.8,1,2.5s1.6,1,2.5,1s1.8-0.4,2.5-1s1-1.6,1-2.5s-0.4-1.8-1-2.5
		s-1.6-1-2.5-1s-1.8,0.4-2.5,1S50.2,132.4,50.2,133.3z"/>
	<path clip-path="url(#SVGID_26_)" fill="none" stroke="#000000" stroke-linejoin="round" stroke-miterlimit="10" d="M50.2,133.3
		c0,0.9,0.4,1.8,1,2.5s1.6,1,2.5,1s1.8-0.4,2.5-1s1-1.6,1-2.5s-0.4-1.8-1-2.5s-1.6-1-2.5-1s-1.8,0.4-2.5,1S50.2,132.4,50.2,133.3z"
		/>
</g>
<g>
	<defs>
		<rect id="SVGID_27_" x="132" y="133.4" width="9.1" height="9.1"/>
	</defs>
	<clipPath id="SVGID_28_">
		<use xlink:href="#SVGID_27_"  overflow="visible"/>
	</clipPath>
	<path clip-path="url(#SVGID_28_)" d="M133,137.9c0,0.9,0.4,1.8,1,2.5s1.6,1,2.5,1s1.8-0.4,2.5-1s1-1.6,1-2.5s-0.4-1.8-1-2.5
		s-1.6-1-2.5-1s-1.8,0.4-2.5,1S133,137,133,137.9z"/>
	<path clip-path="url(#SVGID_28_)" fill="none" stroke="#000000" stroke-linejoin="round" stroke-miterlimit="10" d="M133,137.9
		c0,0.9,0.4,1.8,1,2.5s1.6,1,2.5,1s1.8-0.4,2.5-1s1-1.6,1-2.5s-0.4-1.8-1-2.5s-1.6-1-2.5-1s-1.8,0.4-2.5,1S133,137,133,137.9z"/>
</g>
<g>
	<defs>
		<rect id="SVGID_29_" x="252.2" y="166.2" width="9.1" height="9.1"/>
	</defs>
	<clipPath id="SVGID_30_">
		<use xlink:href="#SVGID_29_"  overflow="visible"/>
	</clipPath>
	<path clip-path="url(#SVGID_30_)" d="M253.2,170.7c0,0.9,0.4,1.8,1,2.5s1.6,1,2.5,1c0.9,0,1.8-0.4,2.5-1s1-1.6,1-2.5
		s-0.4-1.8-1-2.5s-1.6-1-2.5-1c-0.9,0-1.8,0.4-2.5,1S253.2,169.8,253.2,170.7z"/>
	<path clip-path="url(#SVGID_30_)" fill="none" stroke="#000000" stroke-linejoin="round" stroke-miterlimit="10" d="M253.2,170.7
		c0,0.9,0.4,1.8,1,2.5s1.6,1,2.5,1c0.9,0,1.8-0.4,2.5-1s1-1.6,1-2.5s-0.4-1.8-1-2.5s-1.6-1-2.5-1c-0.9,0-1.8,0.4-2.5,1
		S253.2,169.8,253.2,170.7z"/>
</g>
<g>
	<defs>
		<rect id="SVGID_31_" x="199.1" y="195.6" width="9.1" height="9.1"/>
	</defs>
	<clipPath id="SVGID_32_">
		<use xlink:href="#SVGID_31_"  overflow="visible"/>
	</clipPath>
	<path clip-path="url(#SVGID_32_)" d="M200.1,200.1c0,0.9,0.4,1.8,1,2.5s1.6,1,2.5,1s1.8-0.4,2.5-1s1-1.6,1-2.5s-0.4-1.8-1-2.5
		s-1.6-1-2.5-1s-1.8,0.4-2.5,1S200.1,199.2,200.1,200.1z"/>
	<path clip-path="url(#SVGID_32_)" fill="none" stroke="#000000" stroke-linejoin="round" stroke-miterlimit="10" d="M200.1,200.1
		c0,0.9,0.4,1.8,1,2.5s1.6,1,2.5,1s1.8-0.4,2.5-1s1-1.6,1-2.5s-0.4-1.8-1-2.5s-1.6-1-2.5-1s-1.8,0.4-2.5,1S200.1,199.2,200.1,200.1z
		"/>
</g>
<g>
	<defs>
		<rect id="SVGID_33_" y="11.7" width="9.1" height="9.1"/>
	</defs>
	<clipPath id="SVGID_34_">
		<use xlink:href="#SVGID_33_"  overflow="visible"/>
	</clipPath>
	<path clip-path="url(#SVGID_34_)" d="M1,16.2c0,0.9,0.4,1.8,1,2.5s1.6,1,2.5,1s1.8-0.4,2.5-1s1-1.6,1-2.5s-0.4-1.8-1-2.5
		s-1.6-1-2.5-1s-1.8,0.4-2.5,1S1,15.3,1,16.2z"/>
	<path clip-path="url(#SVGID_34_)" fill="none" stroke="#000000" stroke-linejoin="round" stroke-miterlimit="10" d="M1,16.2
		c0,0.9,0.4,1.8,1,2.5s1.6,1,2.5,1s1.8-0.4,2.5-1s1-1.6,1-2.5s-0.4-1.8-1-2.5s-1.6-1-2.5-1s-1.8,0.4-2.5,1S1,15.3,1,16.2z"/>
</g>
<g>
	<defs>
		<rect id="SVGID_35_" x="119.5" y="21.7" width="9.1" height="9.1"/>
	</defs>
	<clipPath id="SVGID_36_">
		<use xlink:href="#SVGID_35_"  overflow="visible"/>
	</clipPath>
	<path clip-path="url(#SVGID_36_)" d="M120.5,26.3c0,0.9,0.4,1.8,1,2.5s1.6,1,2.5,1s1.8-0.4,2.5-1s1-1.6,1-2.5s-0.4-1.8-1-2.5
		s-1.6-1-2.5-1s-1.8,0.4-2.5,1S120.5,25.3,120.5,26.3z"/>
	<path clip-path="url(#SVGID_36_)" fill="none" stroke="#000000" stroke-linejoin="round" stroke-miterlimit="10" d="M120.5,26.3
		c0,0.9,0.4,1.8,1,2.5s1.6,1,2.5,1s1.8-0.4,2.5-1s1-1.6,1-2.5s-0.4-1.8-1-2.5s-1.6-1-2.5-1s-1.8,0.4-2.5,1S120.5,25.3,120.5,26.3z"
		/>
</g>
<g>
	<defs>
		<rect id="SVGID_37_" x="272.2" y="128.5" width="9.1" height="9.1"/>
	</defs>
	<clipPath id="SVGID_38_">
		<use xlink:href="#SVGID_37_"  overflow="visible"/>
	</clipPath>
	<path clip-path="url(#SVGID_38_)" d="M273.2,133c0,0.9,0.4,1.8,1,2.5s1.6,1,2.5,1s1.8-0.4,2.5-1s1-1.6,1-2.5s-0.4-1.8-1-2.5
		s-1.6-1-2.5-1s-1.8,0.4-2.5,1S273.2,132.1,273.2,133z"/>
	<path clip-path="url(#SVGID_38_)" fill="none" stroke="#000000" stroke-linejoin="round" stroke-miterlimit="10" d="M273.2,133
		c0,0.9,0.4,1.8,1,2.5s1.6,1,2.5,1s1.8-0.4,2.5-1s1-1.6,1-2.5s-0.4-1.8-1-2.5s-1.6-1-2.5-1s-1.8,0.4-2.5,1S273.2,132.1,273.2,133z"
		/>
</g>
<g>
	<defs>
		<rect id="SVGID_39_" x="157.4" y="79.5" width="9.1" height="9.1"/>
	</defs>
	<clipPath id="SVGID_40_">
		<use xlink:href="#SVGID_39_"  overflow="visible"/>
	</clipPath>
	<path clip-path="url(#SVGID_40_)" d="M158.4,84c0,0.9,0.4,1.8,1,2.5s1.6,1,2.5,1s1.8-0.4,2.5-1s1-1.6,1-2.5s-0.4-1.8-1-2.5
		s-1.6-1-2.5-1s-1.8,0.4-2.5,1S158.4,83.1,158.4,84z"/>
	<path clip-path="url(#SVGID_40_)" fill="none" stroke="#000000" stroke-linejoin="round" stroke-miterlimit="10" d="M158.4,84
		c0,0.9,0.4,1.8,1,2.5s1.6,1,2.5,1s1.8-0.4,2.5-1s1-1.6,1-2.5s-0.4-1.8-1-2.5s-1.6-1-2.5-1s-1.8,0.4-2.5,1S158.4,83.1,158.4,84z"/>
</g>
<g>
	<defs>
		<rect id="SVGID_41_" x="267.8" y="103.8" width="9.1" height="9.1"/>
	</defs>
	<clipPath id="SVGID_42_">
		<use xlink:href="#SVGID_41_"  overflow="visible"/>
	</clipPath>
	<path clip-path="url(#SVGID_42_)" d="M268.8,108.3c0,0.9,0.4,1.8,1,2.5s1.6,1,2.5,1s1.8-0.4,2.5-1s1-1.6,1-2.5s-0.4-1.8-1-2.5
		s-1.6-1-2.5-1s-1.8,0.4-2.5,1S268.8,107.4,268.8,108.3z"/>
	<path clip-path="url(#SVGID_42_)" fill="none" stroke="#000000" stroke-linejoin="round" stroke-miterlimit="10" d="M268.8,108.3
		c0,0.9,0.4,1.8,1,2.5s1.6,1,2.5,1s1.8-0.4,2.5-1s1-1.6,1-2.5s-0.4-1.8-1-2.5s-1.6-1-2.5-1s-1.8,0.4-2.5,1S268.8,107.4,268.8,108.3z
		"/>
</g>
<g>
	<defs>
		<rect id="SVGID_43_" x="90.6" y="31.8" width="9.1" height="9.1"/>
	</defs>
	<clipPath id="SVGID_44_">
		<use xlink:href="#SVGID_43_"  overflow="visible"/>
	</clipPath>
	<path clip-path="url(#SVGID_44_)" d="M91.6,36.3c0,0.9,0.4,1.8,1,2.5s1.6,1,2.5,1s1.8-0.4,2.5-1s1-1.6,1-2.5s-0.4-1.8-1-2.5
		s-1.6-1-2.5-1s-1.8,0.4-2.5,1S91.6,35.4,91.6,36.3z"/>
	<path clip-path="url(#SVGID_44_)" fill="none" stroke="#000000" stroke-linejoin="round" stroke-miterlimit="10" d="M91.6,36.3
		c0,0.9,0.4,1.8,1,2.5s1.6,1,2.5,1s1.8-0.4,2.5-1s1-1.6,1-2.5s-0.4-1.8-1-2.5s-1.6-1-2.5-1s-1.8,0.4-2.5,1S91.6,35.4,91.6,36.3z"/>
</g>
<g>
	<defs>
		<rect id="SVGID_45_" x="219.3" y="186.5" width="9.1" height="9.1"/>
	</defs>
	<clipPath id="SVGID_46_">
		<use xlink:href="#SVGID_45_"  overflow="visible"/>
	</clipPath>
	<path clip-path="url(#SVGID_46_)" d="M220.3,191c0,0.9,0.4,1.8,1,2.5s1.6,1,2.5,1s1.8-0.4,2.5-1s1-1.6,1-2.5s-0.4-1.8-1-2.5
		s-1.6-1-2.5-1s-1.8,0.4-2.5,1S220.3,190.1,220.3,191z"/>
	<path clip-path="url(#SVGID_46_)" fill="none" stroke="#000000" stroke-linejoin="round" stroke-miterlimit="10" d="M220.3,191
		c0,0.9,0.4,1.8,1,2.5s1.6,1,2.5,1s1.8-0.4,2.5-1s1-1.6,1-2.5s-0.4-1.8-1-2.5s-1.6-1-2.5-1s-1.8,0.4-2.5,1S220.3,190.1,220.3,191z"
		/>
</g>
<g>
	<defs>
		<rect id="SVGID_47_" x="253" y="81.3" width="9.1" height="9.1"/>
	</defs>
	<clipPath id="SVGID_48_">
		<use xlink:href="#SVGID_47_"  overflow="visible"/>
	</clipPath>
	<path clip-path="url(#SVGID_48_)" d="M254,85.8c0,0.9,0.4,1.8,1,2.5s1.6,1,2.5,1s1.8-0.4,2.5-1s1-1.6,1-2.5s-0.4-1.8-1-2.5
		s-1.6-1-2.5-1s-1.8,0.4-2.5,1S254,84.9,254,85.8z"/>
	<path clip-path="url(#SVGID_48_)" fill="none" stroke="#000000" stroke-linejoin="round" stroke-miterlimit="10" d="M254,85.8
		c0,0.9,0.4,1.8,1,2.5s1.6,1,2.5,1s1.8-0.4,2.5-1s1-1.6,1-2.5s-0.4-1.8-1-2.5s-1.6-1-2.5-1s-1.8,0.4-2.5,1S254,84.9,254,85.8z"/>
</g>
<g>
	<defs>
		<rect id="SVGID_49_" x="201.1" y="5.3" width="9.1" height="9.1"/>
	</defs>
	<clipPath id="SVGID_50_">
		<use xlink:href="#SVGID_49_"  overflow="visible"/>
	</clipPath>
	<path clip-path="url(#SVGID_50_)" d="M202.1,9.8c0,0.9,0.4,1.8,1,2.5s1.6,1,2.5,1s1.8-0.4,2.5-1s1-1.6,1-2.5s-0.4-1.8-1-2.5
		s-1.6-1-2.5-1s-1.8,0.4-2.5,1S202.1,8.9,202.1,9.8z"/>
	<path clip-path="url(#SVGID_50_)" fill="none" stroke="#000000" stroke-linejoin="round" stroke-miterlimit="10" d="M202.1,9.8
		c0,0.9,0.4,1.8,1,2.5s1.6,1,2.5,1s1.8-0.4,2.5-1s1-1.6,1-2.5s-0.4-1.8-1-2.5s-1.6-1-2.5-1s-1.8,0.4-2.5,1S202.1,8.9,202.1,9.8z"/>
</g>
<g>
	<defs>
		<rect id="SVGID_51_" x="234.9" y="21.4" width="9.1" height="9.1"/>
	</defs>
	<clipPath id="SVGID_52_">
		<use xlink:href="#SVGID_51_"  overflow="visible"/>
	</clipPath>
	<path clip-path="url(#SVGID_52_)" d="M235.9,25.9c0,0.9,0.4,1.8,1,2.5s1.6,1,2.5,1s1.8-0.4,2.5-1s1-1.6,1-2.5s-0.4-1.8-1-2.5
		s-1.6-1-2.5-1s-1.8,0.4-2.5,1S235.9,25,235.9,25.9z"/>
	<path clip-path="url(#SVGID_52_)" fill="none" stroke="#000000" stroke-linejoin="round" stroke-miterlimit="10" d="M235.9,25.9
		c0,0.9,0.4,1.8,1,2.5s1.6,1,2.5,1s1.8-0.4,2.5-1s1-1.6,1-2.5s-0.4-1.8-1-2.5s-1.6-1-2.5-1s-1.8,0.4-2.5,1S235.9,25,235.9,25.9z"/>
</g>
<g>
	<defs>
		<rect id="SVGID_53_" x="246.2" y="190.2" width="9.1" height="9.1"/>
	</defs>
	<clipPath id="SVGID_54_">
		<use xlink:href="#SVGID_53_"  overflow="visible"/>
	</clipPath>
	<path clip-path="url(#SVGID_54_)" d="M247.2,194.7c0,0.9,0.4,1.8,1,2.5s1.6,1,2.5,1s1.8-0.4,2.5-1s1-1.6,1-2.5s-0.4-1.8-1-2.5
		s-1.6-1-2.5-1s-1.8,0.4-2.5,1S247.2,193.8,247.2,194.7z"/>
	<path clip-path="url(#SVGID_54_)" fill="none" stroke="#000000" stroke-linejoin="round" stroke-miterlimit="10" d="M247.2,194.7
		c0,0.9,0.4,1.8,1,2.5s1.6,1,2.5,1s1.8-0.4,2.5-1s1-1.6,1-2.5s-0.4-1.8-1-2.5s-1.6-1-2.5-1s-1.8,0.4-2.5,1S247.2,193.8,247.2,194.7z
		"/>
</g>
<g>
	<defs>
		<rect id="SVGID_55_" x="209.5" y="66" width="9.1" height="9.1"/>
	</defs>
	<clipPath id="SVGID_56_">
		<use xlink:href="#SVGID_55_"  overflow="visible"/>
	</clipPath>
	<path clip-path="url(#SVGID_56_)" d="M210.5,70.5c0,0.9,0.4,1.8,1,2.5s1.6,1,2.5,1s1.8-0.4,2.5-1s1-1.6,1-2.5s-0.4-1.8-1-2.5
		s-1.6-1-2.5-1s-1.8,0.4-2.5,1S210.5,69.6,210.5,70.5z"/>
	<path clip-path="url(#SVGID_56_)" fill="none" stroke="#000000" stroke-linejoin="round" stroke-miterlimit="10" d="M210.5,70.5
		c0,0.9,0.4,1.8,1,2.5s1.6,1,2.5,1s1.8-0.4,2.5-1s1-1.6,1-2.5s-0.4-1.8-1-2.5s-1.6-1-2.5-1s-1.8,0.4-2.5,1S210.5,69.6,210.5,70.5z"
		/>
</g>
<g>
	<defs>
		<rect id="SVGID_57_" x="205.1" y="88.1" width="9.1" height="9.1"/>
	</defs>
	<clipPath id="SVGID_58_">
		<use xlink:href="#SVGID_57_"  overflow="visible"/>
	</clipPath>
	<path clip-path="url(#SVGID_58_)" d="M206.1,92.6c0,0.9,0.4,1.8,1,2.5s1.6,1,2.5,1s1.8-0.4,2.5-1s1-1.6,1-2.5s-0.4-1.8-1-2.5
		s-1.6-1-2.5-1s-1.8,0.4-2.5,1S206.1,91.7,206.1,92.6z"/>
	<path clip-path="url(#SVGID_58_)" fill="none" stroke="#000000" stroke-linejoin="round" stroke-miterlimit="10" d="M206.1,92.6
		c0,0.9,0.4,1.8,1,2.5s1.6,1,2.5,1s1.8-0.4,2.5-1s1-1.6,1-2.5s-0.4-1.8-1-2.5s-1.6-1-2.5-1s-1.8,0.4-2.5,1S206.1,91.7,206.1,92.6z"
		/>
</g>
<g>
	<defs>
		<rect id="SVGID_59_" x="258.3" y="139.6" width="9.1" height="9.1"/>
	</defs>
	<clipPath id="SVGID_60_">
		<use xlink:href="#SVGID_59_"  overflow="visible"/>
	</clipPath>
	<path clip-path="url(#SVGID_60_)" d="M259.3,144.1c0,0.9,0.4,1.8,1,2.5s1.6,1,2.5,1s1.8-0.4,2.5-1s1-1.6,1-2.5s-0.4-1.8-1-2.5
		s-1.6-1-2.5-1s-1.8,0.4-2.5,1S259.3,143.2,259.3,144.1z"/>
	<path clip-path="url(#SVGID_60_)" fill="none" stroke="#000000" stroke-linejoin="round" stroke-miterlimit="10" d="M259.3,144.1
		c0,0.9,0.4,1.8,1,2.5s1.6,1,2.5,1s1.8-0.4,2.5-1s1-1.6,1-2.5s-0.4-1.8-1-2.5s-1.6-1-2.5-1s-1.8,0.4-2.5,1S259.3,143.2,259.3,144.1z
		"/>
</g>
<g>
	<defs>
		<rect id="SVGID_61_" x="164.1" y="153.1" width="9.1" height="9.1"/>
	</defs>
	<clipPath id="SVGID_62_">
		<use xlink:href="#SVGID_61_"  overflow="visible"/>
	</clipPath>
	<path clip-path="url(#SVGID_62_)" d="M165.1,157.7c0,0.9,0.4,1.8,1,2.5s1.6,1,2.5,1s1.8-0.4,2.5-1s1-1.6,1-2.5s-0.4-1.8-1-2.5
		s-1.6-1-2.5-1s-1.8,0.4-2.5,1S165.1,156.7,165.1,157.7z"/>
	<path clip-path="url(#SVGID_62_)" fill="none" stroke="#000000" stroke-linejoin="round" stroke-miterlimit="10" d="M165.1,157.7
		c0,0.9,0.4,1.8,1,2.5s1.6,1,2.5,1s1.8-0.4,2.5-1s1-1.6,1-2.5s-0.4-1.8-1-2.5s-1.6-1-2.5-1s-1.8,0.4-2.5,1S165.1,156.7,165.1,157.7z
		"/>
</g>
<g>
	<defs>
		<rect id="SVGID_63_" x="177.4" y="62.4" width="9.1" height="9.1"/>
	</defs>
	<clipPath id="SVGID_64_">
		<use xlink:href="#SVGID_63_"  overflow="visible"/>
	</clipPath>
	<path clip-path="url(#SVGID_64_)" d="M178.4,66.9c0,0.9,0.4,1.8,1,2.5s1.6,1,2.5,1s1.8-0.4,2.5-1s1-1.6,1-2.5s-0.4-1.8-1-2.5
		s-1.6-1-2.5-1s-1.8,0.4-2.5,1S178.4,66,178.4,66.9z"/>
	<path clip-path="url(#SVGID_64_)" fill="none" stroke="#000000" stroke-linejoin="round" stroke-miterlimit="10" d="M178.4,66.9
		c0,0.9,0.4,1.8,1,2.5s1.6,1,2.5,1s1.8-0.4,2.5-1s1-1.6,1-2.5s-0.4-1.8-1-2.5s-1.6-1-2.5-1s-1.8,0.4-2.5,1S178.4,66,178.4,66.9z"/>
</g>
<g>
	<defs>
		<rect id="SVGID_65_" x="214.2" y="123.1" width="9.1" height="9.1"/>
	</defs>
	<clipPath id="SVGID_66_">
		<use xlink:href="#SVGID_65_"  overflow="visible"/>
	</clipPath>
	<path clip-path="url(#SVGID_66_)" d="M215.2,127.6c0,0.9,0.4,1.8,1,2.5s1.6,1,2.5,1s1.8-0.4,2.5-1s1-1.6,1-2.5c0-0.9-0.4-1.8-1-2.5
		s-1.6-1-2.5-1s-1.8,0.4-2.5,1S215.2,126.7,215.2,127.6z"/>
	<path clip-path="url(#SVGID_66_)" fill="none" stroke="#000000" stroke-linejoin="round" stroke-miterlimit="10" d="M215.2,127.6
		c0,0.9,0.4,1.8,1,2.5s1.6,1,2.5,1s1.8-0.4,2.5-1s1-1.6,1-2.5c0-0.9-0.4-1.8-1-2.5s-1.6-1-2.5-1s-1.8,0.4-2.5,1
		S215.2,126.7,215.2,127.6z"/>
</g>
<g>
	<defs>
		<rect id="SVGID_67_" x="204.3" y="132.5" width="9.1" height="9.1"/>
	</defs>
	<clipPath id="SVGID_68_">
		<use xlink:href="#SVGID_67_"  overflow="visible"/>
	</clipPath>
	<path clip-path="url(#SVGID_68_)" d="M205.3,137.1c0,0.9,0.4,1.8,1,2.5s1.6,1,2.5,1s1.8-0.4,2.5-1s1-1.6,1-2.5c0-0.9-0.4-1.8-1-2.5
		s-1.6-1-2.5-1s-1.8,0.4-2.5,1S205.3,136.1,205.3,137.1z"/>
	<path clip-path="url(#SVGID_68_)" fill="none" stroke="#000000" stroke-linejoin="round" stroke-miterlimit="10" d="M205.3,137.1
		c0,0.9,0.4,1.8,1,2.5s1.6,1,2.5,1s1.8-0.4,2.5-1s1-1.6,1-2.5c0-0.9-0.4-1.8-1-2.5s-1.6-1-2.5-1s-1.8,0.4-2.5,1
		S205.3,136.1,205.3,137.1z"/>
</g>
</svg>
