<?xml version="1.0" encoding="utf-8"?>
<!-- Generator: Adobe Illustrator 17.1.0, SVG Export Plug-In . SVG Version: 6.00 Build 0)  -->
<!DOCTYPE svg PUBLIC "-//W3C//DTD SVG 1.1//EN" "http://www.w3.org/Graphics/SVG/1.1/DTD/svg11.dtd">
<svg version="1.1" id="Layer_1" xmlns="http://www.w3.org/2000/svg" xmlns:xlink="http://www.w3.org/1999/xlink" x="0px" y="0px"
	 viewBox="-22.5 15.6 238 164.9" enable-background="new -22.5 15.6 238 164.9" xml:space="preserve">
<polyline fill="none" stroke="#66C2A5" stroke-width="1.5" stroke-miterlimit="10" points="6.4,150.1 6.8,149.8 7.2,149.5 
	7.6,149.3 8,149 8.4,148.7 8.9,148.5 9.3,148.2 9.7,147.9 10.5,147.4 10.9,147.2 11.7,146.6 12.1,146.4 13.4,145.6 13.8,145.3 
	16.6,143.5 17.1,143.2 18.3,142.4 18.7,142.2 19.1,141.9 19.5,141.7 19.9,141.4 20.7,140.9 21.2,140.6 23.6,139.1 24,138.8 
	24.4,138.6 24.8,138.3 25.3,138.1 25.7,137.8 26.1,137.5 28.5,136 28.9,135.8 29.4,135.5 29.8,135.3 30.2,135 32.6,133.5 
	33.1,133.3 33.5,133 33.9,132.8 34.3,132.5 35.5,131.8 35.9,131.5 36.7,131 37.6,130.6 38,130.3 38.4,130.1 38.8,129.8 39.6,129.4 
	40,129.1 40.4,128.9 42.1,127.9 42.5,127.7 42.9,127.4 43.7,127 44.1,126.7 44.5,126.5 45.4,126 45.8,125.8 46.2,125.6 47.4,124.9 
	47.8,124.7 48.2,124.4 50.3,123.3 50.7,123.1 51.1,122.8 52.3,122.2 52.7,122 53.1,121.7 55.2,120.6 55.6,120.4 56,120.2 
	56.8,119.8 57.3,119.6 57.7,119.4 58.1,119.1 58.5,118.9 58.9,118.7 59.3,118.5 59.7,118.3 60.1,118.1 60.5,117.9 61.4,117.5 
	61.8,117.3 62.2,117.1 64.2,116 65.9,115.2 66.3,115 66.7,114.8 67.9,114.3 68.3,114.1 68.7,113.9 70,113.3 70.4,113.1 70.8,112.9 
	72,112.4 72.4,112.2 72.8,112 74.1,111.4 74.5,111.3 74.9,111.1 76.1,110.5 76.9,110.2 77.3,110 77.8,109.8 78.6,109.5 80.2,108.8 
	81,108.5 81.4,108.3 81.9,108.1 82.7,107.8 83.9,107.3 84.3,107.1 84.7,107 86,106.5 86.4,106.3 86.8,106.2 87.6,105.9 88,105.7 
	88.4,105.6 90.1,104.9 90.5,104.8 90.9,104.6 91.7,104.3 92.1,104.2 92.5,104.1 94.2,103.5 96.2,102.8 98.3,102.1 99.9,101.6 
	100.3,101.4 100.7,101.3 102,100.9 102.8,100.7 103.2,100.5 103.6,100.4 104,100.3 104.4,100.2 106.5,99.6 108.1,99.1 108.5,99 
	108.9,98.9 110.2,98.5 110.6,98.4 111,98.3 112.2,98 112.6,97.9 113,97.7 114.7,97.3 115.5,97.1 115.9,97 116.3,96.9 117.1,96.7 
	119.2,96.2 121.6,95.7 123.7,95.2 126.2,94.7 128.6,94.2 130.7,93.8 131.1,93.7 131.5,93.7 132.7,93.4 133.1,93.4 133.5,93.3 
	133.9,93.2 134.4,93.2 134.8,93.1 135.2,93 136,92.9 136.8,92.7 137.2,92.7 137.6,92.6 138.5,92.5 138.9,92.4 139.3,92.3 
	140.5,92.2 140.9,92.1 141.3,92 142.2,91.9 142.6,91.9 143,91.8 143.4,91.7 143.8,91.7 144.2,91.6 144.6,91.6 146.3,91.4 
	146.7,91.3 147.1,91.3 149.5,90.9 150.4,90.9 150.8,90.8 152,90.7 152.4,90.6 152.8,90.6 153.6,90.5 154,90.4 154.5,90.4 
	154.9,90.4 155.7,90.3 156.1,90.2 156.5,90.2 158.1,90 158.6,90 159,90 159.4,89.9 159.8,89.9 161.8,89.7 162.3,89.7 162.7,89.6 
	165.5,89.4 165.9,89.4 166.4,89.4 169.2,89.2 169.6,89.1 170,89.1 172.9,89 173.3,88.9 173.7,88.9 174.6,88.9 175,88.9 175.8,88.8 
	176.2,88.8 177,88.8 177.4,88.7 177.8,88.7 178.2,88.7 178.7,88.7 180.3,88.6 180.7,88.6 181.5,88.6 181.9,88.6 182.3,88.6 
	185.6,88.5 186,88.5 186.4,88.4 186.9,88.4 187.3,88.4 190.1,88.4 190.6,88.4 191.4,88.3 192.2,88.3 192.6,88.3 195.1,88.3 
	195.5,88.3 196.3,88.3 196.7,88.3 197.1,88.3 198.3,88.3 198.8,88.3 200,88.3 200.4,88.3 201.6,88.3 202,88.3 202.4,88.3 
	203.3,88.3 203.7,88.3 207.4,88.3 207.8,88.4 208.2,88.4 208.6,88.4 209,88.4 209.4,88.4 209.8,88.4 214.3,88.5 214.8,88.5 
	215.2,88.5 215.6,88.5 "/>
<polyline fill="none" stroke="#808080" stroke-width="0.375" stroke-miterlimit="10" stroke-dasharray="3.75,3.75" points="
	6.4,150.1 6.8,149.8 7.6,149.3 8.4,148.7 9.3,148.2 10.1,147.7 10.9,147.2 11.7,146.6 12.5,146.1 13.4,145.6 14.2,145 15,144.5 
	15.8,144 16.6,143.5 17.5,142.9 18.3,142.4 19.1,141.9 19.9,141.4 20.7,140.8 21.6,140.3 22.4,139.8 23.2,139.2 24,138.7 
	24.8,138.2 25.7,137.7 26.5,137.1 27.3,136.6 28.1,136.1 28.9,135.6 29.8,135 30.6,134.5 31.4,134 32.2,133.4 33.1,132.9 
	33.9,132.4 34.7,131.9 35.5,131.3 36.3,130.8 37.2,130.3 38,129.8 38.8,129.2 39.6,128.7 40.4,128.2 41.3,127.6 42.1,127.1 
	42.9,126.6 43.7,126.1 44.5,125.5 45.4,125 46.2,124.5 47,123.9 47.8,123.4 48.6,122.9 49.5,122.4 50.3,121.8 51.1,121.3 
	51.9,120.8 52.7,120.3 53.6,119.7 54.4,119.2 55.2,118.7 56,118.2 56.8,117.6 57.7,117.1 58.5,116.6 59.3,116 60.1,115.5 60.9,115 
	61.8,114.5 62.6,113.9 63.4,113.4 64.2,112.9 65,112.3 65.9,111.8 66.7,111.3 67.5,110.8 68.3,110.2 69.1,109.7 70,109.2 
	70.8,108.7 71.6,108.1 72.4,107.6 73.2,107.1 74.1,106.6 74.9,106 75.7,105.5 76.5,105 77.3,104.4 78.2,103.9 79,103.4 79.8,102.9 
	80.6,102.3 81.4,101.8 82.3,101.3 83.1,100.7 83.9,100.2 84.7,99.7 85.6,99.2 86.4,98.6 87.2,98.1 88,97.6 88.8,97.1 89.7,96.5 
	90.5,96 91.3,95.5 92.1,94.9 92.9,94.4 93.8,93.9 94.6,93.4 95.4,92.8 96.2,92.3 97,91.8 97.9,91.3 98.7,90.7 99.5,90.2 100.3,89.7 
	101.1,89.1 102,88.6 102.8,88.1 103.6,87.6 104.4,87 105.2,86.5 106.1,86 106.9,85.5 107.7,84.9 108.5,84.4 109.3,83.9 110.2,83.3 
	111,82.8 111.8,82.3 112.6,81.8 113.4,81.2 114.3,80.7 115.1,80.2 115.9,79.7 116.3,79.4 116.7,79.1 117.1,78.9 117.5,78.6 
	118.4,78.1 119.2,77.5 120,77 120.8,76.5 121.6,76 122.5,75.4 123.3,74.9 124.1,74.4 124.5,74.1 124.9,73.9 125.3,73.6 125.7,73.3 
	126.6,72.8 127.4,72.3 128.2,71.7 129,71.2 129.8,70.7 130.7,70.2 131.5,69.6 132.3,69.1 133.1,68.6 133.9,68.1 134.8,67.5 
	135.6,67 136.4,66.5 137.2,65.9 138.1,65.4 138.9,64.9 139.7,64.4 140.5,63.8 141.3,63.3 142.2,62.8 142.6,62.5 143,62.3 143.4,62 
	143.8,61.7 144.6,61.2 145.4,60.7 146.3,60.1 147.1,59.6 147.9,59.1 148.7,58.6 149.5,58 150.4,57.5 150.8,57.2 151.2,57 
	151.6,56.7 152,56.4 152.8,55.9 153.6,55.4 154.5,54.9 155.3,54.3 156.1,53.8 156.9,53.3 157.7,52.8 158.6,52.2 159,52 159.4,51.7 
	159.8,51.4 160.2,51.2 161,50.7 161.8,50.1 162.7,49.6 163.5,49.1 164.3,48.5 165.1,48 165.9,47.5 166.8,47 167.6,46.4 168.4,45.9 
	168.8,45.6 169.2,45.4 169.6,45.1 170,44.8 170.9,44.3 171.7,43.8 172.5,43.3 173.3,42.7 174.1,42.2 175,41.7 175.8,41.2 
	176.6,40.6 177,40.4 177.4,40.1 177.8,39.8 178.2,39.6 179.1,39.1 179.9,38.5 180.7,38 181.5,37.5 182.3,36.9 183.2,36.4 184,35.9 
	184.8,35.4 185.2,35.1 185.6,34.8 186,34.6 186.4,34.3 187.3,33.8 188.1,33.2 188.9,32.7 189.7,32.2 190.6,31.7 191.4,31.1 
	192.2,30.6 193,30.1 193.8,29.6 194.7,29 195.1,28.8 195.5,28.5 195.9,28.2 196.3,28 197.1,27.4 197.9,26.9 198.8,26.4 199.6,25.9 
	200.4,25.3 201.2,24.8 202,24.3 202.9,23.8 203.3,23.5 203.7,23.2 204.1,23 204.5,22.7 205.3,22.2 206.1,21.6 207,21.1 207.8,20.6 
	208.6,20.1 209.4,19.5 210.2,19 211.1,18.5 211.5,18.2 211.9,18 212.3,17.7 212.7,17.4 213.5,16.9 214.3,16.4 215.2,15.8 
	215.6,15.6 "/>
<line fill="none" stroke="#292724" stroke-width="0.75" stroke-miterlimit="10" x1="6.4" y1="158.1" x2="215.6" y2="158.1"/>
<path fill="#292724" d="M176.3,177c0,0.2,0.1,0.4,0.2,0.5c0.2,0.2,0.4,0.2,0.9,0.2c0.2,0,0.4,0,0.6-0.1c0.1-0.1,0.2-0.2,0.2-0.3
	c0-0.1-0.1-0.2-0.2-0.3c-0.1-0.1-0.6-0.2-1.3-0.4c-0.5-0.1-0.9-0.3-1.1-0.5c-0.2-0.2-0.3-0.5-0.3-0.9c0-0.4,0.2-0.8,0.5-1.1
	c0.3-0.3,0.8-0.5,1.5-0.5c0.6,0,1.1,0.1,1.5,0.4c0.4,0.2,0.6,0.6,0.6,1.2H178c0-0.2-0.1-0.3-0.1-0.4c-0.1-0.2-0.4-0.3-0.7-0.3
	c-0.3,0-0.5,0-0.6,0.1c-0.1,0.1-0.2,0.2-0.2,0.3c0,0.1,0.1,0.2,0.2,0.3c0.1,0.1,0.6,0.2,1.3,0.3c0.5,0.1,0.9,0.3,1.1,0.5
	c0.2,0.2,0.4,0.5,0.4,0.9c0,0.5-0.2,0.9-0.5,1.2c-0.4,0.3-0.9,0.5-1.6,0.5c-0.8,0-1.3-0.2-1.7-0.5c-0.4-0.3-0.5-0.7-0.5-1.2H176.3z
	 M171.8,174.7v-0.9h0.7v-1.3h1.2v1.3h0.8v0.9h-0.8v2.5c0,0.2,0,0.3,0.1,0.4c0.1,0,0.2,0.1,0.5,0.1c0,0,0.1,0,0.1,0c0,0,0.1,0,0.1,0
	v0.9l-0.6,0c-0.6,0-1-0.1-1.2-0.3c-0.1-0.1-0.2-0.4-0.2-0.7v-2.9H171.8z M170.7,174c0.3,0.3,0.5,0.7,0.5,1.3v3.2h-1.3v-2.9
	c0-0.2,0-0.4-0.1-0.6c-0.1-0.2-0.4-0.4-0.7-0.4c-0.4,0-0.7,0.2-0.9,0.5c-0.1,0.2-0.1,0.4-0.1,0.7v2.6h-1.2v-4.8h1.2v0.7
	c0.2-0.2,0.3-0.4,0.5-0.5c0.3-0.2,0.6-0.3,1-0.3C170,173.6,170.4,173.7,170.7,174z M164.8,173.8c0.3,0.2,0.6,0.4,0.8,0.7
	c0.2,0.3,0.3,0.6,0.4,1c0,0.2,0,0.5,0,0.9h-3.3c0,0.5,0.2,0.8,0.5,1c0.2,0.1,0.4,0.2,0.6,0.2c0.3,0,0.5-0.1,0.6-0.2
	c0.1-0.1,0.2-0.2,0.2-0.3h1.3c0,0.3-0.2,0.6-0.4,0.9c-0.4,0.5-1,0.7-1.7,0.7c-0.6,0-1.1-0.2-1.6-0.6c-0.5-0.4-0.7-1-0.7-1.9
	c0-0.8,0.2-1.5,0.6-1.9c0.4-0.4,1-0.7,1.6-0.7C164.1,173.6,164.5,173.7,164.8,173.8z M163,174.9c-0.2,0.2-0.3,0.4-0.3,0.7h1.9
	c0-0.3-0.1-0.6-0.3-0.8c-0.2-0.2-0.4-0.3-0.7-0.3C163.4,174.6,163.2,174.7,163,174.9z M159.8,173.7c0.2,0.1,0.4,0.2,0.6,0.4
	c0.1,0.2,0.2,0.4,0.3,0.6c0,0.2,0,0.4,0,0.7l0,3h-1.3v-3.1c0-0.2,0-0.3-0.1-0.4c-0.1-0.2-0.3-0.3-0.6-0.3c-0.3,0-0.6,0.1-0.7,0.4
	c-0.1,0.2-0.1,0.3-0.1,0.6v2.9h-1.3v-2.9c0-0.3,0-0.5-0.1-0.6c-0.1-0.2-0.3-0.3-0.6-0.3c-0.4,0-0.6,0.1-0.7,0.3
	c-0.1,0.1-0.1,0.3-0.1,0.6v2.9h-1.3v-4.8h1.2v0.7c0.2-0.2,0.3-0.4,0.4-0.5c0.2-0.2,0.6-0.3,0.9-0.3c0.4,0,0.7,0.1,0.9,0.2
	c0.2,0.1,0.3,0.3,0.4,0.6c0.2-0.3,0.4-0.5,0.6-0.6c0.3-0.1,0.5-0.2,0.9-0.2C159.4,173.6,159.6,173.7,159.8,173.7z M151.8,173.8
	c0.3,0.2,0.6,0.4,0.8,0.7c0.2,0.3,0.3,0.6,0.4,1c0,0.2,0,0.5,0,0.9h-3.3c0,0.5,0.2,0.8,0.5,1c0.2,0.1,0.4,0.2,0.6,0.2
	c0.3,0,0.5-0.1,0.6-0.2c0.1-0.1,0.2-0.2,0.2-0.3h1.3c0,0.3-0.2,0.6-0.4,0.9c-0.4,0.5-1,0.7-1.7,0.7c-0.6,0-1.1-0.2-1.6-0.6
	c-0.5-0.4-0.7-1-0.7-1.9c0-0.8,0.2-1.5,0.6-1.9c0.4-0.4,1-0.7,1.6-0.7C151.1,173.6,151.4,173.7,151.8,173.8z M150,174.9
	c-0.2,0.2-0.3,0.4-0.3,0.7h1.9c0-0.3-0.1-0.6-0.3-0.8c-0.2-0.2-0.4-0.3-0.7-0.3C150.4,174.6,150.2,174.7,150,174.9z M147.6,178.5
	h-1.3V172h1.3V178.5z M145.2,173.2h-3.4v1.4h3.1v1.1h-3.1v1.7h3.6v1.2h-4.9V172h4.8V173.2z M134.7,173.7c0.3,0.1,0.6,0.4,0.7,0.7
	v-0.7h1.2v4.5c0,0.6-0.1,1.1-0.3,1.4c-0.4,0.5-1,0.8-2.1,0.8c-0.6,0-1.1-0.1-1.5-0.4c-0.4-0.2-0.6-0.6-0.6-1.1h1.4
	c0,0.1,0.1,0.2,0.2,0.3c0.1,0.1,0.4,0.2,0.7,0.2c0.5,0,0.8-0.2,0.9-0.5c0.1-0.2,0.1-0.5,0.1-1v-0.3c-0.1,0.2-0.2,0.4-0.4,0.5
	c-0.2,0.2-0.6,0.3-1,0.3c-0.6,0-1.1-0.2-1.5-0.6c-0.4-0.4-0.6-1-0.6-1.8c0-0.7,0.2-1.3,0.5-1.8c0.4-0.5,0.9-0.7,1.5-0.7
	C134.3,173.6,134.5,173.6,134.7,173.7z M135.1,177.2c0.2-0.2,0.3-0.6,0.3-1.1c0-0.5-0.1-0.8-0.3-1c-0.2-0.2-0.4-0.4-0.8-0.4
	c-0.4,0-0.7,0.2-0.9,0.6c-0.1,0.2-0.1,0.5-0.1,0.8c0,0.3,0,0.5,0.1,0.7c0.2,0.4,0.5,0.6,0.9,0.6
	C134.7,177.5,134.9,177.4,135.1,177.2z M130.7,174c0.3,0.3,0.5,0.7,0.5,1.3v3.2h-1.3v-2.9c0-0.2,0-0.4-0.1-0.6
	c-0.1-0.2-0.4-0.4-0.7-0.4c-0.4,0-0.7,0.2-0.9,0.5c-0.1,0.2-0.1,0.4-0.1,0.7v2.6h-1.2v-4.8h1.2v0.7c0.2-0.2,0.3-0.4,0.5-0.5
	c0.3-0.2,0.6-0.3,1-0.3C130,173.6,130.4,173.7,130.7,174z M124.3,173.7h1.3v4.8h-1.3V173.7z M125.6,173.2h-1.3V172h1.3V173.2z
	 M120.3,177c0,0.2,0.1,0.4,0.2,0.5c0.2,0.2,0.4,0.2,0.9,0.2c0.2,0,0.4,0,0.6-0.1c0.1-0.1,0.2-0.2,0.2-0.3c0-0.1-0.1-0.2-0.2-0.3
	c-0.1-0.1-0.6-0.2-1.3-0.4c-0.5-0.1-0.9-0.3-1.1-0.5c-0.2-0.2-0.3-0.5-0.3-0.9c0-0.4,0.2-0.8,0.5-1.1c0.3-0.3,0.8-0.5,1.5-0.5
	c0.6,0,1.1,0.1,1.5,0.4c0.4,0.2,0.6,0.6,0.6,1.2H122c0-0.2-0.1-0.3-0.1-0.4c-0.1-0.2-0.4-0.3-0.7-0.3c-0.3,0-0.5,0-0.6,0.1
	c-0.1,0.1-0.2,0.2-0.2,0.3c0,0.1,0.1,0.2,0.2,0.3c0.1,0.1,0.6,0.2,1.3,0.3c0.5,0.1,0.9,0.3,1.1,0.5c0.2,0.2,0.4,0.5,0.4,0.9
	c0,0.5-0.2,0.9-0.5,1.2c-0.4,0.3-0.9,0.5-1.6,0.5c-0.8,0-1.3-0.2-1.7-0.5c-0.4-0.3-0.5-0.7-0.5-1.2H120.3z M115.3,177
	c0,0.2,0.1,0.4,0.2,0.5c0.2,0.2,0.4,0.2,0.9,0.2c0.2,0,0.4,0,0.6-0.1c0.1-0.1,0.2-0.2,0.2-0.3c0-0.1-0.1-0.2-0.2-0.3
	c-0.1-0.1-0.6-0.2-1.3-0.4c-0.5-0.1-0.9-0.3-1.1-0.5c-0.2-0.2-0.3-0.5-0.3-0.9c0-0.4,0.2-0.8,0.5-1.1c0.3-0.3,0.8-0.5,1.5-0.5
	c0.6,0,1.1,0.1,1.5,0.4c0.4,0.2,0.6,0.6,0.6,1.2H117c0-0.2-0.1-0.3-0.1-0.4c-0.1-0.2-0.4-0.3-0.7-0.3c-0.3,0-0.5,0-0.6,0.1
	c-0.1,0.1-0.2,0.2-0.2,0.3c0,0.1,0.1,0.2,0.2,0.3c0.1,0.1,0.6,0.2,1.3,0.3c0.5,0.1,0.9,0.3,1.1,0.5c0.2,0.2,0.4,0.5,0.4,0.9
	c0,0.5-0.2,0.9-0.5,1.2c-0.4,0.3-0.9,0.5-1.6,0.5c-0.8,0-1.3-0.2-1.7-0.5c-0.4-0.3-0.5-0.7-0.5-1.2H115.3z M112.3,173.8
	c0.3,0.2,0.6,0.4,0.8,0.7c0.2,0.3,0.3,0.6,0.4,1c0,0.2,0,0.5,0,0.9h-3.3c0,0.5,0.2,0.8,0.5,1c0.2,0.1,0.4,0.2,0.6,0.2
	c0.3,0,0.5-0.1,0.6-0.2c0.1-0.1,0.2-0.2,0.2-0.3h1.3c0,0.3-0.2,0.6-0.4,0.9c-0.4,0.5-1,0.7-1.7,0.7c-0.6,0-1.1-0.2-1.6-0.6
	c-0.5-0.4-0.7-1-0.7-1.9c0-0.8,0.2-1.5,0.6-1.9c0.4-0.4,1-0.7,1.6-0.7C111.6,173.6,111.9,173.7,112.3,173.8z M110.5,174.9
	c-0.2,0.2-0.3,0.4-0.3,0.7h1.9c0-0.3-0.1-0.6-0.3-0.8c-0.2-0.2-0.4-0.3-0.7-0.3C110.9,174.6,110.7,174.7,110.5,174.9z M107.1,175.4
	c0-0.2-0.1-0.3-0.2-0.5c-0.1-0.2-0.4-0.3-0.7-0.3c-0.4,0-0.7,0.2-0.9,0.6c-0.1,0.2-0.1,0.5-0.1,0.9c0,0.4,0,0.6,0.1,0.8
	c0.1,0.4,0.4,0.6,0.8,0.6c0.3,0,0.5-0.1,0.6-0.2c0.1-0.2,0.2-0.4,0.2-0.6h1.3c0,0.4-0.2,0.7-0.4,1.1c-0.4,0.5-1,0.8-1.7,0.8
	c-0.8,0-1.3-0.2-1.7-0.7c-0.4-0.5-0.5-1.1-0.5-1.8c0-0.8,0.2-1.5,0.6-1.9c0.4-0.5,1-0.7,1.7-0.7c0.6,0,1.1,0.1,1.5,0.4
	c0.4,0.3,0.6,0.7,0.7,1.4H107.1z M102.8,177.9c-0.4,0.5-1,0.8-1.8,0.8s-1.4-0.2-1.8-0.8c-0.4-0.5-0.6-1.1-0.6-1.8
	c0-0.7,0.2-1.3,0.6-1.8c0.4-0.5,1-0.8,1.8-0.8s1.4,0.3,1.8,0.8c0.4,0.5,0.6,1.1,0.6,1.8C103.4,176.8,103.2,177.4,102.8,177.9z
	 M101.8,177.2c0.2-0.3,0.3-0.6,0.3-1.1c0-0.5-0.1-0.9-0.3-1.1c-0.2-0.3-0.5-0.4-0.8-0.4c-0.4,0-0.6,0.1-0.8,0.4
	c-0.2,0.3-0.3,0.6-0.3,1.1c0,0.5,0.1,0.9,0.3,1.1c0.2,0.3,0.5,0.4,0.8,0.4C101.3,177.6,101.6,177.5,101.8,177.2z M97.9,173.6
	c0,0,0.1,0,0.1,0v1.3c-0.1,0-0.1,0-0.2,0c-0.1,0-0.1,0-0.1,0c-0.5,0-0.8,0.2-1,0.5c-0.1,0.2-0.1,0.5-0.1,0.9v2.3h-1.3v-4.8h1.2v0.8
	c0.2-0.3,0.4-0.5,0.5-0.7C97.2,173.7,97.5,173.6,97.9,173.6C97.9,173.6,97.9,173.6,97.9,173.6z M93.8,175.7
	c-0.4,0.3-0.9,0.5-1.7,0.5h-1.4v2.3h-1.3V172h2.8c0.6,0,1.2,0.2,1.6,0.5c0.4,0.3,0.6,0.9,0.6,1.6C94.4,174.9,94.2,175.4,93.8,175.7z
	 M92.8,173.4c-0.2-0.1-0.4-0.2-0.7-0.2h-1.3v1.9H92c0.3,0,0.6-0.1,0.7-0.2c0.2-0.2,0.3-0.4,0.3-0.7C93,173.8,92.9,173.5,92.8,173.4z
	 M85.8,172c0.1,0,0.2,0,0.3,0v1c-0.1,0-0.2,0-0.4,0c-0.2,0-0.3,0-0.3,0.1c-0.1,0.1-0.1,0.2-0.1,0.3c0,0.1,0,0.2,0,0.4h0.8v0.9h-0.8
	v3.9H84v-3.9h-0.7v-0.9H84v-0.3c0-0.5,0.1-0.9,0.3-1.1c0.2-0.3,0.6-0.4,1.3-0.4C85.6,172,85.7,172,85.8,172z M82.3,177.9
	c-0.4,0.5-1,0.8-1.8,0.8c-0.8,0-1.4-0.2-1.8-0.8c-0.4-0.5-0.6-1.1-0.6-1.8c0-0.7,0.2-1.3,0.6-1.8c0.4-0.5,1-0.8,1.8-0.8
	c0.8,0,1.4,0.3,1.8,0.8c0.4,0.5,0.6,1.1,0.6,1.8C82.9,176.8,82.7,177.4,82.3,177.9z M81.3,177.2c0.2-0.3,0.3-0.6,0.3-1.1
	c0-0.5-0.1-0.9-0.3-1.1c-0.2-0.3-0.5-0.4-0.8-0.4c-0.4,0-0.6,0.1-0.8,0.4c-0.2,0.3-0.3,0.6-0.3,1.1c0,0.5,0.1,0.9,0.3,1.1
	c0.2,0.3,0.5,0.4,0.8,0.4C80.8,177.6,81.1,177.5,81.3,177.2z M74.9,173.6c0,0,0.1,0,0.1,0v1.3c-0.1,0-0.1,0-0.2,0
	c-0.1,0-0.1,0-0.1,0c-0.5,0-0.8,0.2-1,0.5c-0.1,0.2-0.1,0.5-0.1,0.9v2.3h-1.3v-4.8h1.2v0.8c0.2-0.3,0.4-0.5,0.5-0.7
	C74.2,173.7,74.5,173.6,74.9,173.6C74.9,173.6,74.9,173.6,74.9,173.6z M70.2,173.8c0.3,0.2,0.6,0.4,0.8,0.7c0.2,0.3,0.3,0.6,0.4,1
	c0,0.2,0,0.5,0,0.9h-3.3c0,0.5,0.2,0.8,0.5,1c0.2,0.1,0.4,0.2,0.6,0.2c0.3,0,0.5-0.1,0.6-0.2c0.1-0.1,0.2-0.2,0.2-0.3h1.3
	c0,0.3-0.2,0.6-0.4,0.9c-0.4,0.5-1,0.7-1.7,0.7c-0.6,0-1.1-0.2-1.6-0.6c-0.5-0.4-0.7-1-0.7-1.9c0-0.8,0.2-1.5,0.6-1.9
	c0.4-0.4,1-0.7,1.6-0.7C69.6,173.6,69.9,173.7,70.2,173.8z M68.5,174.9c-0.2,0.2-0.3,0.4-0.3,0.7h1.9c0-0.3-0.1-0.6-0.3-0.8
	c-0.2-0.2-0.4-0.3-0.7-0.3C68.9,174.6,68.7,174.7,68.5,174.9z M64.8,177.2c0.2-0.3,0.3-0.6,0.3-1c0-0.3,0-0.6-0.1-0.8
	c-0.2-0.4-0.5-0.6-0.9-0.6c-0.5,0-0.8,0.2-0.9,0.6c-0.1,0.2-0.1,0.5-0.1,0.9c0,0.4,0.1,0.8,0.3,1c0.2,0.3,0.5,0.4,0.8,0.4
	C64.4,177.6,64.6,177.5,64.8,177.2z M65.8,174.3c0.4,0.5,0.5,1,0.5,1.8c0,0.7-0.2,1.4-0.5,1.9c-0.4,0.5-0.8,0.7-1.5,0.7
	c-0.4,0-0.7-0.1-1-0.2c-0.1-0.1-0.3-0.3-0.5-0.5v0.6h-1.2V172H63v2.3c0.2-0.2,0.3-0.4,0.5-0.5c0.2-0.1,0.5-0.2,0.9-0.2
	C65,173.6,65.5,173.8,65.8,174.3z M59.8,173.7c0.2,0.1,0.4,0.2,0.6,0.4c0.1,0.2,0.2,0.4,0.3,0.6c0,0.2,0,0.4,0,0.7l0,3h-1.3v-3.1
	c0-0.2,0-0.3-0.1-0.4c-0.1-0.2-0.3-0.3-0.6-0.3c-0.3,0-0.6,0.1-0.7,0.4c-0.1,0.2-0.1,0.3-0.1,0.6v2.9h-1.3v-2.9c0-0.3,0-0.5-0.1-0.6
	c-0.1-0.2-0.3-0.3-0.6-0.3c-0.4,0-0.6,0.1-0.7,0.3c-0.1,0.1-0.1,0.3-0.1,0.6v2.9h-1.3v-4.8H55v0.7c0.2-0.2,0.3-0.4,0.4-0.5
	c0.2-0.2,0.6-0.3,0.9-0.3c0.4,0,0.7,0.1,0.9,0.2c0.2,0.1,0.3,0.3,0.4,0.6c0.2-0.3,0.4-0.5,0.6-0.6c0.3-0.1,0.5-0.2,0.9-0.2
	C59.3,173.6,59.5,173.7,59.8,173.7z M49.5,173.7v2.9c0,0.3,0,0.5,0.1,0.6c0.1,0.2,0.3,0.4,0.7,0.4c0.4,0,0.7-0.2,0.9-0.5
	c0.1-0.2,0.1-0.4,0.1-0.7v-2.6h1.3v4.8h-1.2v-0.7c0,0,0,0.1-0.1,0.1c0,0.1-0.1,0.1-0.2,0.2c-0.2,0.2-0.4,0.3-0.6,0.4
	c-0.2,0.1-0.4,0.1-0.6,0.1c-0.7,0-1.2-0.3-1.4-0.8c-0.1-0.3-0.2-0.7-0.2-1.2v-2.9H49.5z M41.9,172h1.4l2.6,4.5V172h1.3v6.5h-1.4
	l-2.6-4.6v4.6h-1.3V172z"/>
<line fill="none" stroke="#292724" stroke-width="0.75" stroke-miterlimit="10" x1="-1.9" y1="15.6" x2="-1.9" y2="150.1"/>
<path fill="#292724" d="M-20.7,75.2c0.2-0.3,0.4-0.6,0.7-0.8c0.3-0.2,0.6-0.3,1-0.4c0.2,0,0.5,0,0.9,0v3.3c0.5,0,0.8-0.2,1-0.5
	c0.1-0.2,0.2-0.4,0.2-0.6c0-0.3-0.1-0.5-0.2-0.6c-0.1-0.1-0.2-0.2-0.3-0.2V74c0.3,0,0.6,0.2,0.9,0.4c0.5,0.4,0.7,1,0.7,1.7
	c0,0.6-0.2,1.1-0.6,1.6c-0.4,0.5-1,0.7-1.9,0.7c-0.8,0-1.5-0.2-1.9-0.6c-0.4-0.4-0.7-1-0.7-1.6C-20.9,75.8-20.8,75.5-20.7,75.2z
	 M-19.6,76.9c0.2,0.2,0.4,0.3,0.7,0.3v-1.9c-0.3,0-0.6,0.1-0.8,0.3c-0.2,0.2-0.3,0.4-0.3,0.7C-19.9,76.5-19.8,76.7-19.6,76.9z
	 M-19.9,81.6h-0.9v-0.7h-1.3v-1.2h1.3v-0.8h0.9v0.8h2.5c0.2,0,0.3,0,0.4-0.1c0.1-0.1,0.1-0.2,0.1-0.5c0,0,0-0.1,0-0.1
	c0,0,0-0.1,0-0.1h0.9l0,0.6c0,0.6-0.1,1-0.3,1.2c-0.1,0.1-0.4,0.2-0.7,0.2h-2.9V81.6z M-18.9,84.2c0-0.2-0.1-0.4-0.1-0.5
	c-0.1-0.2-0.2-0.3-0.4-0.3c-0.2,0-0.3,0.1-0.4,0.2c-0.1,0.1-0.1,0.3-0.1,0.6c0,0.3,0.1,0.5,0.2,0.6c0.1,0.1,0.3,0.1,0.4,0.2v1.2
	c-0.4,0-0.8-0.1-1-0.4c-0.4-0.3-0.6-0.9-0.6-1.7c0-0.5,0.1-1,0.3-1.4c0.2-0.4,0.6-0.6,1.2-0.6h2.2c0.2,0,0.3,0,0.6,0
	c0.2,0,0.3,0,0.3-0.1c0.1,0,0.1-0.1,0.1-0.2h0.2v1.4c-0.1,0-0.2,0.1-0.3,0.1c-0.1,0-0.2,0-0.3,0c0.2,0.2,0.3,0.4,0.5,0.6
	c0.2,0.3,0.2,0.6,0.2,0.9c0,0.4-0.1,0.8-0.4,1.1c-0.2,0.3-0.6,0.4-1.1,0.4c-0.6,0-1-0.2-1.3-0.7c-0.1-0.2-0.2-0.6-0.3-1.1
	L-18.9,84.2z M-18.3,83.5c0.1,0.1,0.1,0.2,0.1,0.2c0,0.1,0.1,0.2,0.1,0.3l0,0.3c0,0.3,0.1,0.5,0.2,0.6c0.1,0.2,0.3,0.3,0.5,0.3
	c0.2,0,0.4-0.1,0.5-0.2c0.1-0.1,0.1-0.3,0.1-0.4c0-0.3-0.1-0.5-0.2-0.7c-0.2-0.2-0.5-0.3-0.9-0.4H-18.3z M-22.3,88.3
	c0.1-0.2,0.3-0.5,0.5-0.6c0.2-0.1,0.3-0.3,0.5-0.3c0.2-0.1,0.4-0.1,0.7-0.1c0.3,0,0.6,0.1,0.9,0.2c0.3,0.2,0.5,0.4,0.6,0.8
	c0.1-0.3,0.3-0.5,0.5-0.6c0.2-0.1,0.6-0.2,1-0.2h0.4c0.3,0,0.5,0,0.6,0c0.2,0,0.3-0.1,0.4-0.2h0.2v1.5c-0.1,0-0.3,0.1-0.3,0.1
	c-0.2,0-0.4,0.1-0.6,0.1l-0.6,0c-0.4,0-0.7,0.1-0.8,0.2c-0.1,0.1-0.2,0.4-0.2,0.8v1.4h2.5v1.3h-6.5v-3.2
	C-22.5,88.9-22.4,88.5-22.3,88.3z M-21.4,91.2h1.7v-1.5c0-0.3,0-0.5-0.1-0.7c-0.1-0.3-0.4-0.4-0.7-0.4c-0.4,0-0.7,0.1-0.8,0.4
	c-0.1,0.1-0.1,0.4-0.1,0.7V91.2z"/>
</svg>
