<?xml version="1.0" encoding="utf-8"?>
<!-- Generator: Adobe Illustrator 17.1.0, SVG Export Plug-In . SVG Version: 6.00 Build 0)  -->
<!DOCTYPE svg PUBLIC "-//W3C//DTD SVG 1.1//EN" "http://www.w3.org/Graphics/SVG/1.1/DTD/svg11.dtd">
<svg version="1.1" id="Layer_1" xmlns="http://www.w3.org/2000/svg" xmlns:xlink="http://www.w3.org/1999/xlink" x="0px" y="0px"
	 viewBox="-24.1 7.8 247.4 182.2" enable-background="new -24.1 7.8 247.4 182.2" xml:space="preserve">
<polyline fill="none" stroke="#66C2A5" stroke-width="1.5" stroke-miterlimit="10" points="8.8,93.5 12.1,109.1 18.6,127.6 
	31.8,133.5 "/>
<path fill="#66C2A5" d="M11.2,93.5c0,3.2-4.7,3.2-4.7,0C6.4,90.3,11.2,90.3,11.2,93.5"/>
<path fill="none" stroke="#66C2A5" stroke-width="0.75" stroke-miterlimit="10" d="M11.2,93.5c0,3.2-4.7,3.2-4.7,0
	C6.4,90.3,11.2,90.3,11.2,93.5"/>
<path fill="#66C2A5" d="M14.5,109.1c0,3.2-4.7,3.2-4.7,0C9.7,106,14.5,106,14.5,109.1"/>
<path fill="none" stroke="#66C2A5" stroke-width="0.75" stroke-miterlimit="10" d="M14.5,109.1c0,3.2-4.7,3.2-4.7,0
	C9.7,106,14.5,106,14.5,109.1"/>
<path fill="#66C2A5" d="M21,127.6c0,3.2-4.7,3.2-4.7,0C16.3,124.4,21,124.4,21,127.6"/>
<path fill="none" stroke="#66C2A5" stroke-width="0.75" stroke-miterlimit="10" d="M21,127.6c0,3.2-4.7,3.2-4.7,0
	C16.3,124.4,21,124.4,21,127.6"/>
<path fill="#66C2A5" d="M34.1,133.5c0,3.2-4.7,3.2-4.7,0S34.1,130.4,34.1,133.5"/>
<path fill="none" stroke="#66C2A5" stroke-width="0.75" stroke-miterlimit="10" d="M34.1,133.5c0,3.2-4.7,3.2-4.7,0
	S34.1,130.4,34.1,133.5"/>
<polyline fill="none" stroke="#FC8D62" stroke-width="1.5" stroke-miterlimit="10" points="31.8,17.2 58,64.9 110.5,90.9 
	215.5,110.7 "/>
<path fill="#FC8D62" d="M34.1,17.2c0,3.2-4.7,3.2-4.7,0C29.4,14.1,34.1,14.1,34.1,17.2"/>
<path fill="none" stroke="#FC8D62" stroke-width="0.75" stroke-miterlimit="10" d="M34.1,17.2c0,3.2-4.7,3.2-4.7,0
	C29.4,14.1,34.1,14.1,34.1,17.2"/>
<path fill="#FC8D62" d="M60.4,64.9c0,3.2-4.7,3.2-4.7,0C55.7,61.7,60.4,61.7,60.4,64.9"/>
<path fill="none" stroke="#FC8D62" stroke-width="0.75" stroke-miterlimit="10" d="M60.4,64.9c0,3.2-4.7,3.2-4.7,0
	C55.7,61.7,60.4,61.7,60.4,64.9"/>
<path fill="#FC8D62" d="M112.9,90.9c0,3.2-4.7,3.2-4.7,0C108.2,87.7,112.9,87.7,112.9,90.9"/>
<path fill="none" stroke="#FC8D62" stroke-width="0.75" stroke-miterlimit="10" d="M112.9,90.9c0,3.2-4.7,3.2-4.7,0
	C108.2,87.7,112.9,87.7,112.9,90.9"/>
<path fill="#FC8D62" d="M217.9,110.7c0,3.2-4.7,3.2-4.7,0C213.2,107.5,217.9,107.5,217.9,110.7"/>
<path fill="none" stroke="#FC8D62" stroke-width="0.75" stroke-miterlimit="10" d="M217.9,110.7c0,3.2-4.7,3.2-4.7,0
	C213.2,107.5,217.9,107.5,217.9,110.7"/>
<path fill="#66C2A5" d="M74.7,134.5c0,0.3,0.1,0.5,0.2,0.6c0.2,0.3,0.5,0.4,1,0.4c0.3,0,0.6-0.1,0.8-0.2c0.2-0.1,0.3-0.3,0.3-0.6
	c0-0.2-0.1-0.4-0.3-0.5c-0.1-0.1-0.3-0.1-0.7-0.2l-0.6-0.2c-0.4-0.1-0.7-0.2-0.9-0.3c-0.3-0.2-0.5-0.5-0.5-0.9
	c0-0.4,0.2-0.8,0.5-1.1c0.3-0.3,0.8-0.4,1.3-0.4c0.7,0,1.2,0.2,1.5,0.6c0.2,0.3,0.3,0.6,0.3,0.9h-0.7c0-0.2-0.1-0.3-0.2-0.5
	c-0.2-0.2-0.5-0.3-0.9-0.3c-0.3,0-0.5,0.1-0.7,0.2c-0.2,0.1-0.2,0.3-0.2,0.5c0,0.2,0.1,0.4,0.3,0.5c0.1,0.1,0.3,0.1,0.5,0.2l0.5,0.1
	c0.6,0.1,0.9,0.3,1.1,0.4c0.3,0.2,0.5,0.5,0.5,1c0,0.4-0.2,0.8-0.5,1.1c-0.3,0.3-0.8,0.5-1.5,0.5c-0.7,0-1.2-0.2-1.5-0.5
	c-0.3-0.3-0.4-0.7-0.5-1.2H74.7z M69.7,129.5h0.8v3.8l2-2h1l-1.8,1.8l1.9,2.9h-1l-1.5-2.4l-0.7,0.6v1.8h-0.8V129.5z M68.3,131.5
	c0.3,0.3,0.5,0.7,0.6,1.3h-0.8c0-0.3-0.2-0.5-0.3-0.7c-0.2-0.2-0.4-0.3-0.8-0.3c-0.5,0-0.9,0.2-1.1,0.7c-0.1,0.3-0.2,0.7-0.2,1.2
	c0,0.5,0.1,0.9,0.3,1.2c0.2,0.3,0.5,0.5,0.9,0.5c0.3,0,0.6-0.1,0.8-0.3c0.2-0.2,0.3-0.5,0.4-0.8h0.8c-0.1,0.6-0.3,1.1-0.7,1.4
	c-0.4,0.3-0.8,0.4-1.3,0.4c-0.6,0-1.1-0.2-1.5-0.7c-0.4-0.4-0.6-1-0.6-1.7c0-0.8,0.2-1.5,0.6-1.9c0.4-0.5,0.9-0.7,1.5-0.7
	C67.6,131.1,68,131.2,68.3,131.5z M63.6,131.7c0.4,0.4,0.6,1,0.6,1.8c0,0.8-0.2,1.4-0.6,1.9c-0.4,0.5-0.9,0.7-1.7,0.7
	c-0.6,0-1.2-0.2-1.5-0.7c-0.4-0.4-0.6-1-0.6-1.8c0-0.8,0.2-1.4,0.6-1.9c0.4-0.5,0.9-0.7,1.6-0.7C62.7,131.1,63.2,131.3,63.6,131.7z
	 M63.2,134.8c0.2-0.4,0.3-0.8,0.3-1.3c0-0.4-0.1-0.8-0.2-1.1c-0.2-0.4-0.6-0.6-1.2-0.6c-0.5,0-0.8,0.2-1.1,0.6
	c-0.2,0.4-0.3,0.8-0.3,1.3c0,0.5,0.1,0.9,0.3,1.2c0.2,0.3,0.6,0.5,1,0.5C62.6,135.4,63,135.2,63.2,134.8z M58.2,129.5H59v6.5h-0.8
	V129.5z M56.2,134.9c0.2-0.3,0.3-0.8,0.3-1.3c0-0.5-0.1-0.9-0.3-1.2c-0.2-0.3-0.5-0.5-0.9-0.5c-0.4,0-0.7,0.1-0.9,0.4
	c-0.3,0.3-0.4,0.7-0.4,1.3c0,0.4,0.1,0.8,0.2,1.1c0.2,0.5,0.6,0.8,1.2,0.8C55.6,135.4,56,135.2,56.2,134.9z M53.1,129.5h0.8v2.3
	c0.2-0.2,0.4-0.4,0.6-0.5c0.2-0.1,0.5-0.2,0.8-0.2c0.6,0,1.1,0.2,1.4,0.6c0.4,0.4,0.5,1,0.5,1.8c0,0.7-0.2,1.4-0.5,1.9
	c-0.4,0.5-0.9,0.7-1.5,0.7c-0.4,0-0.7-0.1-0.9-0.3c-0.1-0.1-0.3-0.3-0.5-0.5v0.6h-0.7V129.5z M46.2,129.5H47v3.8l2-2h1l-1.8,1.8
	l1.9,2.9h-1l-1.5-2.4l-0.7,0.6v1.8h-0.8V129.5z M41.3,135.5c-0.3-0.4-0.5-0.9-0.5-1.5h0.8c0,0.4,0.1,0.7,0.2,0.9
	c0.2,0.3,0.6,0.5,1.1,0.5c0.4,0,0.8-0.1,1-0.3c0.3-0.2,0.4-0.5,0.4-0.9c0-0.4-0.1-0.7-0.4-0.9c-0.3-0.2-0.6-0.3-1.1-0.3
	c-0.1,0-0.1,0-0.2,0c-0.1,0-0.1,0-0.2,0v-0.7c0.1,0,0.2,0,0.2,0c0.1,0,0.1,0,0.2,0c0.3,0,0.5,0,0.7-0.1c0.3-0.2,0.5-0.5,0.5-0.9
	c0-0.3-0.1-0.6-0.3-0.7c-0.2-0.2-0.5-0.3-0.8-0.3c-0.5,0-0.9,0.2-1.1,0.5c-0.1,0.2-0.2,0.5-0.2,0.8H41c0-0.5,0.1-0.9,0.3-1.2
	c0.3-0.6,0.9-0.9,1.7-0.9c0.6,0,1.1,0.1,1.5,0.4c0.4,0.3,0.5,0.7,0.5,1.2c0,0.4-0.1,0.7-0.3,0.9c-0.1,0.1-0.3,0.3-0.5,0.4
	c0.3,0.1,0.6,0.3,0.8,0.5c0.2,0.3,0.3,0.6,0.3,1c0,0.6-0.2,1.1-0.6,1.5c-0.4,0.4-1,0.6-1.7,0.6C42.2,136.1,41.7,135.9,41.3,135.5z
	 M36.3,135.5c-0.3-0.4-0.5-0.9-0.5-1.5h0.8c0,0.4,0.1,0.7,0.2,0.9c0.2,0.3,0.6,0.5,1.1,0.5c0.4,0,0.8-0.1,1-0.3
	c0.3-0.2,0.4-0.5,0.4-0.9c0-0.4-0.1-0.7-0.4-0.9c-0.3-0.2-0.6-0.3-1.1-0.3c-0.1,0-0.1,0-0.2,0c-0.1,0-0.1,0-0.2,0v-0.7
	c0.1,0,0.2,0,0.2,0c0.1,0,0.1,0,0.2,0c0.3,0,0.5,0,0.7-0.1c0.3-0.2,0.5-0.5,0.5-0.9c0-0.3-0.1-0.6-0.3-0.7c-0.2-0.2-0.5-0.3-0.8-0.3
	c-0.5,0-0.9,0.2-1.1,0.5c-0.1,0.2-0.2,0.5-0.2,0.8H36c0-0.5,0.1-0.9,0.3-1.2c0.3-0.6,0.9-0.9,1.7-0.9c0.6,0,1.1,0.1,1.5,0.4
	c0.4,0.3,0.5,0.7,0.5,1.2c0,0.4-0.1,0.7-0.3,0.9c-0.1,0.1-0.3,0.3-0.5,0.4c0.3,0.1,0.6,0.3,0.8,0.5c0.2,0.3,0.3,0.6,0.3,1
	c0,0.6-0.2,1.1-0.6,1.5c-0.4,0.4-1,0.6-1.7,0.6C37.2,136.1,36.7,135.9,36.3,135.5z"/>
<path fill="#FC8D62" d="M211.6,119.1c0,0.3,0.1,0.5,0.2,0.6c0.2,0.3,0.5,0.4,1,0.4c0.3,0,0.6-0.1,0.8-0.2c0.2-0.1,0.3-0.3,0.3-0.6
	c0-0.2-0.1-0.4-0.3-0.5c-0.1-0.1-0.3-0.1-0.7-0.2l-0.6-0.2c-0.4-0.1-0.7-0.2-0.9-0.3c-0.3-0.2-0.5-0.5-0.5-0.9
	c0-0.4,0.2-0.8,0.5-1.1c0.3-0.3,0.8-0.4,1.3-0.4c0.7,0,1.2,0.2,1.5,0.6c0.2,0.3,0.3,0.6,0.3,0.9h-0.7c0-0.2-0.1-0.3-0.2-0.5
	c-0.2-0.2-0.5-0.3-0.9-0.3c-0.3,0-0.5,0.1-0.7,0.2c-0.2,0.1-0.2,0.3-0.2,0.5c0,0.2,0.1,0.4,0.3,0.5c0.1,0.1,0.3,0.1,0.5,0.2l0.5,0.1
	c0.6,0.1,0.9,0.3,1.1,0.4c0.3,0.2,0.5,0.5,0.5,1c0,0.4-0.2,0.8-0.5,1.1c-0.3,0.3-0.8,0.5-1.5,0.5c-0.7,0-1.2-0.2-1.5-0.5
	c-0.3-0.3-0.4-0.7-0.5-1.2H211.6z M206.6,114.1h0.8v3.8l2-2h1l-1.8,1.8l1.9,2.9h-1l-1.5-2.4l-0.7,0.6v1.8h-0.8V114.1z M205.2,116.1
	c0.3,0.3,0.5,0.7,0.6,1.3h-0.8c0-0.3-0.2-0.5-0.3-0.7c-0.2-0.2-0.4-0.3-0.8-0.3c-0.5,0-0.9,0.2-1.1,0.7c-0.1,0.3-0.2,0.7-0.2,1.2
	c0,0.5,0.1,0.9,0.3,1.2c0.2,0.3,0.5,0.5,0.9,0.5c0.3,0,0.6-0.1,0.8-0.3c0.2-0.2,0.3-0.5,0.4-0.8h0.8c-0.1,0.6-0.3,1.1-0.7,1.4
	c-0.4,0.3-0.8,0.4-1.3,0.4c-0.6,0-1.1-0.2-1.5-0.7c-0.4-0.4-0.6-1-0.6-1.7c0-0.8,0.2-1.5,0.6-1.9c0.4-0.5,0.9-0.7,1.5-0.7
	C204.5,115.7,204.9,115.8,205.2,116.1z M200.6,116.3c0.4,0.4,0.6,1,0.6,1.8c0,0.8-0.2,1.4-0.6,1.9c-0.4,0.5-0.9,0.7-1.7,0.7
	c-0.6,0-1.2-0.2-1.5-0.7c-0.4-0.4-0.6-1-0.6-1.8c0-0.8,0.2-1.4,0.6-1.9c0.4-0.5,0.9-0.7,1.6-0.7
	C199.6,115.7,200.1,115.9,200.6,116.3z M200.1,119.5c0.2-0.4,0.3-0.8,0.3-1.3c0-0.4-0.1-0.8-0.2-1.1c-0.2-0.4-0.6-0.6-1.2-0.6
	c-0.5,0-0.8,0.2-1.1,0.6c-0.2,0.4-0.3,0.8-0.3,1.3c0,0.5,0.1,0.9,0.3,1.2c0.2,0.3,0.6,0.5,1,0.5
	C199.5,120.1,199.9,119.9,200.1,119.5z M195.1,114.1h0.8v6.5h-0.8V114.1z M193.1,119.5c0.2-0.3,0.3-0.8,0.3-1.3
	c0-0.5-0.1-0.9-0.3-1.2c-0.2-0.3-0.5-0.5-0.9-0.5c-0.4,0-0.7,0.1-0.9,0.4c-0.3,0.3-0.4,0.7-0.4,1.3c0,0.4,0.1,0.8,0.2,1.1
	c0.2,0.5,0.6,0.8,1.2,0.8C192.5,120,192.9,119.8,193.1,119.5z M190.1,114.1h0.8v2.3c0.2-0.2,0.4-0.4,0.6-0.5
	c0.2-0.1,0.5-0.2,0.8-0.2c0.6,0,1.1,0.2,1.4,0.6c0.4,0.4,0.5,1,0.5,1.8c0,0.7-0.2,1.4-0.5,1.9c-0.4,0.5-0.9,0.7-1.5,0.7
	c-0.4,0-0.7-0.1-0.9-0.3c-0.1-0.1-0.3-0.3-0.5-0.5v0.6h-0.7V114.1z M183.1,114.1h0.8v3.8l2-2h1l-1.8,1.8l1.9,2.9h-1l-1.5-2.4
	l-0.7,0.6v1.8h-0.8V114.1z M180.9,119.5c0.2-0.4,0.4-1,0.4-2c0-0.7-0.1-1.3-0.3-1.8c-0.2-0.5-0.5-0.7-1-0.7c-0.5,0-0.8,0.2-1,0.7
	c-0.2,0.4-0.3,1.1-0.3,1.9c0,0.6,0.1,1.2,0.2,1.5c0.2,0.6,0.6,0.9,1.1,0.9C180.4,120,180.7,119.8,180.9,119.5z M181.7,115.3
	c0.3,0.5,0.4,1.2,0.4,2.1c0,0.9-0.1,1.6-0.4,2.1c-0.4,0.8-1,1.2-1.8,1.2c-0.8,0-1.3-0.3-1.7-1c-0.3-0.5-0.5-1.3-0.5-2.2
	c0-0.7,0.1-1.3,0.3-1.8c0.3-1,1-1.4,1.9-1.4C180.8,114.3,181.4,114.6,181.7,115.3z M173.1,119.1c0.2-0.4,0.6-0.8,1.1-1.1l0.8-0.5
	c0.4-0.2,0.6-0.4,0.8-0.6c0.2-0.2,0.4-0.5,0.4-0.8c0-0.4-0.1-0.7-0.3-0.9c-0.2-0.2-0.5-0.3-0.9-0.3c-0.5,0-0.9,0.2-1.1,0.6
	c-0.1,0.2-0.2,0.5-0.2,0.9H173c0-0.5,0.1-1,0.3-1.3c0.3-0.6,0.9-0.9,1.8-0.9c0.7,0,1.2,0.2,1.6,0.6s0.5,0.8,0.5,1.3
	c0,0.5-0.2,0.9-0.5,1.3c-0.2,0.2-0.6,0.5-1.1,0.8l-0.6,0.3c-0.3,0.2-0.5,0.3-0.7,0.5c-0.3,0.3-0.5,0.5-0.6,0.8h3.4v0.7h-4.3
	C172.8,120,172.9,119.5,173.1,119.1z M168.1,119.1c0.2-0.4,0.6-0.8,1.1-1.1l0.8-0.5c0.4-0.2,0.6-0.4,0.8-0.6
	c0.2-0.2,0.4-0.5,0.4-0.8c0-0.4-0.1-0.7-0.3-0.9c-0.2-0.2-0.5-0.3-0.9-0.3c-0.5,0-0.9,0.2-1.1,0.6c-0.1,0.2-0.2,0.5-0.2,0.9H168
	c0-0.5,0.1-1,0.3-1.3c0.3-0.6,0.9-0.9,1.8-0.9c0.7,0,1.2,0.2,1.6,0.6s0.5,0.8,0.5,1.3c0,0.5-0.2,0.9-0.5,1.3
	c-0.2,0.2-0.6,0.5-1.1,0.8l-0.6,0.3c-0.3,0.2-0.5,0.3-0.7,0.5c-0.3,0.3-0.5,0.5-0.6,0.8h3.4v0.7h-4.3
	C167.8,120,167.9,119.5,168.1,119.1z"/>
<line fill="none" stroke="#292724" stroke-width="0.75" stroke-miterlimit="10" x1="8.8" y1="171.1" x2="223" y2="171.1"/>
<line fill="none" stroke="#292724" stroke-width="0.75" stroke-miterlimit="10" x1="8.8" y1="171.1" x2="8.8" y2="167.3"/>
<line fill="none" stroke="#292724" stroke-width="0.75" stroke-miterlimit="10" x1="31.8" y1="171.1" x2="31.8" y2="167.3"/>
<line fill="none" stroke="#292724" stroke-width="0.75" stroke-miterlimit="10" x1="58" y1="171.1" x2="58" y2="167.3"/>
<line fill="none" stroke="#292724" stroke-width="0.75" stroke-miterlimit="10" x1="110.5" y1="171.1" x2="110.5" y2="167.3"/>
<line fill="none" stroke="#292724" stroke-width="0.75" stroke-miterlimit="10" x1="215.5" y1="171.1" x2="215.5" y2="167.3"/>
<path fill="#292724" d="M11.5,175.4c-0.2-0.2-0.3-0.5-0.3-0.8c0-0.4,0.1-0.7,0.4-1c0.3-0.3,0.7-0.4,1.2-0.4c0.5,0,0.9,0.1,1.2,0.4
	c0.3,0.3,0.4,0.6,0.4,0.9c0,0.3-0.1,0.6-0.2,0.8c-0.1,0.1-0.2,0.2-0.4,0.3c0.2,0.1,0.4,0.2,0.5,0.3c0.2,0.2,0.3,0.6,0.3,1
	c0,0.5-0.2,0.9-0.5,1.2c-0.3,0.3-0.7,0.5-1.3,0.5c-0.5,0-0.9-0.1-1.3-0.4c-0.4-0.3-0.5-0.7-0.5-1.2c0-0.3,0.1-0.6,0.2-0.8
	c0.2-0.2,0.4-0.4,0.7-0.5C11.7,175.6,11.6,175.5,11.5,175.4z M13.6,177.8c0.2-0.2,0.3-0.4,0.3-0.7c0-0.3-0.1-0.6-0.3-0.8
	c-0.2-0.2-0.5-0.3-0.8-0.3c-0.3,0-0.6,0.1-0.8,0.3c-0.2,0.2-0.3,0.4-0.3,0.7c0,0.3,0.1,0.5,0.3,0.7c0.2,0.2,0.5,0.3,0.8,0.3
	C13.2,178.1,13.4,178,13.6,177.8z M13.5,175.2c0.2-0.2,0.2-0.4,0.2-0.6c0-0.2-0.1-0.4-0.2-0.5c-0.2-0.2-0.4-0.2-0.7-0.2
	c-0.3,0-0.5,0.1-0.7,0.2c-0.1,0.2-0.2,0.4-0.2,0.6c0,0.2,0.1,0.4,0.3,0.6c0.2,0.1,0.4,0.2,0.6,0.2C13.1,175.5,13.3,175.4,13.5,175.2
	z M7.1,177.3c0.2-0.3,0.5-0.6,0.9-0.9l0.7-0.4c0.3-0.2,0.5-0.3,0.7-0.5c0.2-0.2,0.3-0.4,0.3-0.7c0-0.3-0.1-0.5-0.3-0.7
	c-0.2-0.2-0.4-0.3-0.7-0.3c-0.5,0-0.8,0.2-0.9,0.5c-0.1,0.2-0.1,0.4-0.2,0.8H7c0-0.5,0.1-0.8,0.3-1.1c0.3-0.5,0.8-0.8,1.5-0.8
	c0.6,0,1,0.2,1.3,0.5c0.3,0.3,0.4,0.7,0.4,1.1c0,0.4-0.1,0.8-0.4,1.1c-0.2,0.2-0.5,0.4-0.9,0.6l-0.5,0.3c-0.2,0.1-0.4,0.3-0.6,0.4
	c-0.2,0.2-0.4,0.4-0.5,0.7h2.9v0.6H6.8C6.9,178.1,7,177.7,7.1,177.3z M3.1,174.8v-0.5c0.5,0,0.8-0.1,1-0.2c0.2-0.1,0.3-0.4,0.4-0.8
	h0.5v5.2H4.4v-3.7H3.1z"/>
<path fill="#292724" d="M38.2,178.5v-1.3h-2.3v-0.6l2.4-3.3h0.6v3.4h0.8v0.6h-0.8v1.3H38.2z M38.1,176.6v-2.4l-1.7,2.4H38.1z
	 M32,177.3c0.2-0.3,0.5-0.6,0.9-0.9l0.7-0.4c0.3-0.2,0.5-0.3,0.7-0.5c0.2-0.2,0.3-0.4,0.3-0.7c0-0.3-0.1-0.5-0.3-0.7
	c-0.2-0.2-0.4-0.3-0.7-0.3c-0.5,0-0.8,0.2-0.9,0.5c-0.1,0.2-0.1,0.4-0.2,0.8h-0.7c0-0.5,0.1-0.8,0.3-1.1c0.3-0.5,0.8-0.8,1.5-0.8
	c0.6,0,1,0.2,1.3,0.5c0.3,0.3,0.4,0.7,0.4,1.1c0,0.4-0.1,0.8-0.4,1.1c-0.2,0.2-0.5,0.4-0.9,0.6l-0.5,0.3c-0.2,0.1-0.4,0.3-0.6,0.4
	c-0.2,0.2-0.4,0.4-0.5,0.7h2.9v0.6h-3.6C31.8,178.1,31.8,177.7,32,177.3z M30.2,177.6c0.2-0.3,0.3-0.9,0.3-1.7
	c0-0.6-0.1-1.1-0.2-1.5c-0.1-0.4-0.4-0.6-0.9-0.6c-0.4,0-0.7,0.2-0.9,0.5c-0.2,0.4-0.3,0.9-0.3,1.6c0,0.5,0.1,1,0.2,1.3
	c0.2,0.5,0.5,0.7,0.9,0.7C29.7,178,30,177.9,30.2,177.6z M30.8,174.1c0.2,0.4,0.4,1,0.4,1.8c0,0.7-0.1,1.3-0.3,1.8
	c-0.3,0.7-0.8,1-1.5,1c-0.6,0-1.1-0.3-1.4-0.8c-0.3-0.5-0.4-1.1-0.4-1.8c0-0.6,0.1-1.1,0.2-1.5c0.3-0.8,0.8-1.2,1.6-1.2
	C30,173.3,30.5,173.5,30.8,174.1z M23.9,174.8v-0.5c0.5,0,0.8-0.1,1-0.2c0.2-0.1,0.3-0.4,0.4-0.8h0.5v5.2h-0.7v-3.7H23.9z"/>
<path fill="#292724" d="M62.6,175.4c-0.2-0.2-0.3-0.5-0.3-0.8c0-0.4,0.1-0.7,0.4-1c0.3-0.3,0.7-0.4,1.2-0.4c0.5,0,0.9,0.1,1.2,0.4
	c0.3,0.3,0.4,0.6,0.4,0.9c0,0.3-0.1,0.6-0.2,0.8c-0.1,0.1-0.2,0.2-0.4,0.3c0.2,0.1,0.4,0.2,0.5,0.3c0.2,0.2,0.3,0.6,0.3,1
	c0,0.5-0.2,0.9-0.5,1.2c-0.3,0.3-0.7,0.5-1.3,0.5c-0.5,0-0.9-0.1-1.3-0.4c-0.4-0.3-0.5-0.7-0.5-1.2c0-0.3,0.1-0.6,0.2-0.8
	c0.2-0.2,0.4-0.4,0.7-0.5C62.9,175.6,62.7,175.5,62.6,175.4z M64.8,177.8c0.2-0.2,0.3-0.4,0.3-0.7c0-0.3-0.1-0.6-0.3-0.8
	c-0.2-0.2-0.5-0.3-0.8-0.3c-0.3,0-0.6,0.1-0.8,0.3c-0.2,0.2-0.3,0.4-0.3,0.7c0,0.3,0.1,0.5,0.3,0.7c0.2,0.2,0.5,0.3,0.8,0.3
	C64.3,178.1,64.5,178,64.8,177.8z M64.6,175.2c0.2-0.2,0.2-0.4,0.2-0.6c0-0.2-0.1-0.4-0.2-0.5c-0.2-0.2-0.4-0.2-0.7-0.2
	c-0.3,0-0.5,0.1-0.7,0.2c-0.1,0.2-0.2,0.4-0.2,0.6c0,0.2,0.1,0.4,0.3,0.6c0.2,0.1,0.4,0.2,0.6,0.2C64.2,175.5,64.5,175.4,64.6,175.2
	z M60.2,178.5v-1.3h-2.3v-0.6l2.4-3.3h0.6v3.4h0.8v0.6h-0.8v1.3H60.2z M60.2,176.6v-2.4l-1.7,2.4H60.2z M56.4,177.6
	c0.2-0.3,0.3-0.9,0.3-1.7c0-0.6-0.1-1.1-0.2-1.5c-0.1-0.4-0.4-0.6-0.9-0.6c-0.4,0-0.7,0.2-0.9,0.5c-0.2,0.4-0.3,0.9-0.3,1.6
	c0,0.5,0.1,1,0.2,1.3c0.2,0.5,0.5,0.7,0.9,0.7C55.9,178,56.2,177.9,56.4,177.6z M57.1,174.1c0.2,0.4,0.4,1,0.4,1.8
	c0,0.7-0.1,1.3-0.3,1.8c-0.3,0.7-0.8,1-1.5,1c-0.6,0-1.1-0.3-1.4-0.8c-0.3-0.5-0.4-1.1-0.4-1.8c0-0.6,0.1-1.1,0.2-1.5
	c0.3-0.8,0.8-1.2,1.6-1.2C56.3,173.3,56.8,173.5,57.1,174.1z M49.9,177.3c0.2-0.3,0.5-0.6,0.9-0.9l0.7-0.4c0.3-0.2,0.5-0.3,0.7-0.5
	c0.2-0.2,0.3-0.4,0.3-0.7c0-0.3-0.1-0.5-0.3-0.7c-0.2-0.2-0.4-0.3-0.7-0.3c-0.5,0-0.8,0.2-0.9,0.5c-0.1,0.2-0.1,0.4-0.2,0.8h-0.7
	c0-0.5,0.1-0.8,0.3-1.1c0.3-0.5,0.8-0.8,1.5-0.8c0.6,0,1,0.2,1.3,0.5c0.3,0.3,0.4,0.7,0.4,1.1c0,0.4-0.1,0.8-0.4,1.1
	c-0.2,0.2-0.5,0.4-0.9,0.6l-0.5,0.3c-0.2,0.1-0.4,0.3-0.6,0.4c-0.2,0.2-0.4,0.4-0.5,0.7h2.9v0.6h-3.6
	C49.7,178.1,49.8,177.7,49.9,177.3z"/>
<path fill="#292724" d="M117.3,177.7c0.2-0.2,0.3-0.5,0.3-0.8c0-0.3-0.1-0.5-0.2-0.8c-0.2-0.2-0.4-0.4-0.8-0.4
	c-0.3,0-0.5,0.1-0.7,0.3c-0.2,0.2-0.3,0.5-0.3,0.9c0,0.3,0.1,0.6,0.3,0.8c0.2,0.2,0.5,0.3,0.8,0.3
	C116.9,178.1,117.2,177.9,117.3,177.7z M117.8,173.7c0.2,0.3,0.3,0.6,0.3,0.9h-0.7c0-0.2-0.1-0.4-0.2-0.5c-0.2-0.2-0.4-0.3-0.7-0.3
	c-0.4,0-0.7,0.2-0.9,0.5c-0.2,0.3-0.3,0.8-0.4,1.5c0.1-0.2,0.3-0.4,0.6-0.5c0.2-0.1,0.4-0.1,0.7-0.1c0.4,0,0.8,0.1,1.1,0.4
	c0.3,0.3,0.5,0.7,0.5,1.3c0,0.5-0.2,0.9-0.5,1.3c-0.3,0.4-0.8,0.6-1.3,0.6c-0.5,0-0.9-0.2-1.3-0.6c-0.4-0.4-0.5-1-0.5-1.9
	c0-0.7,0.1-1.2,0.2-1.7c0.3-0.9,0.9-1.3,1.7-1.3C117.2,173.2,117.6,173.4,117.8,173.7z M113,175.9c0.2-0.2,0.3-0.5,0.3-0.9
	c0-0.4-0.1-0.7-0.3-0.9c-0.2-0.2-0.4-0.3-0.7-0.3c-0.3,0-0.6,0.1-0.8,0.3c-0.2,0.2-0.3,0.5-0.3,0.9c0,0.3,0.1,0.6,0.2,0.8
	c0.2,0.2,0.4,0.3,0.8,0.3C112.5,176.2,112.7,176.1,113,175.9z M111.2,177.2c0,0.4,0.2,0.6,0.4,0.8c0.1,0.1,0.3,0.1,0.5,0.1
	c0.3,0,0.6-0.1,0.8-0.4c0.2-0.3,0.4-0.8,0.5-1.6c-0.1,0.2-0.3,0.4-0.5,0.5c-0.2,0.1-0.4,0.1-0.7,0.1c-0.5,0-0.9-0.2-1.2-0.5
	c-0.3-0.3-0.4-0.7-0.4-1.2c0-0.5,0.1-0.9,0.4-1.3c0.3-0.4,0.7-0.5,1.3-0.5c0.8,0,1.3,0.3,1.6,1c0.2,0.4,0.2,0.9,0.2,1.4
	c0,0.6-0.1,1.2-0.3,1.7c-0.3,0.8-0.9,1.2-1.6,1.2c-0.5,0-0.9-0.1-1.2-0.4c-0.3-0.3-0.4-0.6-0.4-1H111.2z M108.9,177.6
	c0.2-0.3,0.3-0.9,0.3-1.7c0-0.6-0.1-1.1-0.2-1.5c-0.1-0.4-0.4-0.6-0.9-0.6c-0.4,0-0.7,0.2-0.9,0.5c-0.2,0.4-0.3,0.9-0.3,1.6
	c0,0.5,0.1,1,0.2,1.3c0.2,0.5,0.5,0.7,0.9,0.7C108.4,178,108.7,177.9,108.9,177.6z M109.6,174.1c0.2,0.4,0.4,1,0.4,1.8
	c0,0.7-0.1,1.3-0.3,1.8c-0.3,0.7-0.8,1-1.5,1c-0.6,0-1.1-0.3-1.4-0.8c-0.3-0.5-0.4-1.1-0.4-1.8c0-0.6,0.1-1.1,0.2-1.5
	c0.3-0.8,0.8-1.2,1.6-1.2C108.8,173.3,109.3,173.5,109.6,174.1z M104.4,178.5v-1.3h-2.3v-0.6l2.4-3.3h0.6v3.4h0.8v0.6H105v1.3H104.4
	z M104.4,176.6v-2.4l-1.7,2.4H104.4z"/>
<path fill="#292724" d="M219.9,177.3c0.2-0.3,0.5-0.6,0.9-0.9l0.7-0.4c0.3-0.2,0.5-0.3,0.7-0.5c0.2-0.2,0.3-0.4,0.3-0.7
	c0-0.3-0.1-0.5-0.3-0.7c-0.2-0.2-0.4-0.3-0.7-0.3c-0.5,0-0.8,0.2-0.9,0.5c-0.1,0.2-0.1,0.4-0.2,0.8h-0.7c0-0.5,0.1-0.8,0.3-1.1
	c0.3-0.5,0.8-0.8,1.5-0.8c0.6,0,1,0.2,1.3,0.5c0.3,0.3,0.4,0.7,0.4,1.1c0,0.4-0.1,0.8-0.4,1.1c-0.2,0.2-0.5,0.4-0.9,0.6l-0.5,0.3
	c-0.2,0.1-0.4,0.3-0.6,0.4c-0.2,0.2-0.4,0.4-0.5,0.7h2.9v0.6h-3.6C219.7,178.1,219.8,177.7,219.9,177.3z M218,175.9
	c0.2-0.2,0.3-0.5,0.3-0.9c0-0.4-0.1-0.7-0.3-0.9c-0.2-0.2-0.4-0.3-0.7-0.3c-0.3,0-0.6,0.1-0.8,0.3c-0.2,0.2-0.3,0.5-0.3,0.9
	c0,0.3,0.1,0.6,0.2,0.8c0.2,0.2,0.4,0.3,0.8,0.3C217.5,176.2,217.7,176.1,218,175.9z M216.2,177.2c0,0.4,0.2,0.6,0.4,0.8
	c0.1,0.1,0.3,0.1,0.5,0.1c0.3,0,0.6-0.1,0.8-0.4c0.2-0.3,0.4-0.8,0.5-1.6c-0.1,0.2-0.3,0.4-0.5,0.5c-0.2,0.1-0.4,0.1-0.7,0.1
	c-0.5,0-0.9-0.2-1.2-0.5c-0.3-0.3-0.4-0.7-0.4-1.2c0-0.5,0.1-0.9,0.4-1.3c0.3-0.4,0.7-0.5,1.3-0.5c0.8,0,1.3,0.3,1.6,1
	c0.2,0.4,0.2,0.9,0.2,1.4c0,0.6-0.1,1.2-0.3,1.7c-0.3,0.8-0.9,1.2-1.6,1.2c-0.5,0-0.9-0.1-1.2-0.4c-0.3-0.3-0.4-0.6-0.4-1H216.2z
	 M211.8,174.8v-0.5c0.5,0,0.8-0.1,1-0.2c0.2-0.1,0.3-0.4,0.4-0.8h0.5v5.2H213v-3.7H211.8z M207.6,175.4c-0.2-0.2-0.3-0.5-0.3-0.8
	c0-0.4,0.1-0.7,0.4-1c0.3-0.3,0.7-0.4,1.2-0.4c0.5,0,0.9,0.1,1.2,0.4c0.3,0.3,0.4,0.6,0.4,0.9c0,0.3-0.1,0.6-0.2,0.8
	c-0.1,0.1-0.2,0.2-0.4,0.3c0.2,0.1,0.4,0.2,0.5,0.3c0.2,0.2,0.3,0.6,0.3,1c0,0.5-0.2,0.9-0.5,1.2c-0.3,0.3-0.7,0.5-1.3,0.5
	c-0.5,0-0.9-0.1-1.3-0.4c-0.4-0.3-0.5-0.7-0.5-1.2c0-0.3,0.1-0.6,0.2-0.8c0.2-0.2,0.4-0.4,0.7-0.5
	C207.9,175.6,207.7,175.5,207.6,175.4z M209.7,177.8c0.2-0.2,0.3-0.4,0.3-0.7c0-0.3-0.1-0.6-0.3-0.8c-0.2-0.2-0.5-0.3-0.8-0.3
	c-0.3,0-0.6,0.1-0.8,0.3c-0.2,0.2-0.3,0.4-0.3,0.7c0,0.3,0.1,0.5,0.3,0.7c0.2,0.2,0.5,0.3,0.8,0.3
	C209.3,178.1,209.5,178,209.7,177.8z M209.6,175.2c0.2-0.2,0.2-0.4,0.2-0.6c0-0.2-0.1-0.4-0.2-0.5c-0.2-0.2-0.4-0.2-0.7-0.2
	c-0.3,0-0.5,0.1-0.7,0.2c-0.1,0.2-0.2,0.4-0.2,0.6c0,0.2,0.1,0.4,0.3,0.6c0.2,0.1,0.4,0.2,0.6,0.2
	C209.2,175.5,209.5,175.4,209.6,175.2z"/>
<path fill="#292724" d="M143.3,188.5c0,0.2,0.1,0.4,0.2,0.5c0.2,0.2,0.4,0.2,0.9,0.2c0.2,0,0.4,0,0.6-0.1c0.1-0.1,0.2-0.2,0.2-0.3
	c0-0.1-0.1-0.2-0.2-0.3c-0.1-0.1-0.6-0.2-1.3-0.4c-0.5-0.1-0.9-0.3-1.1-0.5c-0.2-0.2-0.3-0.5-0.3-0.9c0-0.4,0.2-0.8,0.5-1.1
	c0.3-0.3,0.8-0.5,1.5-0.5c0.6,0,1.1,0.1,1.5,0.4c0.4,0.2,0.6,0.6,0.6,1.2h-1.3c0-0.2-0.1-0.3-0.1-0.4c-0.1-0.2-0.4-0.3-0.7-0.3
	c-0.3,0-0.5,0-0.6,0.1c-0.1,0.1-0.2,0.2-0.2,0.3c0,0.1,0.1,0.2,0.2,0.3c0.1,0.1,0.6,0.2,1.3,0.3c0.5,0.1,0.9,0.3,1.1,0.5
	c0.2,0.2,0.4,0.5,0.4,0.9c0,0.5-0.2,0.9-0.5,1.2c-0.4,0.3-0.9,0.5-1.6,0.5c-0.8,0-1.3-0.2-1.7-0.5c-0.4-0.3-0.5-0.7-0.5-1.2H143.3z
	 M140.3,185.3c0.3,0.2,0.6,0.4,0.8,0.7c0.2,0.3,0.3,0.6,0.4,1c0,0.2,0,0.5,0,0.9h-3.3c0,0.5,0.2,0.8,0.5,1c0.2,0.1,0.4,0.2,0.6,0.2
	c0.3,0,0.5-0.1,0.6-0.2c0.1-0.1,0.2-0.2,0.2-0.3h1.3c0,0.3-0.2,0.6-0.4,0.9c-0.4,0.5-1,0.7-1.7,0.7c-0.6,0-1.1-0.2-1.6-0.6
	c-0.5-0.4-0.7-1-0.7-1.9c0-0.8,0.2-1.5,0.6-1.9c0.4-0.4,1-0.7,1.6-0.7C139.6,185.1,140,185.2,140.3,185.3z M138.6,186.4
	c-0.2,0.2-0.3,0.4-0.3,0.7h1.9c0-0.3-0.1-0.6-0.3-0.8c-0.2-0.2-0.4-0.3-0.7-0.3C139,186.1,138.7,186.2,138.6,186.4z M136.5,185.1
	c0,0,0.1,0,0.1,0v1.3c-0.1,0-0.1,0-0.2,0c-0.1,0-0.1,0-0.1,0c-0.5,0-0.8,0.2-1,0.5c-0.1,0.2-0.1,0.5-0.1,0.9v2.3h-1.3v-4.8h1.2v0.8
	c0.2-0.3,0.4-0.5,0.5-0.7C135.8,185.2,136.1,185.1,136.5,185.1C136.5,185.1,136.5,185.1,136.5,185.1z M132.4,189.4
	c-0.4,0.5-1,0.8-1.8,0.8c-0.8,0-1.4-0.2-1.8-0.8c-0.4-0.5-0.6-1.1-0.6-1.8c0-0.7,0.2-1.3,0.6-1.8c0.4-0.5,1-0.8,1.8-0.8
	c0.8,0,1.4,0.3,1.8,0.8c0.4,0.5,0.6,1.1,0.6,1.8C133,188.3,132.8,188.9,132.4,189.4z M131.4,188.7c0.2-0.3,0.3-0.6,0.3-1.1
	c0-0.5-0.1-0.9-0.3-1.1c-0.2-0.3-0.5-0.4-0.8-0.4c-0.4,0-0.6,0.1-0.8,0.4c-0.2,0.3-0.3,0.6-0.3,1.1c0,0.5,0.1,0.9,0.3,1.1
	c0.2,0.3,0.5,0.4,0.8,0.4C130.9,189.1,131.2,189,131.4,188.7z M122.6,184.2c0.5-0.5,1.2-0.8,2-0.8c1.1,0,1.9,0.4,2.4,1.1
	c0.3,0.4,0.4,0.8,0.4,1.2h-1.4c-0.1-0.3-0.2-0.5-0.3-0.7c-0.2-0.3-0.6-0.4-1.1-0.4c-0.5,0-0.9,0.2-1.2,0.6c-0.3,0.4-0.4,1-0.4,1.7
	c0,0.7,0.1,1.3,0.4,1.6c0.3,0.4,0.7,0.5,1.1,0.5c0.5,0,0.8-0.2,1.1-0.5c0.1-0.2,0.3-0.4,0.3-0.8h1.3c-0.1,0.7-0.4,1.3-0.9,1.7
	c-0.5,0.4-1.1,0.7-1.9,0.7c-0.9,0-1.7-0.3-2.2-0.9c-0.5-0.6-0.8-1.4-0.8-2.5C121.7,185.7,122,184.8,122.6,184.2z M118.3,183.5
	c0.1,0,0.2,0,0.3,0v1c-0.1,0-0.2,0-0.4,0c-0.2,0-0.3,0-0.3,0.1c-0.1,0.1-0.1,0.2-0.1,0.3c0,0.1,0,0.2,0,0.4h0.8v0.9h-0.8v3.9h-1.2
	v-3.9h-0.7v-0.9h0.7V185c0-0.5,0.1-0.9,0.3-1.1c0.2-0.3,0.6-0.4,1.3-0.4C118.2,183.5,118.3,183.5,118.3,183.5z M114.9,189.4
	c-0.4,0.5-1,0.8-1.8,0.8c-0.8,0-1.4-0.2-1.8-0.8c-0.4-0.5-0.6-1.1-0.6-1.8c0-0.7,0.2-1.3,0.6-1.8c0.4-0.5,1-0.8,1.8-0.8
	c0.8,0,1.4,0.3,1.8,0.8c0.4,0.5,0.6,1.1,0.6,1.8C115.5,188.3,115.3,188.9,114.9,189.4z M113.9,188.7c0.2-0.3,0.3-0.6,0.3-1.1
	c0-0.5-0.1-0.9-0.3-1.1c-0.2-0.3-0.5-0.4-0.8-0.4c-0.4,0-0.6,0.1-0.8,0.4c-0.2,0.3-0.3,0.6-0.3,1.1c0,0.5,0.1,0.9,0.3,1.1
	c0.2,0.3,0.5,0.4,0.8,0.4C113.4,189.1,113.7,189,113.9,188.7z M107.5,185.1c0,0,0.1,0,0.1,0v1.3c-0.1,0-0.1,0-0.2,0
	c-0.1,0-0.1,0-0.1,0c-0.5,0-0.8,0.2-1,0.5c-0.1,0.2-0.1,0.5-0.1,0.9v2.3h-1.3v-4.8h1.2v0.8c0.2-0.3,0.4-0.5,0.5-0.7
	C106.8,185.2,107.1,185.1,107.5,185.1C107.5,185.1,107.5,185.1,107.5,185.1z M102.8,185.3c0.3,0.2,0.6,0.4,0.8,0.7
	c0.2,0.3,0.3,0.6,0.4,1c0,0.2,0,0.5,0,0.9h-3.3c0,0.5,0.2,0.8,0.5,1c0.2,0.1,0.4,0.2,0.6,0.2c0.3,0,0.5-0.1,0.6-0.2
	c0.1-0.1,0.2-0.2,0.2-0.3h1.3c0,0.3-0.2,0.6-0.4,0.9c-0.4,0.5-1,0.7-1.7,0.7c-0.6,0-1.1-0.2-1.6-0.6c-0.5-0.4-0.7-1-0.7-1.9
	c0-0.8,0.2-1.5,0.6-1.9c0.4-0.4,1-0.7,1.6-0.7C102.1,185.1,102.5,185.2,102.8,185.3z M101.1,186.4c-0.2,0.2-0.3,0.4-0.3,0.7h1.9
	c0-0.3-0.1-0.6-0.3-0.8c-0.2-0.2-0.4-0.3-0.7-0.3C101.5,186.1,101.2,186.2,101.1,186.4z M97.4,188.7c0.2-0.3,0.3-0.6,0.3-1
	c0-0.3,0-0.6-0.1-0.8c-0.2-0.4-0.5-0.6-0.9-0.6c-0.5,0-0.8,0.2-0.9,0.6c-0.1,0.2-0.1,0.5-0.1,0.9c0,0.4,0.1,0.8,0.3,1
	c0.2,0.3,0.5,0.4,0.8,0.4C96.9,189.1,97.2,189,97.4,188.7z M98.4,185.8c0.4,0.5,0.5,1,0.5,1.8c0,0.7-0.2,1.4-0.5,1.9
	c-0.4,0.5-0.8,0.7-1.5,0.7c-0.4,0-0.7-0.1-1-0.2c-0.1-0.1-0.3-0.3-0.5-0.5v0.6h-1.2v-6.5h1.2v2.3c0.2-0.2,0.3-0.4,0.5-0.5
	c0.2-0.1,0.5-0.2,0.9-0.2C97.6,185.1,98.1,185.3,98.4,185.8z M92.3,185.2c0.2,0.1,0.4,0.2,0.6,0.4c0.1,0.2,0.2,0.4,0.3,0.6
	c0,0.2,0,0.4,0,0.7l0,3h-1.3V187c0-0.2,0-0.3-0.1-0.4c-0.1-0.2-0.3-0.3-0.6-0.3c-0.3,0-0.6,0.1-0.7,0.4c-0.1,0.2-0.1,0.3-0.1,0.6
	v2.9h-1.3v-2.9c0-0.3,0-0.5-0.1-0.6c-0.1-0.2-0.3-0.3-0.6-0.3c-0.4,0-0.6,0.1-0.7,0.3c-0.1,0.1-0.1,0.3-0.1,0.6v2.9h-1.3v-4.8h1.2
	v0.7c0.2-0.2,0.3-0.4,0.4-0.5c0.2-0.2,0.6-0.3,0.9-0.3c0.4,0,0.7,0.1,0.9,0.2c0.2,0.1,0.3,0.3,0.4,0.6c0.2-0.3,0.4-0.5,0.6-0.6
	c0.3-0.1,0.5-0.2,0.9-0.2C91.9,185.1,92.1,185.2,92.3,185.2z M82.1,185.2v2.9c0,0.3,0,0.5,0.1,0.6c0.1,0.2,0.3,0.4,0.7,0.4
	c0.4,0,0.7-0.2,0.9-0.5c0.1-0.2,0.1-0.4,0.1-0.7v-2.6h1.3v4.8h-1.2v-0.7c0,0,0,0.1-0.1,0.1c0,0.1-0.1,0.1-0.2,0.2
	c-0.2,0.2-0.4,0.3-0.6,0.4c-0.2,0.1-0.4,0.1-0.6,0.1c-0.7,0-1.2-0.3-1.4-0.8c-0.1-0.3-0.2-0.7-0.2-1.2v-2.9H82.1z M74.4,183.5h1.4
	l2.6,4.5v-4.5h1.3v6.5h-1.4l-2.6-4.6v4.6h-1.3V183.5z"/>
<line fill="none" stroke="#292724" stroke-width="0.75" stroke-miterlimit="10" x1="-2" y1="17.2" x2="-2" y2="133.5"/>
<line fill="none" stroke="#292724" stroke-width="0.75" stroke-miterlimit="10" x1="-2" y1="163.6" x2="1.8" y2="163.6"/>
<line fill="none" stroke="#292724" stroke-width="0.75" stroke-miterlimit="10" x1="-2" y1="133.6" x2="1.8" y2="133.6"/>
<line fill="none" stroke="#292724" stroke-width="0.75" stroke-miterlimit="10" x1="-2" y1="103.6" x2="1.8" y2="103.6"/>
<line fill="none" stroke="#292724" stroke-width="0.75" stroke-miterlimit="10" x1="-2" y1="73.6" x2="1.8" y2="73.6"/>
<line fill="none" stroke="#292724" stroke-width="0.75" stroke-miterlimit="10" x1="-2" y1="43.6" x2="1.8" y2="43.6"/>
<line fill="none" stroke="#292724" stroke-width="0.75" stroke-miterlimit="10" x1="-2" y1="13.6" x2="1.8" y2="13.6"/>
<path fill="#292724" d="M-6.3,163c-0.3-0.2-0.9-0.3-1.7-0.3c-0.6,0-1.1,0.1-1.5,0.2c-0.4,0.1-0.6,0.4-0.6,0.9c0,0.4,0.2,0.7,0.6,0.9
	c0.4,0.2,0.9,0.3,1.6,0.3c0.5,0,1-0.1,1.3-0.2c0.5-0.2,0.7-0.5,0.7-0.9C-5.8,163.5-6,163.2-6.3,163z M-9.8,162.3
	c0.4-0.2,1-0.4,1.8-0.4c0.7,0,1.3,0.1,1.8,0.3c0.7,0.3,1,0.8,1,1.5c0,0.6-0.3,1.1-0.8,1.4c-0.5,0.3-1.1,0.4-1.8,0.4
	c-0.6,0-1.1-0.1-1.5-0.2c-0.8-0.3-1.2-0.8-1.2-1.6C-10.6,163.1-10.3,162.6-9.8,162.3z"/>
<path fill="#292724" d="M-6.3,131.1c-0.3-0.2-0.9-0.3-1.7-0.3c-0.6,0-1.1,0.1-1.5,0.2c-0.4,0.1-0.6,0.4-0.6,0.9
	c0,0.4,0.2,0.7,0.6,0.9c0.4,0.2,0.9,0.3,1.6,0.3c0.5,0,1-0.1,1.3-0.2c0.5-0.2,0.7-0.5,0.7-0.9C-5.8,131.5-6,131.3-6.3,131.1z
	 M-9.8,130.4c0.4-0.2,1-0.4,1.8-0.4c0.7,0,1.3,0.1,1.8,0.3c0.7,0.3,1,0.8,1,1.5c0,0.6-0.3,1.1-0.8,1.4c-0.5,0.3-1.1,0.4-1.8,0.4
	c-0.6,0-1.1-0.1-1.5-0.2c-0.8-0.3-1.2-0.8-1.2-1.6C-10.6,131.2-10.3,130.7-9.8,130.4z M-6.7,137.2c0.4,0,0.6-0.2,0.8-0.5
	c0.1-0.2,0.1-0.3,0.1-0.5c0-0.4-0.1-0.7-0.4-0.9c-0.2-0.2-0.5-0.3-0.8-0.3c-0.4,0-0.6,0.1-0.8,0.3c-0.2,0.2-0.3,0.5-0.3,0.8
	c0,0.2,0,0.4,0.1,0.6c0.1,0.2,0.2,0.3,0.4,0.4l0,0.6l-2.8-0.4v-2.7h0.6v2.2l1.5,0.2c-0.1-0.1-0.2-0.2-0.2-0.3
	c-0.1-0.2-0.1-0.4-0.1-0.7c0-0.5,0.2-0.9,0.5-1.2c0.3-0.3,0.7-0.5,1.2-0.5c0.5,0,0.9,0.2,1.3,0.5c0.4,0.3,0.6,0.8,0.6,1.5
	c0,0.4-0.1,0.8-0.4,1.1c-0.2,0.3-0.6,0.5-1.1,0.6V137.2z"/>
<path fill="#292724" d="M-6.3,98.8c-0.3-0.2-0.9-0.3-1.7-0.3c-0.6,0-1.1,0.1-1.5,0.2c-0.4,0.1-0.6,0.4-0.6,0.9
	c0,0.4,0.2,0.7,0.6,0.9c0.4,0.2,0.9,0.3,1.6,0.3c0.5,0,1-0.1,1.3-0.2c0.5-0.2,0.7-0.5,0.7-0.9C-5.8,99.3-6,99-6.3,98.8z M-9.8,98.1
	c0.4-0.2,1-0.4,1.8-0.4c0.7,0,1.3,0.1,1.8,0.3c0.7,0.3,1,0.8,1,1.5c0,0.6-0.3,1.1-0.8,1.4c-0.5,0.3-1.1,0.4-1.8,0.4
	c-0.6,0-1.1-0.1-1.5-0.2c-0.8-0.3-1.2-0.8-1.2-1.6C-10.6,98.9-10.3,98.4-9.8,98.1z M-6.3,102.9c-0.3-0.2-0.9-0.3-1.7-0.3
	c-0.6,0-1.1,0.1-1.5,0.2c-0.4,0.1-0.6,0.4-0.6,0.9c0,0.4,0.2,0.7,0.6,0.9c0.4,0.2,0.9,0.3,1.6,0.3c0.5,0,1-0.1,1.3-0.2
	c0.5-0.2,0.7-0.5,0.7-0.9C-5.8,103.4-6,103.1-6.3,102.9z M-9.8,102.3c0.4-0.2,1-0.4,1.8-0.4c0.7,0,1.3,0.1,1.8,0.3
	c0.7,0.3,1,0.8,1,1.5c0,0.6-0.3,1.1-0.8,1.4c-0.5,0.3-1.1,0.4-1.8,0.4c-0.6,0-1.1-0.1-1.5-0.2c-0.8-0.3-1.2-0.8-1.2-1.6
	C-10.6,103.1-10.3,102.6-9.8,102.3z M-9.1,109.2h-0.5c0-0.5-0.1-0.8-0.2-1c-0.1-0.2-0.4-0.3-0.8-0.4v-0.5h5.2v0.7h-3.7V109.2z"/>
<path fill="#292724" d="M-6.3,68.8c-0.3-0.2-0.9-0.3-1.7-0.3c-0.6,0-1.1,0.1-1.5,0.2c-0.4,0.1-0.6,0.4-0.6,0.9
	c0,0.4,0.2,0.7,0.6,0.9c0.4,0.2,0.9,0.3,1.6,0.3c0.5,0,1-0.1,1.3-0.2c0.5-0.2,0.7-0.5,0.7-0.9C-5.8,69.3-6,69-6.3,68.8z M-9.8,68.1
	c0.4-0.2,1-0.4,1.8-0.4c0.7,0,1.3,0.1,1.8,0.3c0.7,0.3,1,0.8,1,1.5c0,0.6-0.3,1.1-0.8,1.4c-0.5,0.3-1.1,0.4-1.8,0.4
	c-0.6,0-1.1-0.1-1.5-0.2c-0.8-0.3-1.2-0.8-1.2-1.6C-10.6,68.9-10.3,68.4-9.8,68.1z M-6.7,74.9c0.4,0,0.6-0.2,0.8-0.5
	c0.1-0.2,0.1-0.3,0.1-0.5c0-0.4-0.1-0.7-0.4-0.9c-0.2-0.2-0.5-0.3-0.8-0.3c-0.4,0-0.6,0.1-0.8,0.3c-0.2,0.2-0.3,0.5-0.3,0.8
	c0,0.2,0,0.4,0.1,0.6c0.1,0.2,0.2,0.3,0.4,0.4l0,0.6l-2.8-0.4v-2.7h0.6v2.2l1.5,0.2c-0.1-0.1-0.2-0.2-0.2-0.3
	c-0.1-0.2-0.1-0.4-0.1-0.7c0-0.5,0.2-0.9,0.5-1.2c0.3-0.3,0.7-0.5,1.2-0.5c0.5,0,0.9,0.2,1.3,0.5c0.4,0.3,0.6,0.8,0.6,1.5
	c0,0.4-0.1,0.8-0.4,1.1c-0.2,0.3-0.6,0.5-1.1,0.6V74.9z M-9.1,79.2h-0.5c0-0.5-0.1-0.8-0.2-1c-0.1-0.2-0.4-0.3-0.8-0.4v-0.5h5.2V78
	h-3.7V79.2z"/>
<path fill="#292724" d="M-6.3,38.8c-0.3-0.2-0.9-0.3-1.7-0.3c-0.6,0-1.1,0.1-1.5,0.2c-0.4,0.1-0.6,0.4-0.6,0.9
	c0,0.4,0.2,0.7,0.6,0.9c0.4,0.2,0.9,0.3,1.6,0.3c0.5,0,1-0.1,1.3-0.2c0.5-0.2,0.7-0.5,0.7-0.9C-5.8,39.3-6,39-6.3,38.8z M-9.8,38.1
	c0.4-0.2,1-0.4,1.8-0.4c0.7,0,1.3,0.1,1.8,0.3c0.7,0.3,1,0.8,1,1.5c0,0.6-0.3,1.1-0.8,1.4c-0.5,0.3-1.1,0.4-1.8,0.4
	c-0.6,0-1.1-0.1-1.5-0.2c-0.8-0.3-1.2-0.8-1.2-1.6C-10.6,38.9-10.3,38.4-9.8,38.1z M-6.3,42.9c-0.3-0.2-0.9-0.3-1.7-0.3
	c-0.6,0-1.1,0.1-1.5,0.2C-9.8,43-10,43.3-10,43.7c0,0.4,0.2,0.7,0.6,0.9c0.4,0.2,0.9,0.3,1.6,0.3c0.5,0,1-0.1,1.3-0.2
	c0.5-0.2,0.7-0.5,0.7-0.9C-5.8,43.4-6,43.1-6.3,42.9z M-9.8,42.3c0.4-0.2,1-0.4,1.8-0.4c0.7,0,1.3,0.1,1.8,0.3c0.7,0.3,1,0.8,1,1.5
	c0,0.6-0.3,1.1-0.8,1.4c-0.5,0.3-1.1,0.4-1.8,0.4c-0.6,0-1.1-0.1-1.5-0.2c-0.8-0.3-1.2-0.8-1.2-1.6C-10.6,43.1-10.3,42.6-9.8,42.3z
	 M-6.5,49.4c-0.3-0.2-0.6-0.5-0.9-0.9l-0.4-0.7c-0.2-0.3-0.3-0.5-0.5-0.7c-0.2-0.2-0.4-0.3-0.7-0.3c-0.3,0-0.5,0.1-0.7,0.3
	c-0.2,0.2-0.3,0.4-0.3,0.7c0,0.5,0.2,0.8,0.5,0.9c0.2,0.1,0.4,0.1,0.8,0.2v0.7c-0.5,0-0.8-0.1-1.1-0.3c-0.5-0.3-0.8-0.8-0.8-1.5
	c0-0.6,0.2-1,0.5-1.3c0.3-0.3,0.7-0.4,1.1-0.4c0.4,0,0.8,0.1,1.1,0.4c0.2,0.2,0.4,0.5,0.6,0.9l0.3,0.5c0.1,0.2,0.3,0.4,0.4,0.6
	c0.2,0.2,0.4,0.4,0.7,0.5v-2.9h0.6v3.6C-5.8,49.7-6.2,49.6-6.5,49.4z"/>
<path fill="#292724" d="M-6.3,8.8C-6.6,8.6-7.1,8.5-8,8.5c-0.6,0-1.1,0.1-1.5,0.2C-9.8,8.8-10,9.1-10,9.5c0,0.4,0.2,0.7,0.6,0.9
	c0.4,0.2,0.9,0.3,1.6,0.3c0.5,0,1-0.1,1.3-0.2c0.5-0.2,0.7-0.5,0.7-0.9C-5.8,9.3-6,9-6.3,8.8z M-9.8,8.1c0.4-0.2,1-0.4,1.8-0.4
	c0.7,0,1.3,0.1,1.8,0.3c0.7,0.3,1,0.8,1,1.5c0,0.6-0.3,1.1-0.8,1.4c-0.5,0.3-1.1,0.4-1.8,0.4c-0.6,0-1.1-0.1-1.5-0.2
	c-0.8-0.3-1.2-0.8-1.2-1.6C-10.6,8.9-10.3,8.4-9.8,8.1z M-6.7,14.9c0.4,0,0.6-0.2,0.8-0.5c0.1-0.2,0.1-0.3,0.1-0.5
	c0-0.4-0.1-0.7-0.4-0.9c-0.2-0.2-0.5-0.3-0.8-0.3c-0.4,0-0.6,0.1-0.8,0.3c-0.2,0.2-0.3,0.5-0.3,0.8c0,0.2,0,0.4,0.1,0.6
	c0.1,0.2,0.2,0.3,0.4,0.4l0,0.6l-2.8-0.4v-2.7h0.6v2.2l1.5,0.2c-0.1-0.1-0.2-0.2-0.2-0.3c-0.1-0.2-0.1-0.4-0.1-0.7
	c0-0.5,0.2-0.9,0.5-1.2c0.3-0.3,0.7-0.5,1.2-0.5c0.5,0,0.9,0.2,1.3,0.5c0.4,0.3,0.6,0.8,0.6,1.5c0,0.4-0.1,0.8-0.4,1.1
	c-0.2,0.3-0.6,0.5-1.1,0.6V14.9z M-6.5,19.4c-0.3-0.2-0.6-0.5-0.9-0.9l-0.4-0.7c-0.2-0.3-0.3-0.5-0.5-0.7c-0.2-0.2-0.4-0.3-0.7-0.3
	c-0.3,0-0.5,0.1-0.7,0.3c-0.2,0.2-0.3,0.4-0.3,0.7c0,0.5,0.2,0.8,0.5,0.9c0.2,0.1,0.4,0.1,0.8,0.2v0.7c-0.5,0-0.8-0.1-1.1-0.3
	c-0.5-0.3-0.8-0.8-0.8-1.5c0-0.6,0.2-1,0.5-1.3c0.3-0.3,0.7-0.4,1.1-0.4c0.4,0,0.8,0.1,1.1,0.4c0.2,0.2,0.4,0.5,0.6,0.9l0.3,0.5
	c0.1,0.2,0.3,0.4,0.4,0.6c0.2,0.2,0.4,0.4,0.7,0.5v-2.9h0.6v3.6C-5.8,19.7-6.2,19.6-6.5,19.4z"/>
<path fill="#292724" d="M-22.4,56.2c0.8-0.3,1.6-0.5,2.4-0.5c0.9,0,1.8,0.2,2.7,0.6c0.5,0.2,0.9,0.4,1.2,0.6l0.4,0.3v0.9
	c-0.7-0.4-1.3-0.7-1.7-0.8c-0.8-0.3-1.6-0.4-2.5-0.4c-0.6,0-1.1,0-1.6,0.1c-0.7,0.1-1.4,0.4-2.1,0.8l-0.5,0.3v-0.9
	C-23.5,56.8-22.9,56.5-22.4,56.2z M-19.1,61.8c0.2,0,0.4-0.1,0.5-0.2c0.2-0.2,0.2-0.4,0.2-0.9c0-0.2,0-0.4-0.1-0.6
	c-0.1-0.1-0.2-0.2-0.3-0.2c-0.1,0-0.2,0.1-0.3,0.2c-0.1,0.1-0.2,0.6-0.4,1.3c-0.1,0.5-0.3,0.9-0.5,1.1c-0.2,0.2-0.5,0.3-0.9,0.3
	c-0.4,0-0.8-0.2-1.1-0.5c-0.3-0.3-0.5-0.8-0.5-1.5c0-0.6,0.1-1.1,0.4-1.5c0.2-0.4,0.6-0.6,1.2-0.6V60c-0.2,0-0.3,0.1-0.4,0.1
	c-0.2,0.1-0.3,0.4-0.3,0.7c0,0.3,0,0.5,0.1,0.6c0.1,0.1,0.2,0.2,0.3,0.2c0.1,0,0.2-0.1,0.3-0.2c0.1-0.1,0.2-0.6,0.3-1.3
	c0.1-0.5,0.3-0.9,0.5-1.1c0.2-0.2,0.5-0.4,0.9-0.4c0.5,0,0.9,0.2,1.2,0.5c0.3,0.4,0.5,0.9,0.5,1.6c0,0.8-0.2,1.3-0.5,1.7
	c-0.3,0.4-0.7,0.5-1.2,0.5V61.8z M-18.8,65.4c-0.3-0.2-0.6-0.3-1-0.3c-0.6,0-1,0.1-1.3,0.4c-0.2,0.2-0.2,0.4-0.2,0.6
	c0,0.4,0.1,0.6,0.4,0.8s0.6,0.3,1,0.3c0.4,0,0.8-0.1,1.1-0.3c0.3-0.2,0.4-0.4,0.4-0.8C-18.5,65.8-18.6,65.6-18.8,65.4z M-22.3,65.7
	c0.1-0.2,0.3-0.4,0.5-0.6H-24v-1.3h6.5v1.2h-0.7c0.3,0.2,0.5,0.4,0.6,0.6c0.1,0.2,0.2,0.5,0.2,0.9c0,0.6-0.2,1-0.7,1.4
	c-0.5,0.4-1,0.6-1.7,0.6c-0.8,0-1.5-0.2-1.9-0.6c-0.5-0.4-0.7-0.9-0.7-1.5C-22.5,66.2-22.4,65.9-22.3,65.7z M-22.1,69.9
	c0.3-0.3,0.7-0.5,1.3-0.5h3.2v1.3h-2.9c-0.2,0-0.4,0-0.6,0.1c-0.2,0.1-0.4,0.4-0.4,0.7c0,0.4,0.2,0.7,0.5,0.9
	c0.2,0.1,0.4,0.1,0.7,0.1h2.6v1.2h-4.8v-1.2h0.7c-0.2-0.2-0.4-0.3-0.5-0.5c-0.2-0.3-0.3-0.6-0.3-1C-22.5,70.6-22.3,70.2-22.1,69.9z
	 M-18.1,75.2c0.5,0.4,0.8,1,0.8,1.8s-0.2,1.4-0.8,1.8c-0.5,0.4-1.1,0.6-1.8,0.6c-0.7,0-1.3-0.2-1.8-0.6c-0.5-0.4-0.8-1-0.8-1.8
	s0.3-1.4,0.8-1.8c0.5-0.4,1.1-0.6,1.8-0.6C-19.2,74.6-18.6,74.8-18.1,75.2z M-18.8,76.2c-0.3-0.2-0.6-0.3-1.1-0.3
	c-0.5,0-0.9,0.1-1.1,0.3c-0.3,0.2-0.4,0.5-0.4,0.8s0.1,0.6,0.4,0.8c0.3,0.2,0.6,0.3,1.1,0.3c0.5,0,0.9-0.1,1.1-0.3
	c0.3-0.2,0.4-0.5,0.4-0.8S-18.6,76.4-18.8,76.2z M-20.6,81.4c-0.2,0-0.3,0.1-0.5,0.2c-0.2,0.1-0.3,0.4-0.3,0.7
	c0,0.4,0.2,0.7,0.6,0.9c0.2,0.1,0.5,0.1,0.9,0.1c0.4,0,0.6,0,0.8-0.1c0.4-0.1,0.6-0.4,0.6-0.8c0-0.3-0.1-0.5-0.2-0.6
	c-0.2-0.1-0.4-0.2-0.6-0.2v-1.3c0.4,0,0.7,0.2,1.1,0.4c0.6,0.4,0.8,1,0.8,1.7c0,0.8-0.2,1.3-0.7,1.7c-0.5,0.4-1.1,0.5-1.8,0.5
	c-0.8,0-1.5-0.2-1.9-0.6c-0.5-0.4-0.7-1-0.7-1.7c0-0.6,0.1-1.1,0.4-1.5c0.3-0.4,0.7-0.6,1.4-0.7V81.4z M-22.2,86.3
	c0.2-0.3,0.4-0.6,0.7-0.8c0.3-0.2,0.6-0.3,1-0.4c0.2,0,0.5,0,0.9,0v3.3c0.5,0,0.8-0.2,1-0.5c0.1-0.2,0.2-0.4,0.2-0.6
	c0-0.3-0.1-0.5-0.2-0.6c-0.1-0.1-0.2-0.2-0.3-0.2v-1.3c0.3,0,0.6,0.2,0.9,0.4c0.5,0.4,0.7,1,0.7,1.7c0,0.6-0.2,1.1-0.6,1.6
	c-0.4,0.5-1,0.7-1.9,0.7c-0.8,0-1.5-0.2-1.9-0.6c-0.4-0.4-0.7-1-0.7-1.6C-22.5,87-22.4,86.6-22.2,86.3z M-21.2,88
	c0.2,0.2,0.4,0.3,0.7,0.3v-1.9c-0.3,0-0.6,0.1-0.8,0.3c-0.2,0.2-0.3,0.4-0.3,0.7C-21.4,87.6-21.3,87.9-21.2,88z M-19.5,94.2
	c0.3,0,0.5-0.1,0.7-0.2c0.3-0.2,0.4-0.6,0.4-1.1c0-0.3,0-0.6-0.1-0.8c-0.1-0.4-0.4-0.6-0.8-0.6c-0.2,0-0.4,0.1-0.5,0.3
	c-0.1,0.2-0.2,0.5-0.3,0.9l-0.2,0.7c-0.2,0.7-0.3,1.1-0.5,1.4c-0.3,0.4-0.8,0.7-1.4,0.7c-0.6,0-1.1-0.2-1.4-0.6
	c-0.4-0.4-0.6-1-0.6-1.9c0-0.7,0.2-1.3,0.5-1.7c0.4-0.5,0.9-0.7,1.6-0.8v1.3c-0.4,0-0.7,0.2-0.8,0.5c-0.1,0.2-0.2,0.5-0.2,0.8
	c0,0.3,0.1,0.6,0.2,0.8c0.1,0.2,0.3,0.3,0.6,0.3c0.2,0,0.4-0.1,0.5-0.3c0.1-0.1,0.2-0.4,0.3-0.8l0.3-1.1c0.1-0.5,0.3-0.9,0.5-1.1
	c0.3-0.4,0.7-0.6,1.3-0.6c0.6,0,1.1,0.2,1.5,0.7c0.4,0.5,0.6,1.1,0.6,1.9c0,0.8-0.2,1.5-0.6,2c-0.4,0.5-0.9,0.7-1.6,0.7V94.2z
	 M-22.4,97.9c-0.5-0.2-1.1-0.6-1.7-1V96l0.5,0.3c0.7,0.4,1.4,0.6,2.1,0.8c0.5,0.1,1,0.1,1.6,0.1c0.9,0,1.7-0.1,2.5-0.4
	c0.4-0.2,1-0.4,1.7-0.8v0.9l-0.4,0.3c-0.3,0.2-0.6,0.4-1.2,0.6c-0.9,0.4-1.8,0.6-2.7,0.6C-20.8,98.4-21.6,98.3-22.4,97.9z
	 M-22.2,102.8c0.2-0.3,0.4-0.6,0.7-0.8c0.3-0.2,0.6-0.3,1-0.4c0.2,0,0.5,0,0.9,0v3.3c0.5,0,0.8-0.2,1-0.5c0.1-0.2,0.2-0.4,0.2-0.6
	c0-0.3-0.1-0.5-0.2-0.6c-0.1-0.1-0.2-0.2-0.3-0.2v-1.3c0.3,0,0.6,0.2,0.9,0.4c0.5,0.4,0.7,1,0.7,1.7c0,0.6-0.2,1.1-0.6,1.6
	c-0.4,0.5-1,0.7-1.9,0.7c-0.8,0-1.5-0.2-1.9-0.6c-0.4-0.4-0.7-1-0.7-1.6C-22.5,103.5-22.4,103.1-22.2,102.8z M-21.2,104.5
	c0.2,0.2,0.4,0.3,0.7,0.3v-1.9c-0.3,0-0.6,0.1-0.8,0.3c-0.2,0.2-0.3,0.4-0.3,0.7C-21.4,104.1-21.3,104.4-21.2,104.5z M-22.3,107.8
	c0.1-0.2,0.2-0.4,0.4-0.6c0.2-0.1,0.4-0.2,0.6-0.3c0.2,0,0.4,0,0.7,0l3,0v1.3h-3.1c-0.2,0-0.3,0-0.4,0.1c-0.2,0.1-0.3,0.3-0.3,0.6
	c0,0.3,0.1,0.6,0.4,0.7c0.2,0.1,0.3,0.1,0.6,0.1h2.9v1.3h-2.9c-0.3,0-0.5,0-0.6,0.1c-0.2,0.1-0.3,0.3-0.3,0.6c0,0.4,0.1,0.6,0.3,0.7
	c0.1,0.1,0.3,0.1,0.6,0.1h2.9v1.3h-4.8v-1.2h0.7c-0.2-0.2-0.4-0.3-0.5-0.4c-0.2-0.2-0.3-0.6-0.3-0.9c0-0.4,0.1-0.7,0.2-0.9
	c0.1-0.2,0.3-0.3,0.6-0.4c-0.3-0.2-0.5-0.4-0.6-0.6c-0.1-0.3-0.2-0.5-0.2-0.9C-22.4,108.2-22.4,108-22.3,107.8z M-22.3,116.2V115
	h4.8v1.3H-22.3z M-22.9,115v1.3h-1.2V115H-22.9z M-24,116.9h1.1v1.9h5.3v1.4h-5.3v1.9H-24V116.9z"/>
</svg>
