<?xml version="1.0" encoding="utf-8"?>
<!-- Generator: Adobe Illustrator 17.1.0, SVG Export Plug-In . SVG Version: 6.00 Build 0)  -->
<!DOCTYPE svg PUBLIC "-//W3C//DTD SVG 1.1//EN" "http://www.w3.org/Graphics/SVG/1.1/DTD/svg11.dtd">
<svg version="1.1" id="Layer_1" xmlns="http://www.w3.org/2000/svg" xmlns:xlink="http://www.w3.org/1999/xlink" x="0px" y="0px"
	 viewBox="12.2 36 171.4 124.1" enable-background="new 12.2 36 171.4 124.1" xml:space="preserve">
<g>
	<g>
		<defs>
			<rect id="SVGID_1_" x="32.4" y="36" width="151.9" height="97.6"/>
		</defs>
		<clipPath id="SVGID_2_">
			<use xlink:href="#SVGID_1_"  overflow="visible"/>
		</clipPath>
		<polyline clip-path="url(#SVGID_2_)" fill="none" stroke="#66C2A5" stroke-width="1.5" stroke-miterlimit="10" points="
			33,-1416.6 33.3,-898.2 33.6,-639 33.9,-483.5 34.2,-379.8 34.5,-305.7 34.8,-250.2 35.1,-207 35.4,-172.4 35.6,-144.1 
			35.9,-120.6 36.2,-100.7 36.5,-83.6 36.9,-68.8 37.2,-55.8 37.4,-44.4 37.7,-34.2 38,-25.1 38.3,-16.9 38.6,-9.5 38.9,-2.8 
			39.2,3.4 39.5,9 39.8,14.2 40.1,18.9 40.4,23.4 40.7,27.5 41,31.3 41.3,34.9 41.5,38.2 41.8,41.4 42.1,44.4 42.4,47.1 42.8,49.8 
			43.1,52.2 43.3,54.5 43.6,56.7 43.9,58.8 44.2,60.8 44.5,62.7 44.8,64.5 45.1,66.2 45.4,67.9 45.7,69.5 46,71 46.3,72.4 
			46.6,73.8 46.9,75.1 47.2,76.4 47.4,77.6 47.7,78.8 48,79.9 48.3,81 48.7,82.1 49,83.1 49.2,84 49.5,85 49.8,85.9 50.1,86.8 
			50.4,87.6 50.7,88.4 51,89.2 51.3,90 51.6,90.7 51.9,91.4 52.2,92.2 52.5,92.9 52.8,93.5 53.1,94.2 53.4,94.8 53.6,95.4 53.9,96 
			54.3,96.6 54.6,97.1 54.9,97.7 55.2,98.2 55.4,98.7 55.7,99.2 56,99.7 56.3,100.2 56.6,100.7 56.9,101.2 57.2,101.6 57.5,102 
			57.8,102.5 58.1,102.8 58.4,103.2 58.7,103.7 59,104 59.3,104.4 59.5,104.8 59.8,105.1 60.2,105.5 60.5,105.8 60.8,106.2 
			61.1,106.6 61.3,106.8 61.6,107.2 61.9,107.5 62.2,107.8 62.5,108.1 62.8,108.4 63.1,108.7 63.4,109 63.7,109.2 64,109.5 
			64.3,109.8 64.6,110.1 64.9,110.3 65.2,110.6 65.4,110.8 65.7,111.1 66.1,111.3 66.4,111.5 66.7,111.8 67,112 67.2,112.2 
			67.5,112.5 67.8,112.7 68.1,112.9 68.4,113.1 68.7,113.3 69.3,113.7 69.6,113.9 69.9,114.1 70.2,114.3 70.5,114.5 70.8,114.7 
			71.1,114.8 71.4,115.1 71.7,115.2 72,115.4 72.3,115.6 72.9,115.9 73.4,116.2 73.7,116.4 74,116.6 74.3,116.7 75,117 75.2,117.1 
			75.8,117.4 76.1,117.6 76.4,117.7 77,118 77.6,118.3 77.9,118.4 78.5,118.7 79.1,118.9 79.3,119 79.9,119.3 80.9,119.7 
			81.1,119.7 81.4,119.9 81.7,120 82.6,120.3 82.9,120.4 83.8,120.7 84.7,121 85.2,121.2 86.1,121.5 86.8,121.7 87.6,122 87.9,122 
			88.2,122.1 88.5,122.3 88.8,122.3 89.4,122.5 89.7,122.5 90,122.6 90.3,122.8 90.6,122.8 90.9,122.9 91.2,123 91.4,123 
			91.7,123.1 92.7,123.3 94.1,123.7 94.7,123.8 95,123.9 95.3,124 96.5,124.3 97.6,124.6 98,124.6 98.3,124.6 99.1,124.8 99.7,125 
			100,125 100.3,125.1 100.6,125.1 101.2,125.3 102.4,125.5 102.7,125.5 103,125.6 104.5,125.9 105,125.9 105.3,126 105.9,126.1 
			106.2,126.1 106.5,126.2 106.8,126.3 107.1,126.3 108.3,126.5 108.6,126.6 108.9,126.6 109.2,126.6 109.5,126.6 110.7,126.9 
			111,126.9 111.2,126.9 111.5,127 111.8,127 113.3,127.2 113.6,127.3 114.2,127.4 116.6,127.7 116.9,127.7 117.1,127.7 118,127.9 
			118.4,127.9 118.9,128 119.2,128 119.8,128.1 120.1,128.2 120.4,128.2 120.7,128.2 121,128.2 123,128.4 123.3,128.5 123.9,128.6 
			124.6,128.7 124.8,128.7 127.2,128.9 127.5,129 128.1,129 128.4,129 128.7,129.1 129.2,129.1 129.5,129.2 131.6,129.3 
			131.9,129.4 132.5,129.5 132.8,129.5 133.1,129.5 133.4,129.5 133.7,129.5 134.3,129.6 134.6,129.6 137.2,129.8 137.5,129.9 
			138.1,129.9 138.4,130 139,130 139.6,130 139.9,130 140.5,130.1 140.8,130.1 143.7,130.3 144,130.4 144.6,130.4 144.9,130.5 
			145.2,130.5 145.5,130.5 145.8,130.5 146.1,130.5 146.4,130.5 146.7,130.5 147,130.6 147.6,130.6 147.9,130.7 151.7,130.9 
			152,130.9 152.6,131 152.9,131 153.5,131 153.8,131 154.1,131 154.4,131 154.7,131.1 154.9,131.1 155.2,131.1 155.8,131.2 
			156.2,131.2 157,131.3 157.3,131.3 160.8,131.5 161.1,131.5 162.4,131.5 162.6,131.5 163.2,131.5 163.5,131.6 163.8,131.6 
			164.1,131.6 164.4,131.6 164.7,131.7 165,131.7 165.3,131.7 165.6,131.7 165.9,131.7 166.2,131.8 166.8,131.8 167,131.8 
			167.7,131.8 168,131.8 169.1,131.9 169.4,131.9 173.2,132 173.6,132.1 174.7,132.1 175,132.2 175.6,132.2 175.9,132.2 
			176.5,132.2 176.8,132.3 177.4,132.3 177.7,132.3 178,132.3 178.3,132.3 178.6,132.3 178.8,132.3 179.1,132.3 179.5,132.3 
			179.8,132.3 180.1,132.4 180.4,132.4 180.9,132.4 181.2,132.4 181.8,132.5 182.1,132.5 182.7,132.5 183,132.5 183.6,132.6 		"/>
	</g>
</g>
<line fill="none" stroke="#292724" stroke-width="0.75" stroke-miterlimit="10" x1="33" y1="144" x2="183.6" y2="144"/>
<path fill="#292724" d="M155.3,157.6c0,0.1,0.1,0.3,0.1,0.4c0.1,0.1,0.3,0.1,0.6,0.1c0.1,0,0.3,0,0.4-0.1c0.1-0.1,0.1-0.1,0.1-0.2
	s-0.1-0.1-0.1-0.2c-0.1-0.1-0.4-0.1-0.9-0.3c-0.4-0.1-0.6-0.2-0.8-0.4c-0.1-0.1-0.2-0.4-0.2-0.6s0.1-0.6,0.4-0.8s0.6-0.4,1.1-0.4
	c0.4,0,0.8,0.1,1.1,0.3c0.3,0.1,0.4,0.4,0.4,0.9h-0.9c0-0.1-0.1-0.2-0.1-0.3c-0.1-0.1-0.3-0.2-0.5-0.2s-0.4,0-0.4,0.1
	s-0.1,0.1-0.1,0.2s0.1,0.1,0.1,0.2c0.1,0.1,0.4,0.1,0.9,0.2c0.4,0.1,0.6,0.2,0.8,0.4c0.1,0.1,0.3,0.4,0.3,0.6c0,0.4-0.1,0.6-0.4,0.9
	c-0.3,0.2-0.6,0.4-1.2,0.4c-0.6,0-0.9-0.1-1.2-0.4s-0.4-0.5-0.4-0.9L155.3,157.6L155.3,157.6z M152.1,156v-0.6h0.5v-0.9h0.9v0.9h0.6
	v0.6h-0.6v1.8c0,0.1,0,0.2,0.1,0.3c0.1,0.1,0.1,0.1,0.4,0.1h0.1h0.1v0.6h-0.4c-0.4,0-0.7-0.1-0.9-0.2c-0.1-0.1-0.1-0.3-0.1-0.5V156
	H152.1z M151.3,155.4c0.2,0.2,0.4,0.5,0.4,0.9v2.3h-0.9v-2.1c0-0.1,0-0.3-0.1-0.4c-0.1-0.1-0.3-0.3-0.5-0.3c-0.3,0-0.5,0.1-0.6,0.4
	c-0.1,0.1-0.1,0.3-0.1,0.5v1.9h-0.9v-3.5h0.9v0.5c0.1-0.1,0.2-0.3,0.4-0.4c0.2-0.1,0.4-0.2,0.7-0.2
	C150.8,155.2,151.1,155.3,151.3,155.4z M147,155.3c0.2,0.1,0.4,0.3,0.6,0.5c0.1,0.2,0.2,0.4,0.3,0.7c0,0.1,0,0.4,0,0.6h-2.4
	c0,0.4,0.1,0.6,0.4,0.7c0.1,0.1,0.3,0.1,0.4,0.1c0.2,0,0.4-0.1,0.4-0.1c0.1-0.1,0.1-0.1,0.1-0.2h0.9c0,0.2-0.1,0.4-0.3,0.6
	c-0.3,0.4-0.7,0.5-1.2,0.5c-0.4,0-0.8-0.1-1.2-0.4c-0.4-0.3-0.5-0.7-0.5-1.4c0-0.6,0.1-1.1,0.4-1.4c0.3-0.3,0.7-0.5,1.2-0.5
	C146.5,155.2,146.8,155.2,147,155.3z M145.8,156.1c-0.1,0.1-0.2,0.3-0.2,0.5h1.4c0-0.2-0.1-0.4-0.2-0.6s-0.3-0.2-0.5-0.2
	C146,155.9,145.9,156,145.8,156.1z M143.4,155.3c0.1,0.1,0.3,0.1,0.4,0.3c0.1,0.1,0.1,0.3,0.2,0.4c0,0.1,0,0.3,0,0.5v2.2h-0.9v-2.2
	c0-0.1,0-0.2-0.1-0.3c-0.1-0.1-0.2-0.2-0.4-0.2s-0.4,0.1-0.5,0.3c-0.1,0.1-0.1,0.2-0.1,0.4v2.1h-0.9v-2.1c0-0.2,0-0.4-0.1-0.4
	c-0.1-0.1-0.2-0.2-0.4-0.2c-0.3,0-0.4,0.1-0.5,0.2c-0.1,0.1-0.1,0.2-0.1,0.4v2.1h-0.9v-3.5h0.9v0.5c0.1-0.1,0.2-0.3,0.3-0.4
	c0.1-0.1,0.4-0.2,0.6-0.2c0.3,0,0.5,0.1,0.6,0.1c0.1,0.1,0.2,0.2,0.3,0.4c0.1-0.2,0.3-0.4,0.4-0.4c0.2-0.1,0.4-0.1,0.6-0.1
	C143.1,155.2,143.3,155.2,143.4,155.3z M137.7,155.3c0.2,0.1,0.4,0.3,0.6,0.5c0.1,0.2,0.2,0.4,0.3,0.7c0,0.1,0,0.4,0,0.6h-2.4
	c0,0.4,0.1,0.6,0.4,0.7c0.1,0.1,0.3,0.1,0.4,0.1c0.2,0,0.4-0.1,0.4-0.1c0.1-0.1,0.1-0.1,0.1-0.2h0.9c0,0.2-0.1,0.4-0.3,0.6
	c-0.3,0.4-0.7,0.5-1.2,0.5c-0.4,0-0.8-0.1-1.2-0.4c-0.4-0.3-0.5-0.7-0.5-1.4c0-0.6,0.1-1.1,0.4-1.4c0.3-0.3,0.7-0.5,1.2-0.5
	C137.2,155.2,137.4,155.2,137.7,155.3z M136.4,156.1c-0.1,0.1-0.2,0.3-0.2,0.5h1.4c0-0.2-0.1-0.4-0.2-0.6s-0.3-0.2-0.5-0.2
	C136.7,155.9,136.5,156,136.4,156.1z M134.6,158.7h-0.9V154h0.9V158.7z M132.9,154.9h-2.4v1h2.2v0.8h-2.2v1.2h2.6v0.9h-3.5v-4.7h3.5
	L132.9,154.9L132.9,154.9z M125.4,155.2c0.2,0.1,0.4,0.3,0.5,0.5v-0.5h0.9v3.2c0,0.4-0.1,0.8-0.2,1c-0.3,0.4-0.7,0.6-1.5,0.6
	c-0.4,0-0.8-0.1-1.1-0.3c-0.3-0.1-0.4-0.4-0.4-0.8h1c0,0.1,0.1,0.1,0.1,0.2c0.1,0.1,0.3,0.1,0.5,0.1c0.4,0,0.6-0.1,0.6-0.4
	c0.1-0.1,0.1-0.4,0.1-0.7V158c-0.1,0.1-0.1,0.3-0.3,0.4c-0.1,0.1-0.4,0.2-0.7,0.2c-0.4,0-0.8-0.1-1.1-0.4c-0.3-0.3-0.4-0.7-0.4-1.3
	c0-0.5,0.1-0.9,0.4-1.3c0.3-0.4,0.6-0.5,1.1-0.5C125.1,155.2,125.2,155.2,125.4,155.2z M125.6,157.8c0.1-0.1,0.2-0.4,0.2-0.8
	s-0.1-0.6-0.2-0.7s-0.3-0.3-0.6-0.3c-0.3,0-0.5,0.1-0.6,0.4c-0.1,0.1-0.1,0.4-0.1,0.6s0,0.4,0.1,0.5c0.1,0.3,0.4,0.4,0.6,0.4
	C125.4,158,125.5,157.9,125.6,157.8z M122.5,155.4c0.2,0.2,0.4,0.5,0.4,0.9v2.3h-0.9v-2.1c0-0.1,0-0.3-0.1-0.4
	c-0.1-0.1-0.3-0.3-0.5-0.3c-0.3,0-0.5,0.1-0.6,0.4c-0.1,0.1-0.1,0.3-0.1,0.5v1.9h-0.9v-3.5h0.9v0.5c0.1-0.1,0.2-0.3,0.4-0.4
	c0.2-0.1,0.4-0.2,0.7-0.2C122,155.2,122.3,155.3,122.5,155.4z M117.9,155.2h0.9v3.5h-0.9V155.2z M118.8,154.9h-0.9V154h0.9V154.9z
	 M115,157.6c0,0.1,0.1,0.3,0.1,0.4c0.1,0.1,0.3,0.1,0.6,0.1c0.1,0,0.3,0,0.4-0.1c0.1-0.1,0.1-0.1,0.1-0.2s-0.1-0.1-0.1-0.2
	c-0.1-0.1-0.4-0.1-0.9-0.3c-0.4-0.1-0.6-0.2-0.8-0.4c-0.1-0.1-0.2-0.4-0.2-0.6s0.1-0.6,0.4-0.8s0.6-0.4,1.1-0.4
	c0.4,0,0.8,0.1,1.1,0.3c0.3,0.1,0.4,0.4,0.4,0.9h-0.9c0-0.1-0.1-0.2-0.1-0.3c-0.1-0.1-0.3-0.2-0.5-0.2c-0.2,0-0.4,0-0.4,0.1
	s-0.1,0.1-0.1,0.2s0.1,0.1,0.1,0.2c0.1,0.1,0.4,0.1,0.9,0.2c0.4,0.1,0.6,0.2,0.8,0.4c0.1,0.1,0.3,0.4,0.3,0.6c0,0.4-0.1,0.6-0.4,0.9
	c-0.3,0.2-0.6,0.4-1.2,0.4c-0.6,0-0.9-0.1-1.2-0.4s-0.4-0.5-0.4-0.9L115,157.6L115,157.6z M111.4,157.6c0,0.1,0.1,0.3,0.1,0.4
	c0.1,0.1,0.3,0.1,0.6,0.1c0.1,0,0.3,0,0.4-0.1c0.1-0.1,0.1-0.1,0.1-0.2s-0.1-0.1-0.1-0.2c-0.1-0.1-0.4-0.1-0.9-0.3
	c-0.4-0.1-0.6-0.2-0.8-0.4c-0.1-0.1-0.2-0.4-0.2-0.6s0.1-0.6,0.4-0.8c0.2-0.2,0.6-0.4,1.1-0.4c0.4,0,0.8,0.1,1.1,0.3
	c0.3,0.1,0.4,0.4,0.4,0.9h-0.9c0-0.1-0.1-0.2-0.1-0.3c-0.1-0.1-0.3-0.2-0.5-0.2c-0.2,0-0.4,0-0.4,0.1c-0.1,0.1-0.1,0.1-0.1,0.2
	s0.1,0.1,0.1,0.2s0.4,0.1,0.9,0.2c0.4,0.1,0.6,0.2,0.8,0.4c0.1,0.1,0.3,0.4,0.3,0.6c0,0.4-0.1,0.6-0.4,0.9c-0.3,0.2-0.6,0.4-1.2,0.4
	c-0.6,0-0.9-0.1-1.2-0.4s-0.4-0.5-0.4-0.9L111.4,157.6L111.4,157.6z M109.2,155.3c0.2,0.1,0.4,0.3,0.6,0.5s0.2,0.4,0.3,0.7
	c0,0.1,0,0.4,0,0.6h-2.4c0,0.4,0.1,0.6,0.4,0.7c0.1,0.1,0.3,0.1,0.4,0.1c0.2,0,0.4-0.1,0.4-0.1c0.1-0.1,0.1-0.1,0.1-0.2h0.9
	c0,0.2-0.1,0.4-0.3,0.6c-0.3,0.4-0.7,0.5-1.2,0.5c-0.4,0-0.8-0.1-1.2-0.4c-0.4-0.3-0.5-0.7-0.5-1.4c0-0.6,0.1-1.1,0.4-1.4
	c0.3-0.3,0.7-0.5,1.2-0.5C108.7,155.2,109,155.2,109.2,155.3z M107.9,156.1c-0.1,0.1-0.2,0.3-0.2,0.5h1.4c0-0.2-0.1-0.4-0.2-0.6
	s-0.3-0.2-0.5-0.2C108.2,155.9,108.1,156,107.9,156.1z M105.6,156.5c0-0.1-0.1-0.2-0.1-0.4c-0.1-0.1-0.3-0.2-0.5-0.2
	c-0.3,0-0.5,0.1-0.6,0.4c-0.1,0.1-0.1,0.4-0.1,0.6s0,0.4,0.1,0.6c0.1,0.3,0.3,0.4,0.6,0.4c0.2,0,0.4-0.1,0.4-0.1
	c0.1-0.1,0.1-0.3,0.1-0.4h0.9c0,0.3-0.1,0.5-0.3,0.8c-0.3,0.4-0.7,0.6-1.2,0.6c-0.6,0-0.9-0.1-1.2-0.5s-0.4-0.8-0.4-1.3
	c0-0.6,0.1-1.1,0.4-1.4c0.3-0.4,0.7-0.5,1.2-0.5c0.4,0,0.8,0.1,1.1,0.3c0.3,0.2,0.4,0.5,0.5,1L105.6,156.5L105.6,156.5z
	 M102.4,158.3c-0.3,0.4-0.7,0.6-1.3,0.6c-0.6,0-1-0.1-1.3-0.6c-0.3-0.4-0.4-0.8-0.4-1.3s0.1-0.9,0.4-1.3c0.3-0.4,0.7-0.6,1.3-0.6
	c0.6,0,1,0.2,1.3,0.6c0.3,0.4,0.4,0.8,0.4,1.3S102.7,157.9,102.4,158.3z M101.7,157.8c0.1-0.2,0.2-0.4,0.2-0.8s-0.1-0.6-0.2-0.8
	c-0.1-0.2-0.4-0.3-0.6-0.3c-0.3,0-0.4,0.1-0.6,0.3c-0.1,0.2-0.2,0.4-0.2,0.8s0.1,0.6,0.2,0.8c0.1,0.2,0.4,0.3,0.6,0.3
	C101.3,158,101.5,158,101.7,157.8z M98.9,155.2L98.9,155.2l0.1,0.9c-0.1,0-0.1,0-0.1,0s-0.1,0-0.1,0c-0.4,0-0.6,0.1-0.7,0.4
	c-0.1,0.1-0.1,0.4-0.1,0.6v1.7h-0.9v-3.5h0.9v0.6c0.1-0.2,0.3-0.4,0.4-0.5C98.4,155.2,98.6,155.2,98.9,155.2
	C98.9,155.2,98.9,155.2,98.9,155.2z M95.9,156.7c-0.3,0.2-0.6,0.4-1.2,0.4h-1v1.7h-0.9V154h2c0.4,0,0.9,0.1,1.2,0.4
	c0.3,0.2,0.4,0.6,0.4,1.2C96.3,156.1,96.2,156.5,95.9,156.7z M95.2,155c-0.1-0.1-0.3-0.1-0.5-0.1h-0.9v1.4h0.9
	c0.2,0,0.4-0.1,0.5-0.1c0.1-0.1,0.2-0.3,0.2-0.5C95.4,155.3,95.3,155.1,95.2,155z M90.1,154c0.1,0,0.1,0,0.2,0v0.7
	c-0.1,0-0.1,0-0.3,0c-0.1,0-0.2,0-0.2,0.1c-0.1,0.1-0.1,0.1-0.1,0.2s0,0.1,0,0.3h0.6v0.6h-0.6v2.8h-0.9V156h-0.5v-0.6h0.5v-0.2
	c0-0.4,0.1-0.6,0.2-0.8C89.3,154.1,89.6,154,90.1,154C90.1,154,90.1,154,90.1,154z M87.6,158.3c-0.3,0.4-0.7,0.6-1.3,0.6
	c-0.6,0-1-0.1-1.3-0.6c-0.3-0.4-0.4-0.8-0.4-1.3s0.1-0.9,0.4-1.3s0.7-0.6,1.3-0.6c0.6,0,1,0.2,1.3,0.6s0.4,0.8,0.4,1.3
	C88.1,157.5,87.9,157.9,87.6,158.3z M86.9,157.8c0.1-0.2,0.2-0.4,0.2-0.8s-0.1-0.6-0.2-0.8c-0.1-0.2-0.4-0.3-0.6-0.3
	c-0.3,0-0.4,0.1-0.6,0.3c-0.1,0.2-0.2,0.4-0.2,0.8s0.1,0.6,0.2,0.8c0.1,0.2,0.4,0.3,0.6,0.3C86.5,158,86.8,158,86.9,157.8z
	 M82.4,155.2L82.4,155.2l0.1,0.9c-0.1,0-0.1,0-0.1,0s-0.1,0-0.1,0c-0.4,0-0.6,0.1-0.7,0.4c-0.1,0.1-0.1,0.4-0.1,0.6v1.7h-0.9v-3.5
	h0.9v0.6c0.1-0.2,0.3-0.4,0.4-0.5S82,155.2,82.4,155.2C82.3,155.2,82.4,155.2,82.4,155.2z M79,155.3c0.2,0.1,0.4,0.3,0.6,0.5
	c0.1,0.2,0.2,0.4,0.3,0.7c0,0.1,0,0.4,0,0.6h-2.4c0,0.4,0.1,0.6,0.4,0.7c0.1,0.1,0.3,0.1,0.4,0.1c0.2,0,0.4-0.1,0.4-0.1
	c0.1-0.1,0.1-0.1,0.1-0.2h0.9c0,0.2-0.1,0.4-0.3,0.6c-0.3,0.4-0.7,0.5-1.2,0.5c-0.4,0-0.8-0.1-1.2-0.4c-0.4-0.3-0.5-0.7-0.5-1.4
	c0-0.6,0.1-1.1,0.4-1.4s0.7-0.5,1.2-0.5C78.5,155.2,78.8,155.2,79,155.3z M77.7,156.1c-0.1,0.1-0.2,0.3-0.2,0.5h1.4
	c0-0.2-0.1-0.4-0.2-0.6c-0.1-0.1-0.3-0.2-0.5-0.2C78,155.9,77.8,156,77.7,156.1z M75,157.8c0.1-0.2,0.2-0.4,0.2-0.7
	c0-0.2,0-0.4-0.1-0.6c-0.1-0.3-0.4-0.4-0.6-0.4c-0.4,0-0.6,0.1-0.6,0.4c-0.1,0.1-0.1,0.4-0.1,0.6s0.1,0.6,0.2,0.7
	c0.1,0.2,0.4,0.3,0.6,0.3C74.7,158,75,158,75,157.8z M75.8,155.7c0.3,0.4,0.4,0.7,0.4,1.3c0,0.5-0.1,1-0.4,1.4
	c-0.3,0.4-0.6,0.5-1.1,0.5c-0.3,0-0.5-0.1-0.7-0.1c-0.1-0.1-0.2-0.2-0.4-0.4v0.4h-0.9v-4.7h0.9v1.7c0.1-0.1,0.2-0.3,0.4-0.4
	s0.4-0.1,0.6-0.1C75.2,155.2,75.5,155.4,75.8,155.7z M71.4,155.3c0.1,0.1,0.3,0.1,0.4,0.3c0.1,0.1,0.1,0.3,0.2,0.4
	c0,0.1,0,0.3,0,0.5v2.2h-0.9v-2.2c0-0.1,0-0.2-0.1-0.3c-0.1-0.1-0.2-0.2-0.4-0.2c-0.2,0-0.4,0.1-0.5,0.3c-0.1,0.1-0.1,0.2-0.1,0.4
	v2.1h-0.9v-2.1c0-0.2,0-0.4-0.1-0.4c-0.1-0.1-0.2-0.2-0.4-0.2c-0.3,0-0.4,0.1-0.5,0.2c-0.1,0.1-0.1,0.2-0.1,0.4v2.1h-0.9v-3.5H68
	v0.5c0.1-0.1,0.2-0.3,0.3-0.4c0.1-0.1,0.4-0.2,0.6-0.2c0.3,0,0.5,0.1,0.6,0.1c0.1,0.1,0.2,0.2,0.3,0.4c0.1-0.2,0.3-0.4,0.4-0.4
	c0.2-0.1,0.4-0.1,0.6-0.1C71.1,155.2,71.3,155.2,71.4,155.3z M64.1,155.2v2.1c0,0.2,0,0.4,0.1,0.4c0.1,0.1,0.2,0.3,0.5,0.3
	c0.3,0,0.5-0.1,0.6-0.4c0.1-0.1,0.1-0.3,0.1-0.5v-1.9h0.9v3.5h-0.9v-0.5c0,0,0,0.1-0.1,0.1c0,0.1-0.1,0.1-0.1,0.1
	c-0.1,0.1-0.3,0.2-0.4,0.3c-0.1,0.1-0.3,0.1-0.4,0.1c-0.5,0-0.9-0.2-1-0.6c-0.1-0.2-0.1-0.5-0.1-0.9v-2.1L64.1,155.2L64.1,155.2z
	 M58.5,154.1h1l1.9,3.2v-3.2h0.9v4.7h-1l-1.9-3.3v3.3h-0.9V154.1z"/>
<line fill="none" stroke="#292724" stroke-width="0.75" stroke-miterlimit="10" x1="27" y1="36" x2="27" y2="132.6"/>
<path fill="#292724" d="M13.5,83.7c0.1-0.2,0.3-0.4,0.5-0.6c0.2-0.1,0.4-0.2,0.7-0.3c0.1,0,0.4,0,0.6,0v2.4c0.4,0,0.6-0.1,0.7-0.4
	c0.1-0.1,0.1-0.3,0.1-0.4c0-0.2-0.1-0.4-0.1-0.4s-0.1-0.1-0.2-0.1v-0.9c0.2,0,0.4,0.1,0.6,0.3c0.4,0.3,0.5,0.7,0.5,1.2
	c0,0.4-0.1,0.8-0.4,1.2c-0.3,0.4-0.7,0.5-1.4,0.5c-0.6,0-1.1-0.1-1.4-0.4c-0.3-0.3-0.5-0.7-0.5-1.2C13.3,84.2,13.4,84,13.5,83.7z
	 M14.3,85c0.1,0.1,0.3,0.2,0.5,0.2v-1.4c-0.2,0-0.4,0.1-0.6,0.2C14,84.2,14,84.4,14,84.6C14,84.7,14.1,84.9,14.3,85z M13.5,87.3
	c0.1-0.1,0.1-0.3,0.3-0.4c0.1-0.1,0.3-0.1,0.4-0.2c0.1,0,0.3,0,0.5,0h2.2v0.9h-2.2c-0.1,0-0.2,0-0.3,0.1c-0.1,0.1-0.2,0.2-0.2,0.4
	s0.1,0.4,0.3,0.5c0.1,0.1,0.2,0.1,0.4,0.1h2.1v0.9h-2.1c-0.2,0-0.4,0-0.4,0.1c-0.1,0.1-0.2,0.2-0.2,0.4c0,0.3,0.1,0.4,0.2,0.5
	c0.1,0.1,0.2,0.1,0.4,0.1h2.1v0.9h-3.5v-0.9H14c-0.1-0.1-0.3-0.2-0.4-0.3c-0.1-0.1-0.2-0.4-0.2-0.6c0-0.3,0.1-0.5,0.1-0.6
	c0.1-0.1,0.2-0.2,0.4-0.3c-0.2-0.1-0.4-0.3-0.4-0.4c-0.1-0.2-0.1-0.4-0.1-0.6C13.3,87.6,13.4,87.5,13.5,87.3z M13.4,93.5v-0.9h3.5
	v0.9H13.4z M13,92.5v0.9h-0.9v-0.9H13z M12.2,94H13v1.4h3.8v1H13v1.4h-0.8V94z"/>
</svg>
