<?xml version="1.0" encoding="utf-8"?>
<!-- Generator: Adobe Illustrator 17.1.0, SVG Export Plug-In . SVG Version: 6.00 Build 0)  -->
<!DOCTYPE svg PUBLIC "-//W3C//DTD SVG 1.1//EN" "http://www.w3.org/Graphics/SVG/1.1/DTD/svg11.dtd">
<svg version="1.1" id="Layer_1" xmlns="http://www.w3.org/2000/svg" xmlns:xlink="http://www.w3.org/1999/xlink" x="0px" y="0px"
	 viewBox="-23.3 11.8 239.8 172.4" enable-background="new -23.3 11.8 239.8 172.4" xml:space="preserve">
<g>
	<defs>
		<rect id="SVGID_1_" x="6.4" y="11.8" width="210" height="125.5"/>
	</defs>
	<clipPath id="SVGID_2_">
		<use xlink:href="#SVGID_1_"  overflow="visible"/>
	</clipPath>
	<polyline clip-path="url(#SVGID_2_)" fill="none" stroke="#66C2A5" stroke-width="1.5" stroke-miterlimit="10" points="
		7.2,-1995.8 7.7,-1279.1 8.1,-920.8 8.5,-705.8 8.9,-562.5 9.3,-460.1 9.7,-383.4 10.1,-323.6 10.5,-275.9 10.9,-236.8 
		11.3,-204.3 11.8,-176.7 12.2,-153.1 12.6,-132.6 13,-114.7 13.4,-99 13.8,-84.9 14.2,-72.4 14.6,-61.1 15,-50.8 15.4,-41.6 
		15.9,-33.1 16.3,-25.3 16.7,-18.2 17.1,-11.6 17.5,-5.5 17.9,0.2 18.3,5.5 18.7,10.4 19.1,15 19.6,19.3 20,23.4 20.4,27.2 
		20.8,30.8 21.2,34.2 21.6,37.4 22,40.4 22.4,43.3 22.8,46.1 23.2,48.7 23.7,51.1 24.1,53.5 24.5,55.8 24.9,57.9 25.3,60 25.7,61.9 
		26.1,63.8 26.5,65.6 26.9,67.4 27.3,69 27.8,70.6 28.2,72.2 28.6,73.7 29,75.1 29.4,76.5 29.8,77.8 30.2,79.1 30.6,80.3 31,81.5 
		31.4,82.7 31.9,83.8 32.3,84.9 32.7,85.9 33.1,86.9 33.5,87.9 33.9,88.9 34.3,89.8 34.7,90.7 35.1,91.6 35.5,92.4 36,93.2 36.4,94 
		36.8,94.8 37.2,95.6 37.6,96.3 38,97 38.4,97.7 38.8,98.4 39.2,99 39.6,99.7 40.1,100.3 40.5,100.9 40.9,101.5 41.3,102.1 
		41.7,102.7 42.1,103.2 42.5,103.8 42.9,104.3 43.3,104.8 43.8,105.3 44.2,105.8 44.6,106.3 45,106.8 45.4,107.2 45.8,107.7 
		46.2,108.1 46.6,108.6 47,109 47.4,109.4 47.9,109.8 48.3,110.2 48.7,110.6 49.1,111 49.5,111.4 49.9,111.7 50.3,112.1 50.7,112.4 
		51.1,112.8 51.5,113.1 52,113.5 52.4,113.8 52.8,114.1 53.2,114.4 53.6,114.7 54,115 54.4,115.3 54.8,115.6 55.2,115.9 55.6,116.2 
		56.1,116.5 56.5,116.7 56.9,117 57.7,117.5 58.1,117.8 58.9,118.3 59.3,118.5 59.7,118.8 60.6,119.2 61,119.4 61.4,119.7 
		61.8,119.9 62.2,120.1 62.6,120.3 63.4,120.7 64.3,121.1 64.7,121.3 65.5,121.7 65.9,121.9 66.3,122.1 67.1,122.4 67.5,122.6 
		68.4,122.9 68.8,123.1 69.6,123.4 70.4,123.8 70.8,123.9 71.6,124.2 72.9,124.7 73.3,124.8 73.7,125 74.1,125.1 74.5,125.2 
		74.9,125.4 75.3,125.5 75.7,125.6 76.2,125.8 76.6,125.9 77.8,126.3 78.6,126.5 79.8,126.9 81.1,127.2 81.9,127.4 83.1,127.7 
		84.4,128 86,128.4 86.8,128.6 87.2,128.7 87.6,128.8 88,128.9 88.5,129 88.9,129.1 89.7,129.2 90.1,129.3 90.5,129.4 91.7,129.7 
		93.4,130 95.4,130.3 97.1,130.6 97.5,130.7 97.9,130.8 98.7,130.9 99.1,130.9 99.5,131 101.6,131.3 104,131.7 106.5,132 
		106.9,132.1 107.3,132.1 109,132.3 109.4,132.4 109.8,132.4 112.2,132.7 112.7,132.7 113.1,132.8 115.5,133 115.9,133.1 
		116.3,133.1 119.2,133.4 119.6,133.4 120,133.5 123.3,133.8 123.7,133.8 124.1,133.8 125,133.9 125.4,133.9 127,134 127.4,134.1 
		128.2,134.1 128.7,134.2 129.1,134.2 132.8,134.4 133.2,134.5 133.6,134.5 134,134.5 134.4,134.5 135.2,134.6 135.6,134.6 
		137.7,134.7 138.1,134.8 138.9,134.8 139.3,134.8 139.7,134.8 140.1,134.9 140.5,134.9 141.4,134.9 141.8,134.9 143.8,135 
		144.2,135.1 145.5,135.1 145.9,135.1 146.3,135.2 146.7,135.2 147.1,135.2 147.5,135.2 147.9,135.2 150,135.3 150.4,135.3 
		150.8,135.3 151.2,135.3 152.9,135.4 153.3,135.4 154.1,135.5 154.5,135.5 154.9,135.5 155.7,135.5 156.1,135.5 157,135.5 
		157.4,135.6 161.1,135.7 161.5,135.7 162.7,135.7 163.1,135.7 163.5,135.7 163.9,135.7 164.3,135.7 164.7,135.8 165.2,135.8 
		166,135.8 166.4,135.8 167.2,135.8 167.6,135.8 172.1,135.9 172.5,135.9 173.8,135.9 174.2,135.9 174.6,135.9 175,135.9 175.8,136 
		176.2,136 176.6,136 177.5,136 177.9,136 178.7,136 179.1,136 180.3,136 180.7,136 185.7,136.1 186.1,136.1 187.3,136.1 
		187.7,136.1 188.5,136.1 188.9,136.1 189.8,136.1 190.2,136.1 190.6,136.1 191,136.1 191.4,136.1 191.8,136.1 192.2,136.1 
		193,136.1 193.5,136.1 193.9,136.1 194.3,136.1 195.5,136.1 195.9,136.1 198,136.1 198.4,136.1 202.1,136.1 202.5,136.1 
		204.5,136.1 204.9,136.1 206.2,136.1 206.6,136.1 207.4,136.1 207.8,136.1 208.6,136.1 209,136.1 209.5,136.1 209.9,136.1 
		210.3,136.1 210.7,136.1 211.1,136.1 211.5,136.1 211.9,136.1 212.3,136.1 212.7,136.1 213.6,136.1 214,136.1 214.4,136.1 
		214.8,136.1 216,136.1 216.4,136.1 	"/>
</g>
<g>
	<defs>
		<rect id="SVGID_3_" x="6.4" y="11.8" width="211" height="134.5"/>
	</defs>
	<clipPath id="SVGID_4_">
		<use xlink:href="#SVGID_3_"  overflow="visible"/>
	</clipPath>
	
		<polyline clip-path="url(#SVGID_4_)" fill="none" stroke="#808080" stroke-width="0.375" stroke-miterlimit="10" stroke-dasharray="3.75,3.75" points="
		7.2,-1995.8 7.7,-1279.1 8.1,-920.8 8.5,-705.7 8.9,-562.4 9.3,-460 9.7,-383.2 10.1,-323.5 10.5,-275.7 10.9,-236.6 11.3,-204 
		11.8,-176.5 12.2,-152.8 12.6,-132.4 13,-114.4 13.4,-98.6 13.8,-84.6 14.2,-72 14.6,-60.7 15,-50.4 15.4,-41.1 15.9,-32.6 
		16.3,-24.8 16.7,-17.7 17.1,-11.1 17.5,-4.9 17.9,0.8 18.3,6 18.7,11 19.1,15.6 19.6,19.9 20,24 20.4,27.9 20.8,31.5 21.2,34.9 
		21.6,38.1 22,41.2 22.4,44.1 22.8,46.8 23.2,49.4 23.7,51.9 24.1,54.3 24.5,56.6 24.9,58.8 25.3,60.8 25.7,62.8 26.1,64.7 
		26.5,66.6 26.9,68.3 27.3,70 27.8,71.6 28.2,73.2 28.6,74.7 29,76.1 29.4,77.5 29.8,78.9 30.2,80.2 30.6,81.4 31,82.7 31.4,83.8 
		31.9,85 32.3,86.1 32.7,87.1 33.1,88.2 33.5,89.2 33.9,90.1 34.3,91.1 34.7,92 35.1,92.9 35.5,93.8 36,94.6 36.4,95.4 36.8,96.2 
		37.2,97 37.6,97.8 38,98.5 38.4,99.2 38.8,99.9 39.2,100.6 39.6,101.2 40.1,101.9 40.5,102.5 40.9,103.1 41.3,103.7 41.7,104.3 
		42.1,104.9 42.5,105.5 42.9,106 43.3,106.6 43.8,107.1 44.2,107.6 44.6,108.1 45,108.6 45.4,109.1 45.8,109.5 46.2,110 46.6,110.4 
		47,110.9 47.4,111.3 47.9,111.8 48.3,112.2 48.7,112.6 49.1,113 49.5,113.4 49.9,113.8 50.3,114.1 50.7,114.5 51.1,114.9 
		51.5,115.2 52,115.6 52.4,115.9 52.8,116.3 53.2,116.6 53.6,116.9 54,117.3 54.4,117.6 55.2,118.2 55.6,118.5 56.1,118.8 
		56.9,119.4 57.3,119.7 57.7,119.9 58.1,120.2 58.5,120.5 59.3,121 59.7,121.3 60.6,121.8 61,122 61.8,122.5 62.2,122.7 63,123.2 
		63.8,123.6 64.7,124 65.5,124.5 65.9,124.7 66.3,124.9 67.1,125.3 67.5,125.5 67.9,125.7 69.2,126.2 70.4,126.8 70.8,126.9 
		71.6,127.3 72.5,127.6 73.3,127.9 74.1,128.3 74.9,128.6 75.7,128.9 76.6,129.2 77.8,129.6 78.6,129.9 79.8,130.3 80.7,130.6 
		81.9,131 83.1,131.3 84.4,131.7 85.6,132.1 87.2,132.5 88.5,132.8 89.7,133.1 90.1,133.3 90.5,133.4 91.3,133.6 91.7,133.7 
		92.2,133.8 93,134 93.4,134 93.8,134.1 94.6,134.3 95,134.4 95.4,134.5 97.1,134.9 99.1,135.3 99.5,135.4 99.9,135.5 100.8,135.6 
		101.2,135.7 101.6,135.8 103.6,136.2 104,136.3 104.5,136.3 106.1,136.6 106.5,136.7 106.9,136.8 108.6,137.1 109,137.1 
		109.4,137.2 109.8,137.3 110.2,137.3 111.4,137.5 111.8,137.6 112.2,137.7 112.7,137.7 113.1,137.8 115.1,138.1 115.5,138.2 
		115.9,138.2 116.8,138.3 117.2,138.4 118,138.5 118.4,138.6 119.2,138.7 119.6,138.8 120,138.8 122.9,139.2 123.3,139.2 
		123.7,139.3 124.6,139.4 125,139.5 126.6,139.7 127,139.7 127.8,139.8 128.2,139.9 128.7,139.9 129.5,140 129.9,140 131.5,140.2 
		131.9,140.3 132.8,140.4 133.2,140.4 133.6,140.5 134,140.5 134.4,140.6 137.7,140.9 138.1,140.9 138.9,141 139.3,141.1 
		139.7,141.1 140.5,141.2 141,141.2 144.2,141.5 144.7,141.6 145.5,141.6 145.9,141.7 146.3,141.7 147.1,141.8 147.5,141.8 
		148.8,141.9 149.2,142 150.4,142.1 150.8,142.1 152.4,142.3 152.9,142.3 153.3,142.3 153.7,142.4 154.1,142.4 154.5,142.4 
		154.9,142.5 155.3,142.5 155.7,142.5 157.4,142.6 157.8,142.7 159.4,142.8 159.8,142.8 161.5,143 161.9,143 162.7,143 163.1,143.1 
		163.5,143.1 163.9,143.1 164.3,143.2 165.2,143.2 165.6,143.3 166.8,143.3 167.2,143.4 170.9,143.6 171.3,143.6 172.5,143.7 
		172.9,143.7 173.8,143.8 174.2,143.8 174.6,143.8 175,143.9 175.4,143.9 175.8,143.9 176.2,143.9 176.6,144 177.1,144 177.9,144 
		178.3,144.1 179.9,144.2 180.3,144.2 184,144.4 184.4,144.4 186.1,144.5 186.5,144.5 187.3,144.6 187.7,144.6 188.5,144.6 
		188.9,144.7 189.4,144.7 189.8,144.7 190.2,144.7 190.6,144.8 191,144.8 191.8,144.8 192.2,144.8 193,144.9 193.5,144.9 
		194.3,144.9 194.7,145 197.2,145.1 197.6,145.1 200.4,145.2 200.8,145.3 202.9,145.4 203.3,145.4 204.5,145.4 204.9,145.4 
		205.8,145.5 206.2,145.5 207,145.5 207.4,145.6 207.8,145.6 208.2,145.6 208.6,145.6 209,145.6 209.5,145.6 209.9,145.7 
		210.3,145.7 210.7,145.7 211.1,145.7 211.5,145.7 211.9,145.8 212.7,145.8 213.1,145.8 214,145.8 214.4,145.9 215.6,145.9 
		216,145.9 216.4,145.9 	"/>
</g>
<line fill="none" stroke="#292724" stroke-width="0.75" stroke-miterlimit="10" x1="7.2" y1="161.8" x2="216.4" y2="161.8"/>
<path fill="#292724" d="M177.1,180.7c0,0.2,0.1,0.4,0.2,0.5c0.2,0.2,0.4,0.2,0.9,0.2c0.2,0,0.4,0,0.6-0.1c0.1-0.1,0.2-0.2,0.2-0.3
	c0-0.1-0.1-0.2-0.2-0.3c-0.1-0.1-0.6-0.2-1.3-0.4c-0.5-0.1-0.9-0.3-1.1-0.5c-0.2-0.2-0.3-0.5-0.3-0.9c0-0.4,0.2-0.8,0.5-1.1
	c0.3-0.3,0.8-0.5,1.5-0.5c0.6,0,1.1,0.1,1.5,0.4c0.4,0.2,0.6,0.6,0.6,1.2h-1.3c0-0.2-0.1-0.3-0.1-0.4c-0.1-0.2-0.4-0.3-0.7-0.3
	c-0.3,0-0.5,0-0.6,0.1c-0.1,0.1-0.2,0.2-0.2,0.3c0,0.1,0.1,0.2,0.2,0.3c0.1,0.1,0.6,0.2,1.3,0.3c0.5,0.1,0.9,0.3,1.1,0.5
	c0.2,0.2,0.4,0.5,0.4,0.9c0,0.5-0.2,0.9-0.5,1.2c-0.4,0.3-0.9,0.5-1.6,0.5c-0.8,0-1.3-0.2-1.7-0.5c-0.4-0.3-0.5-0.7-0.5-1.2H177.1z
	 M172.7,178.4v-0.9h0.7v-1.3h1.2v1.3h0.8v0.9h-0.8v2.5c0,0.2,0,0.3,0.1,0.4c0.1,0,0.2,0.1,0.5,0.1c0,0,0.1,0,0.1,0c0,0,0.1,0,0.1,0
	v0.9l-0.6,0c-0.6,0-1-0.1-1.2-0.3c-0.1-0.1-0.2-0.4-0.2-0.7v-2.9H172.7z M171.5,177.7c0.3,0.3,0.5,0.7,0.5,1.3v3.2h-1.3v-2.9
	c0-0.2,0-0.4-0.1-0.6c-0.1-0.2-0.4-0.4-0.7-0.4c-0.4,0-0.7,0.2-0.9,0.5c-0.1,0.2-0.1,0.4-0.1,0.7v2.6h-1.2v-4.8h1.2v0.7
	c0.2-0.2,0.3-0.4,0.5-0.5c0.3-0.2,0.6-0.3,1-0.3C170.8,177.4,171.2,177.5,171.5,177.7z M165.6,177.6c0.3,0.2,0.6,0.4,0.8,0.7
	c0.2,0.3,0.3,0.6,0.4,1c0,0.2,0,0.5,0,0.9h-3.3c0,0.5,0.2,0.8,0.5,1c0.2,0.1,0.4,0.2,0.6,0.2c0.3,0,0.5-0.1,0.6-0.2
	c0.1-0.1,0.2-0.2,0.2-0.3h1.3c0,0.3-0.2,0.6-0.4,0.9c-0.4,0.5-1,0.7-1.7,0.7c-0.6,0-1.1-0.2-1.6-0.6c-0.5-0.4-0.7-1-0.7-1.9
	c0-0.8,0.2-1.5,0.6-1.9c0.4-0.4,1-0.7,1.6-0.7C165,177.3,165.3,177.4,165.6,177.6z M163.9,178.6c-0.2,0.2-0.3,0.4-0.3,0.7h1.9
	c0-0.3-0.1-0.6-0.3-0.8c-0.2-0.2-0.4-0.3-0.7-0.3C164.3,178.4,164,178.5,163.9,178.6z M160.6,177.5c0.2,0.1,0.4,0.2,0.6,0.4
	c0.1,0.2,0.2,0.4,0.3,0.6c0,0.2,0,0.4,0,0.7l0,3h-1.3v-3.1c0-0.2,0-0.3-0.1-0.4c-0.1-0.2-0.3-0.3-0.6-0.3c-0.3,0-0.6,0.1-0.7,0.4
	c-0.1,0.2-0.1,0.3-0.1,0.6v2.9h-1.3v-2.9c0-0.3,0-0.5-0.1-0.6c-0.1-0.2-0.3-0.3-0.6-0.3c-0.4,0-0.6,0.1-0.7,0.3
	c-0.1,0.1-0.1,0.3-0.1,0.6v2.9h-1.3v-4.8h1.2v0.7c0.2-0.2,0.3-0.4,0.4-0.5c0.2-0.2,0.6-0.3,0.9-0.3c0.4,0,0.7,0.1,0.9,0.2
	c0.2,0.1,0.3,0.3,0.4,0.6c0.2-0.3,0.4-0.5,0.6-0.6c0.3-0.1,0.5-0.2,0.9-0.2C160.2,177.4,160.4,177.4,160.6,177.5z M152.6,177.6
	c0.3,0.2,0.6,0.4,0.8,0.7c0.2,0.3,0.3,0.6,0.4,1c0,0.2,0,0.5,0,0.9h-3.3c0,0.5,0.2,0.8,0.5,1c0.2,0.1,0.4,0.2,0.6,0.2
	c0.3,0,0.5-0.1,0.6-0.2c0.1-0.1,0.2-0.2,0.2-0.3h1.3c0,0.3-0.2,0.6-0.4,0.9c-0.4,0.5-1,0.7-1.7,0.7c-0.6,0-1.1-0.2-1.6-0.6
	c-0.5-0.4-0.7-1-0.7-1.9c0-0.8,0.2-1.5,0.6-1.9c0.4-0.4,1-0.7,1.6-0.7C151.9,177.3,152.3,177.4,152.6,177.6z M150.9,178.6
	c-0.2,0.2-0.3,0.4-0.3,0.7h1.9c0-0.3-0.1-0.6-0.3-0.8c-0.2-0.2-0.4-0.3-0.7-0.3C151.3,178.4,151,178.5,150.9,178.6z M148.4,182.3
	h-1.3v-6.5h1.3V182.3z M146,176.9h-3.4v1.4h3.1v1.1h-3.1v1.7h3.6v1.2h-4.9v-6.5h4.8V176.9z M135.5,177.5c0.3,0.1,0.6,0.4,0.7,0.7
	v-0.7h1.2v4.5c0,0.6-0.1,1.1-0.3,1.4c-0.4,0.5-1,0.8-2.1,0.8c-0.6,0-1.1-0.1-1.5-0.4c-0.4-0.2-0.6-0.6-0.6-1.1h1.4
	c0,0.1,0.1,0.2,0.2,0.3c0.1,0.1,0.4,0.2,0.7,0.2c0.5,0,0.8-0.2,0.9-0.5c0.1-0.2,0.1-0.5,0.1-1v-0.3c-0.1,0.2-0.2,0.4-0.4,0.5
	c-0.2,0.2-0.6,0.3-1,0.3c-0.6,0-1.1-0.2-1.5-0.6c-0.4-0.4-0.6-1-0.6-1.8c0-0.7,0.2-1.3,0.5-1.8c0.4-0.5,0.9-0.7,1.5-0.7
	C135.1,177.4,135.4,177.4,135.5,177.5z M136,180.9c0.2-0.2,0.3-0.6,0.3-1.1c0-0.5-0.1-0.8-0.3-1c-0.2-0.2-0.4-0.4-0.8-0.4
	c-0.4,0-0.7,0.2-0.9,0.6c-0.1,0.2-0.1,0.5-0.1,0.8c0,0.3,0,0.5,0.1,0.7c0.2,0.4,0.5,0.6,0.9,0.6C135.5,181.2,135.8,181.1,136,180.9z
	 M131.5,177.7c0.3,0.3,0.5,0.7,0.5,1.3v3.2h-1.3v-2.9c0-0.2,0-0.4-0.1-0.6c-0.1-0.2-0.4-0.4-0.7-0.4c-0.4,0-0.7,0.2-0.9,0.5
	c-0.1,0.2-0.1,0.4-0.1,0.7v2.6h-1.2v-4.8h1.2v0.7c0.2-0.2,0.3-0.4,0.5-0.5c0.3-0.2,0.6-0.3,1-0.3
	C130.8,177.4,131.2,177.5,131.5,177.7z M125.2,177.5h1.3v4.8h-1.3V177.5z M126.4,176.9h-1.3v-1.2h1.3V176.9z M121.1,180.7
	c0,0.2,0.1,0.4,0.2,0.5c0.2,0.2,0.4,0.2,0.9,0.2c0.2,0,0.4,0,0.6-0.1c0.1-0.1,0.2-0.2,0.2-0.3c0-0.1-0.1-0.2-0.2-0.3
	c-0.1-0.1-0.6-0.2-1.3-0.4c-0.5-0.1-0.9-0.3-1.1-0.5c-0.2-0.2-0.3-0.5-0.3-0.9c0-0.4,0.2-0.8,0.5-1.1c0.3-0.3,0.8-0.5,1.5-0.5
	c0.6,0,1.1,0.1,1.5,0.4c0.4,0.2,0.6,0.6,0.6,1.2h-1.3c0-0.2-0.1-0.3-0.1-0.4c-0.1-0.2-0.4-0.3-0.7-0.3c-0.3,0-0.5,0-0.6,0.1
	c-0.1,0.1-0.2,0.2-0.2,0.3c0,0.1,0.1,0.2,0.2,0.3c0.1,0.1,0.6,0.2,1.3,0.3c0.5,0.1,0.9,0.3,1.1,0.5c0.2,0.2,0.4,0.5,0.4,0.9
	c0,0.5-0.2,0.9-0.5,1.2c-0.4,0.3-0.9,0.5-1.6,0.5c-0.8,0-1.3-0.2-1.7-0.5c-0.4-0.3-0.5-0.7-0.5-1.2H121.1z M116.1,180.7
	c0,0.2,0.1,0.4,0.2,0.5c0.2,0.2,0.4,0.2,0.9,0.2c0.2,0,0.4,0,0.6-0.1c0.1-0.1,0.2-0.2,0.2-0.3c0-0.1-0.1-0.2-0.2-0.3
	c-0.1-0.1-0.6-0.2-1.3-0.4c-0.5-0.1-0.9-0.3-1.1-0.5c-0.2-0.2-0.3-0.5-0.3-0.9c0-0.4,0.2-0.8,0.5-1.1c0.3-0.3,0.8-0.5,1.5-0.5
	c0.6,0,1.1,0.1,1.5,0.4c0.4,0.2,0.6,0.6,0.6,1.2h-1.3c0-0.2-0.1-0.3-0.1-0.4c-0.1-0.2-0.4-0.3-0.7-0.3c-0.3,0-0.5,0-0.6,0.1
	c-0.1,0.1-0.2,0.2-0.2,0.3c0,0.1,0.1,0.2,0.2,0.3c0.1,0.1,0.6,0.2,1.3,0.3c0.5,0.1,0.9,0.3,1.1,0.5c0.2,0.2,0.4,0.5,0.4,0.9
	c0,0.5-0.2,0.9-0.5,1.2c-0.4,0.3-0.9,0.5-1.6,0.5c-0.8,0-1.3-0.2-1.7-0.5c-0.4-0.3-0.5-0.7-0.5-1.2H116.1z M113.1,177.6
	c0.3,0.2,0.6,0.4,0.8,0.7c0.2,0.3,0.3,0.6,0.4,1c0,0.2,0,0.5,0,0.9H111c0,0.5,0.2,0.8,0.5,1c0.2,0.1,0.4,0.2,0.6,0.2
	c0.3,0,0.5-0.1,0.6-0.2c0.1-0.1,0.2-0.2,0.2-0.3h1.3c0,0.3-0.2,0.6-0.4,0.9c-0.4,0.5-1,0.7-1.7,0.7c-0.6,0-1.1-0.2-1.6-0.6
	c-0.5-0.4-0.7-1-0.7-1.9c0-0.8,0.2-1.5,0.6-1.9c0.4-0.4,1-0.7,1.6-0.7C112.4,177.3,112.8,177.4,113.1,177.6z M111.4,178.6
	c-0.2,0.2-0.3,0.4-0.3,0.7h1.9c0-0.3-0.1-0.6-0.3-0.8c-0.2-0.2-0.4-0.3-0.7-0.3C111.7,178.4,111.5,178.5,111.4,178.6z M108,179.2
	c0-0.2-0.1-0.3-0.2-0.5c-0.1-0.2-0.4-0.3-0.7-0.3c-0.4,0-0.7,0.2-0.9,0.6c-0.1,0.2-0.1,0.5-0.1,0.9c0,0.4,0,0.6,0.1,0.8
	c0.1,0.4,0.4,0.6,0.8,0.6c0.3,0,0.5-0.1,0.6-0.2c0.1-0.2,0.2-0.4,0.2-0.6h1.3c0,0.4-0.2,0.7-0.4,1.1c-0.4,0.5-1,0.8-1.7,0.8
	c-0.8,0-1.3-0.2-1.7-0.7c-0.4-0.5-0.5-1.1-0.5-1.8c0-0.8,0.2-1.5,0.6-1.9c0.4-0.5,1-0.7,1.7-0.7c0.6,0,1.1,0.1,1.5,0.4
	c0.4,0.3,0.6,0.7,0.7,1.4H108z M103.6,181.7c-0.4,0.5-1,0.8-1.8,0.8s-1.4-0.2-1.8-0.8c-0.4-0.5-0.6-1.1-0.6-1.8
	c0-0.7,0.2-1.3,0.6-1.8c0.4-0.5,1-0.8,1.8-0.8s1.4,0.3,1.8,0.8c0.4,0.5,0.6,1.1,0.6,1.8C104.2,180.6,104,181.2,103.6,181.7z
	 M102.6,181c0.2-0.3,0.3-0.6,0.3-1.1c0-0.5-0.1-0.9-0.3-1.1c-0.2-0.3-0.5-0.4-0.8-0.4c-0.4,0-0.6,0.1-0.8,0.4
	c-0.2,0.3-0.3,0.6-0.3,1.1c0,0.5,0.1,0.9,0.3,1.1c0.2,0.3,0.5,0.4,0.8,0.4C102.2,181.4,102.4,181.2,102.6,181z M98.8,177.4
	c0,0,0.1,0,0.1,0v1.3c-0.1,0-0.1,0-0.2,0c-0.1,0-0.1,0-0.1,0c-0.5,0-0.8,0.2-1,0.5c-0.1,0.2-0.1,0.5-0.1,0.9v2.3h-1.3v-4.8h1.2v0.8
	c0.2-0.3,0.4-0.5,0.5-0.7C98.1,177.5,98.4,177.4,98.8,177.4C98.8,177.4,98.8,177.4,98.8,177.4z M94.6,179.5
	c-0.4,0.3-0.9,0.5-1.7,0.5h-1.4v2.3h-1.3v-6.5h2.8c0.6,0,1.2,0.2,1.6,0.5c0.4,0.3,0.6,0.9,0.6,1.6C95.2,178.6,95,179.1,94.6,179.5z
	 M93.6,177.1c-0.2-0.1-0.4-0.2-0.7-0.2h-1.3v1.9h1.3c0.3,0,0.6-0.1,0.7-0.2c0.2-0.2,0.3-0.4,0.3-0.7
	C93.9,177.5,93.8,177.3,93.6,177.1z M86.6,175.7c0.1,0,0.2,0,0.3,0v1c-0.1,0-0.2,0-0.4,0c-0.2,0-0.3,0-0.3,0.1
	c-0.1,0.1-0.1,0.2-0.1,0.3c0,0.1,0,0.2,0,0.4h0.8v0.9h-0.8v3.9h-1.2v-3.9h-0.7v-0.9h0.7v-0.3c0-0.5,0.1-0.9,0.3-1.1
	c0.2-0.3,0.6-0.4,1.3-0.4C86.5,175.7,86.6,175.7,86.6,175.7z M83.1,181.7c-0.4,0.5-1,0.8-1.8,0.8c-0.8,0-1.4-0.2-1.8-0.8
	c-0.4-0.5-0.6-1.1-0.6-1.8c0-0.7,0.2-1.3,0.6-1.8c0.4-0.5,1-0.8,1.8-0.8c0.8,0,1.4,0.3,1.8,0.8c0.4,0.5,0.6,1.1,0.6,1.8
	C83.7,180.6,83.5,181.2,83.1,181.7z M82.1,181c0.2-0.3,0.3-0.6,0.3-1.1c0-0.5-0.1-0.9-0.3-1.1c-0.2-0.3-0.5-0.4-0.8-0.4
	c-0.4,0-0.6,0.1-0.8,0.4c-0.2,0.3-0.3,0.6-0.3,1.1c0,0.5,0.1,0.9,0.3,1.1c0.2,0.3,0.5,0.4,0.8,0.4C81.7,181.4,81.9,181.2,82.1,181z
	 M75.8,177.4c0,0,0.1,0,0.1,0v1.3c-0.1,0-0.1,0-0.2,0c-0.1,0-0.1,0-0.1,0c-0.5,0-0.8,0.2-1,0.5c-0.1,0.2-0.1,0.5-0.1,0.9v2.3h-1.3
	v-4.8h1.2v0.8c0.2-0.3,0.4-0.5,0.5-0.7C75.1,177.5,75.4,177.4,75.8,177.4C75.8,177.4,75.8,177.4,75.8,177.4z M71.1,177.6
	c0.3,0.2,0.6,0.4,0.8,0.7c0.2,0.3,0.3,0.6,0.4,1c0,0.2,0,0.5,0,0.9H69c0,0.5,0.2,0.8,0.5,1c0.2,0.1,0.4,0.2,0.6,0.2
	c0.3,0,0.5-0.1,0.6-0.2c0.1-0.1,0.2-0.2,0.2-0.3h1.3c0,0.3-0.2,0.6-0.4,0.9c-0.4,0.5-1,0.7-1.7,0.7c-0.6,0-1.1-0.2-1.6-0.6
	c-0.5-0.4-0.7-1-0.7-1.9c0-0.8,0.2-1.5,0.6-1.9c0.4-0.4,1-0.7,1.6-0.7C70.4,177.3,70.8,177.4,71.1,177.6z M69.3,178.6
	c-0.2,0.2-0.3,0.4-0.3,0.7H71c0-0.3-0.1-0.6-0.3-0.8c-0.2-0.2-0.4-0.3-0.7-0.3C69.7,178.4,69.5,178.5,69.3,178.6z M65.7,181
	c0.2-0.3,0.3-0.6,0.3-1c0-0.3,0-0.6-0.1-0.8c-0.2-0.4-0.5-0.6-0.9-0.6c-0.5,0-0.8,0.2-0.9,0.6c-0.1,0.2-0.1,0.5-0.1,0.9
	c0,0.4,0.1,0.8,0.3,1c0.2,0.3,0.5,0.4,0.8,0.4C65.2,181.4,65.5,181.2,65.7,181z M66.7,178c0.4,0.5,0.5,1,0.5,1.8
	c0,0.7-0.2,1.4-0.5,1.9c-0.4,0.5-0.8,0.7-1.5,0.7c-0.4,0-0.7-0.1-1-0.2c-0.1-0.1-0.3-0.3-0.5-0.5v0.6h-1.2v-6.5h1.2v2.3
	c0.2-0.2,0.3-0.4,0.5-0.5c0.2-0.1,0.5-0.2,0.9-0.2C65.9,177.4,66.3,177.6,66.7,178z M60.6,177.5c0.2,0.1,0.4,0.2,0.6,0.4
	c0.1,0.2,0.2,0.4,0.3,0.6c0,0.2,0,0.4,0,0.7l0,3h-1.3v-3.1c0-0.2,0-0.3-0.1-0.4c-0.1-0.2-0.3-0.3-0.6-0.3c-0.3,0-0.6,0.1-0.7,0.4
	c-0.1,0.2-0.1,0.3-0.1,0.6v2.9h-1.3v-2.9c0-0.3,0-0.5-0.1-0.6c-0.1-0.2-0.3-0.3-0.6-0.3c-0.4,0-0.6,0.1-0.7,0.3
	c-0.1,0.1-0.1,0.3-0.1,0.6v2.9h-1.3v-4.8h1.2v0.7c0.2-0.2,0.3-0.4,0.4-0.5c0.2-0.2,0.6-0.3,0.9-0.3c0.4,0,0.7,0.1,0.9,0.2
	c0.2,0.1,0.3,0.3,0.4,0.6c0.2-0.3,0.4-0.5,0.6-0.6c0.3-0.1,0.5-0.2,0.9-0.2C60.2,177.4,60.4,177.4,60.6,177.5z M50.4,177.5v2.9
	c0,0.3,0,0.5,0.1,0.6c0.1,0.2,0.3,0.4,0.7,0.4c0.4,0,0.7-0.2,0.9-0.5c0.1-0.2,0.1-0.4,0.1-0.7v-2.6h1.3v4.8h-1.2v-0.7
	c0,0,0,0.1-0.1,0.1c0,0.1-0.1,0.1-0.2,0.2c-0.2,0.2-0.4,0.3-0.6,0.4c-0.2,0.1-0.4,0.1-0.6,0.1c-0.7,0-1.2-0.3-1.4-0.8
	c-0.1-0.3-0.2-0.7-0.2-1.2v-2.9H50.4z M42.7,175.8h1.4l2.6,4.5v-4.5H48v6.5h-1.4l-2.6-4.6v4.6h-1.3V175.8z"/>
<line fill="none" stroke="#292724" stroke-width="0.75" stroke-miterlimit="10" x1="-1.1" y1="11.8" x2="-1.1" y2="145.9"/>
<path fill="#292724" d="M-19.8,78.2c0.2-0.3,0.4-0.6,0.7-0.8c0.3-0.2,0.6-0.3,1-0.4c0.2,0,0.5,0,0.9,0v3.3c0.5,0,0.8-0.2,1-0.5
	c0.1-0.2,0.2-0.4,0.2-0.6c0-0.3-0.1-0.5-0.2-0.6c-0.1-0.1-0.2-0.2-0.3-0.2V77c0.3,0,0.6,0.2,0.9,0.4c0.5,0.4,0.7,1,0.7,1.7
	c0,0.6-0.2,1.1-0.6,1.6c-0.4,0.5-1,0.7-1.9,0.7c-0.8,0-1.5-0.2-1.9-0.6c-0.4-0.4-0.7-1-0.7-1.6C-20.1,78.8-20,78.5-19.8,78.2z
	 M-18.8,79.9c0.2,0.2,0.4,0.3,0.7,0.3v-1.9c-0.3,0-0.6,0.1-0.8,0.3c-0.2,0.2-0.3,0.4-0.3,0.7C-19,79.5-18.9,79.7-18.8,79.9z
	 M-19.9,83.1c0.1-0.2,0.2-0.4,0.4-0.6c0.2-0.1,0.4-0.2,0.6-0.3c0.2,0,0.4,0,0.7,0l3,0v1.3h-3.1c-0.2,0-0.3,0-0.4,0.1
	c-0.2,0.1-0.3,0.3-0.3,0.6c0,0.3,0.1,0.6,0.4,0.7c0.2,0.1,0.3,0.1,0.6,0.1h2.9v1.3H-18c-0.3,0-0.5,0-0.6,0.1
	c-0.2,0.1-0.3,0.3-0.3,0.6c0,0.4,0.1,0.6,0.3,0.7c0.1,0.1,0.3,0.1,0.6,0.1h2.9v1.3h-4.8v-1.2h0.7c-0.2-0.2-0.4-0.3-0.5-0.4
	c-0.2-0.2-0.3-0.6-0.3-0.9c0-0.4,0.1-0.7,0.2-0.9c0.1-0.2,0.3-0.3,0.6-0.4c-0.3-0.2-0.5-0.4-0.6-0.6c-0.1-0.3-0.2-0.5-0.2-0.9
	C-20,83.6-20,83.4-19.9,83.1z M-19.9,91.6v-1.3h4.8v1.3H-19.9z M-20.5,90.3v1.3h-1.2v-1.3H-20.5z M-21.6,92.3h1.1v1.9h5.3v1.4h-5.3
	v1.9h-1.1V92.3z"/>
</svg>
