<?xml version="1.0" encoding="utf-8"?>
<!-- Generator: Adobe Illustrator 17.1.0, SVG Export Plug-In . SVG Version: 6.00 Build 0)  -->
<!DOCTYPE svg PUBLIC "-//W3C//DTD SVG 1.1//EN" "http://www.w3.org/Graphics/SVG/1.1/DTD/svg11.dtd">
<svg version="1.1" id="Layer_1" xmlns="http://www.w3.org/2000/svg" xmlns:xlink="http://www.w3.org/1999/xlink" x="0px" y="0px"
	 viewBox="-68.3 -25.6 336.1 248" enable-background="new -68.3 -25.6 336.1 248" xml:space="preserve">
<polyline fill="none" stroke="#66C2A5" stroke-width="2" stroke-miterlimit="10" points="-26.5,166.8 -25.4,161.4 -23.2,148.9 
	-18.8,141.7 "/>
<path fill="#66C2A5" d="M-23.3,166.8c0,4.2-6.3,4.2-6.3,0C-29.6,162.6-23.3,162.6-23.3,166.8"/>
<path fill="none" stroke="#66C2A5" stroke-miterlimit="10" d="M-23.3,166.8c0,4.2-6.3,4.2-6.3,0C-29.6,162.6-23.3,162.6-23.3,166.8"
	/>
<path fill="#66C2A5" d="M-22.2,161.4c0,4.2-6.3,4.2-6.3,0C-28.5,157.2-22.2,157.2-22.2,161.4"/>
<path fill="none" stroke="#66C2A5" stroke-miterlimit="10" d="M-22.2,161.4c0,4.2-6.3,4.2-6.3,0C-28.5,157.2-22.2,157.2-22.2,161.4"
	/>
<path fill="#66C2A5" d="M-20,148.9c0,4.2-6.3,4.2-6.3,0C-26.3,144.7-20,144.7-20,148.9"/>
<path fill="none" stroke="#66C2A5" stroke-miterlimit="10" d="M-20,148.9c0,4.2-6.3,4.2-6.3,0C-26.3,144.7-20,144.7-20,148.9"/>
<path fill="#66C2A5" d="M-15.6,141.7c0,4.2-6.3,4.2-6.3,0S-15.6,137.5-15.6,141.7"/>
<path fill="none" stroke="#66C2A5" stroke-miterlimit="10" d="M-15.6,141.7c0,4.2-6.3,4.2-6.3,0S-15.6,137.5-15.6,141.7"/>
<polyline fill="none" stroke="#FC8D62" stroke-width="2" stroke-miterlimit="10" points="-18.8,126 -10,97.2 7.6,65.5 42.7,20.4 "/>
<path fill="#FC8D62" d="M-15.6,126c0,4.2-6.3,4.2-6.3,0C-21.9,121.8-15.6,121.8-15.6,126"/>
<path fill="none" stroke="#FC8D62" stroke-miterlimit="10" d="M-15.6,126c0,4.2-6.3,4.2-6.3,0C-21.9,121.8-15.6,121.8-15.6,126"/>
<path fill="#FC8D62" d="M-6.8,97.2c0,4.2-6.3,4.2-6.3,0C-13.2,93-6.8,93-6.8,97.2"/>
<path fill="none" stroke="#FC8D62" stroke-miterlimit="10" d="M-6.8,97.2c0,4.2-6.3,4.2-6.3,0C-13.2,93-6.8,93-6.8,97.2"/>
<path fill="#FC8D62" d="M10.7,65.5c0,4.2-6.3,4.2-6.3,0C4.4,61.3,10.7,61.3,10.7,65.5"/>
<path fill="none" stroke="#FC8D62" stroke-miterlimit="10" d="M10.7,65.5c0,4.2-6.3,4.2-6.3,0C4.4,61.3,10.7,61.3,10.7,65.5"/>
<path fill="#FC8D62" d="M45.9,20.4c0,4.2-6.3,4.2-6.3,0C39.5,16.2,45.9,16.2,45.9,20.4"/>
<path fill="none" stroke="#FC8D62" stroke-miterlimit="10" d="M45.9,20.4c0,4.2-6.3,4.2-6.3,0C39.5,16.2,45.9,16.2,45.9,20.4"/>
<polyline fill="none" stroke="#8DA0CB" stroke-width="2" stroke-miterlimit="10" points="7.6,100.2 42.7,73.9 113,50.8 253.5,29.3 
	"/>
<path fill="#8DA0CB" d="M10.7,100.2c0,4.2-6.3,4.2-6.3,0C4.4,95.9,10.7,95.9,10.7,100.2"/>
<path fill="none" stroke="#8DA0CB" stroke-miterlimit="10" d="M10.7,100.2c0,4.2-6.3,4.2-6.3,0C4.4,95.9,10.7,95.9,10.7,100.2"/>
<path fill="#8DA0CB" d="M45.9,73.9c0,4.2-6.3,4.2-6.3,0C39.5,69.7,45.9,69.7,45.9,73.9"/>
<path fill="none" stroke="#8DA0CB" stroke-miterlimit="10" d="M45.9,73.9c0,4.2-6.3,4.2-6.3,0C39.5,69.7,45.9,69.7,45.9,73.9"/>
<path fill="#8DA0CB" d="M116.1,50.8c0,4.2-6.3,4.2-6.3,0C109.8,46.6,116.1,46.6,116.1,50.8"/>
<path fill="none" stroke="#8DA0CB" stroke-miterlimit="10" d="M116.1,50.8c0,4.2-6.3,4.2-6.3,0C109.8,46.6,116.1,46.6,116.1,50.8"/>
<path fill="#8DA0CB" d="M256.7,29.3c0,4.2-6.3,4.2-6.3,0C250.4,25.1,256.7,25.1,256.7,29.3"/>
<path fill="none" stroke="#8DA0CB" stroke-miterlimit="10" d="M256.7,29.3c0,4.2-6.3,4.2-6.3,0C250.4,25.1,256.7,25.1,256.7,29.3"/>
<path fill="#66C2A5" d="M41.1,142.9c0,0.4,0.1,0.7,0.3,0.9c0.3,0.4,0.8,0.5,1.5,0.5c0.4,0,0.8-0.1,1.1-0.3c0.3-0.2,0.5-0.5,0.5-0.8
	c0-0.3-0.1-0.5-0.4-0.7c-0.2-0.1-0.5-0.2-1-0.3l-0.9-0.2c-0.6-0.1-1-0.3-1.3-0.5c-0.5-0.3-0.7-0.7-0.7-1.3c0-0.6,0.2-1.1,0.7-1.5
	c0.5-0.4,1.1-0.6,1.8-0.6c1,0,1.7,0.3,2.2,0.9c0.3,0.4,0.4,0.8,0.4,1.2h-1.1c0-0.3-0.1-0.5-0.3-0.7c-0.3-0.3-0.7-0.4-1.3-0.4
	c-0.4,0-0.8,0.1-1,0.2c-0.2,0.2-0.3,0.4-0.3,0.6c0,0.3,0.1,0.5,0.4,0.7c0.2,0.1,0.4,0.2,0.7,0.3l0.7,0.2c0.8,0.2,1.4,0.4,1.6,0.6
	c0.4,0.3,0.7,0.7,0.7,1.4c0,0.6-0.2,1.1-0.7,1.5c-0.5,0.4-1.1,0.7-2.1,0.7c-1,0-1.7-0.2-2.1-0.7c-0.4-0.5-0.6-1-0.7-1.7H41.1z
	 M34,135.9h1.1v5.3l2.9-2.8h1.4l-2.6,2.5l2.7,4.2h-1.4l-2.1-3.4l-0.9,0.9v2.5H34V135.9z M32,138.7c0.5,0.4,0.8,1,0.9,1.9h-1.1
	c-0.1-0.4-0.2-0.8-0.5-1c-0.2-0.3-0.6-0.4-1.1-0.4c-0.7,0-1.2,0.4-1.5,1.1c-0.2,0.5-0.3,1-0.3,1.7s0.1,1.2,0.4,1.7
	c0.3,0.5,0.7,0.7,1.3,0.7c0.5,0,0.8-0.1,1.1-0.4c0.3-0.3,0.5-0.7,0.6-1.2h1.1c-0.1,0.9-0.4,1.5-0.9,1.9c-0.5,0.4-1.1,0.6-1.9,0.6
	c-0.9,0-1.6-0.3-2.1-1c-0.5-0.6-0.8-1.4-0.8-2.4c0-1.2,0.3-2.1,0.9-2.7c0.6-0.7,1.3-1,2.2-1C30.9,138.1,31.6,138.3,32,138.7z
	 M25.4,139c0.6,0.6,0.9,1.4,0.9,2.5c0,1.1-0.3,2-0.8,2.7c-0.5,0.7-1.3,1.1-2.4,1.1c-0.9,0-1.7-0.3-2.2-0.9c-0.5-0.6-0.8-1.5-0.8-2.5
	c0-1.1,0.3-2,0.9-2.7c0.6-0.7,1.3-1,2.3-1C24,138.1,24.8,138.4,25.4,139z M24.7,143.5c0.3-0.6,0.4-1.2,0.4-1.9
	c0-0.6-0.1-1.1-0.3-1.5c-0.3-0.6-0.9-0.9-1.6-0.9c-0.7,0-1.2,0.3-1.5,0.8c-0.3,0.5-0.5,1.2-0.5,1.9c0,0.7,0.2,1.3,0.5,1.8
	c0.3,0.5,0.8,0.7,1.5,0.7C23.9,144.3,24.4,144,24.7,143.5z M17.7,135.9h1.1v9.2h-1.1V135.9z M14.7,143.5c0.3-0.5,0.5-1.1,0.5-1.9
	c0-0.7-0.1-1.3-0.5-1.8c-0.3-0.5-0.7-0.7-1.3-0.7c-0.5,0-1,0.2-1.3,0.6c-0.4,0.4-0.6,1-0.6,1.9c0,0.6,0.1,1.1,0.2,1.5
	c0.3,0.7,0.8,1.1,1.7,1.1C14,144.3,14.4,144,14.7,143.5z M10.4,135.8h1.1v3.3c0.2-0.3,0.5-0.6,0.9-0.7c0.3-0.2,0.7-0.2,1.1-0.2
	c0.8,0,1.5,0.3,2,0.9c0.5,0.6,0.8,1.4,0.8,2.5c0,1.1-0.3,1.9-0.8,2.6c-0.5,0.7-1.2,1-2.1,1c-0.5,0-0.9-0.1-1.3-0.4
	c-0.2-0.1-0.4-0.4-0.7-0.7v0.9h-1V135.8z M0.5,135.9h1.1v5.3l2.9-2.8h1.4l-2.6,2.5l2.7,4.2H4.7l-2.1-3.4l-0.9,0.9v2.5H0.5V135.9z
	 M-6.4,144.4c-0.5-0.6-0.7-1.3-0.7-2.1h1.2c0.1,0.6,0.2,1,0.3,1.3c0.3,0.5,0.8,0.7,1.6,0.7c0.6,0,1.1-0.2,1.4-0.5
	c0.4-0.3,0.5-0.7,0.5-1.2c0-0.6-0.2-1-0.6-1.3c-0.4-0.2-0.9-0.4-1.6-0.4c-0.1,0-0.1,0-0.2,0c-0.1,0-0.2,0-0.2,0v-1
	c0.1,0,0.2,0,0.3,0c0.1,0,0.2,0,0.3,0c0.4,0,0.8-0.1,1-0.2c0.5-0.2,0.7-0.7,0.7-1.2c0-0.4-0.2-0.8-0.5-1c-0.3-0.2-0.7-0.4-1.1-0.4
	c-0.8,0-1.3,0.2-1.6,0.8c-0.2,0.3-0.2,0.7-0.3,1.2h-1.1c0-0.7,0.1-1.2,0.4-1.7c0.5-0.8,1.3-1.2,2.4-1.2c0.9,0,1.6,0.2,2.1,0.6
	s0.8,1,0.8,1.8c0,0.6-0.1,1-0.4,1.3c-0.2,0.2-0.4,0.4-0.7,0.5c0.5,0.1,0.8,0.4,1.1,0.7c0.3,0.4,0.4,0.8,0.4,1.4
	c0,0.9-0.3,1.5-0.8,2.1c-0.6,0.5-1.4,0.8-2.4,0.8C-5.1,145.3-5.9,145-6.4,144.4z M-13.5,144.4c-0.5-0.6-0.7-1.3-0.7-2.1h1.2
	c0.1,0.6,0.2,1,0.3,1.3c0.3,0.5,0.8,0.7,1.6,0.7c0.6,0,1.1-0.2,1.4-0.5c0.4-0.3,0.5-0.7,0.5-1.2c0-0.6-0.2-1-0.6-1.3
	c-0.4-0.2-0.9-0.4-1.6-0.4c-0.1,0-0.1,0-0.2,0c-0.1,0-0.2,0-0.2,0v-1c0.1,0,0.2,0,0.3,0c0.1,0,0.2,0,0.3,0c0.4,0,0.8-0.1,1-0.2
	c0.5-0.2,0.7-0.7,0.7-1.2c0-0.4-0.2-0.8-0.5-1c-0.3-0.2-0.7-0.4-1.1-0.4c-0.8,0-1.3,0.2-1.6,0.8c-0.2,0.3-0.2,0.7-0.3,1.2H-14
	c0-0.7,0.1-1.2,0.4-1.7c0.5-0.8,1.3-1.2,2.4-1.2c0.9,0,1.6,0.2,2.1,0.6s0.8,1,0.8,1.8c0,0.6-0.1,1-0.4,1.3c-0.2,0.2-0.4,0.4-0.7,0.5
	c0.5,0.1,0.8,0.4,1.1,0.7c0.3,0.4,0.4,0.8,0.4,1.4c0,0.9-0.3,1.5-0.8,2.1c-0.6,0.5-1.4,0.8-2.4,0.8C-12.2,145.3-13,145-13.5,144.4z"
	/>
<path fill="#FC8D62" d="M71.4,10.9c0,0.4,0.1,0.7,0.3,0.9c0.3,0.4,0.8,0.5,1.5,0.5c0.4,0,0.8-0.1,1.1-0.3c0.3-0.2,0.5-0.5,0.5-0.8
	c0-0.3-0.1-0.5-0.4-0.7c-0.2-0.1-0.5-0.2-1-0.3L72.5,10c-0.6-0.1-1-0.3-1.3-0.5c-0.5-0.3-0.7-0.7-0.7-1.3c0-0.6,0.2-1.1,0.7-1.5
	c0.5-0.4,1.1-0.6,1.8-0.6c1,0,1.7,0.3,2.2,0.9c0.3,0.4,0.4,0.8,0.4,1.2h-1.1c0-0.3-0.1-0.5-0.3-0.7c-0.3-0.3-0.7-0.4-1.3-0.4
	c-0.4,0-0.8,0.1-1,0.2c-0.2,0.2-0.3,0.4-0.3,0.6c0,0.3,0.1,0.5,0.4,0.7c0.2,0.1,0.4,0.2,0.7,0.3l0.7,0.2c0.8,0.2,1.4,0.4,1.6,0.6
	c0.4,0.3,0.7,0.7,0.7,1.4c0,0.6-0.2,1.1-0.7,1.5c-0.4,0.4-1.1,0.7-2.1,0.7c-1,0-1.7-0.2-2.1-0.7c-0.4-0.5-0.6-1-0.7-1.7H71.4z
	 M64.3,3.8h1.1v5.3l2.9-2.8h1.4l-2.6,2.5l2.7,4.2h-1.4l-2.1-3.4l-0.9,0.9V13h-1.1V3.8z M62.3,6.6c0.5,0.4,0.8,1,0.9,1.9h-1.1
	c-0.1-0.4-0.2-0.8-0.5-1c-0.2-0.3-0.6-0.4-1.1-0.4c-0.7,0-1.2,0.4-1.5,1.1c-0.2,0.5-0.3,1-0.3,1.7c0,0.7,0.1,1.2,0.4,1.7
	c0.3,0.5,0.7,0.7,1.3,0.7c0.5,0,0.8-0.1,1.1-0.4c0.3-0.3,0.5-0.7,0.6-1.2h1.1c-0.1,0.9-0.4,1.5-0.9,1.9c-0.5,0.4-1.1,0.6-1.9,0.6
	c-0.9,0-1.6-0.3-2.1-1c-0.5-0.6-0.8-1.4-0.8-2.4c0-1.2,0.3-2.1,0.9-2.7c0.6-0.7,1.3-1,2.2-1C61.3,6.1,61.9,6.3,62.3,6.6z M55.7,6.9
	c0.6,0.6,0.9,1.4,0.9,2.5c0,1.1-0.3,2-0.8,2.7c-0.5,0.7-1.3,1.1-2.4,1.1c-0.9,0-1.7-0.3-2.2-0.9c-0.5-0.6-0.8-1.5-0.8-2.5
	c0-1.1,0.3-2,0.9-2.7c0.6-0.7,1.3-1,2.3-1C54.4,6.1,55.1,6.4,55.7,6.9z M55,11.4c0.3-0.6,0.4-1.2,0.4-1.9c0-0.6-0.1-1.1-0.3-1.5
	c-0.3-0.6-0.9-0.9-1.6-0.9c-0.7,0-1.2,0.3-1.5,0.8c-0.3,0.5-0.5,1.2-0.5,1.9c0,0.7,0.2,1.3,0.5,1.8c0.3,0.5,0.8,0.7,1.5,0.7
	C54.2,12.2,54.7,12,55,11.4z M48,3.8h1.1V13H48V3.8z M45,11.5c0.3-0.5,0.5-1.1,0.5-1.9c0-0.7-0.1-1.3-0.5-1.8
	c-0.3-0.5-0.7-0.7-1.3-0.7c-0.5,0-1,0.2-1.3,0.6c-0.4,0.4-0.6,1-0.6,1.9c0,0.6,0.1,1.1,0.2,1.5c0.3,0.7,0.8,1.1,1.7,1.1
	C44.3,12.2,44.7,11.9,45,11.5z M40.8,3.8h1.1v3.3c0.2-0.3,0.5-0.6,0.9-0.7c0.3-0.2,0.7-0.2,1.1-0.2c0.8,0,1.5,0.3,2,0.9
	c0.5,0.6,0.8,1.4,0.8,2.5c0,1.1-0.3,1.9-0.8,2.6c-0.5,0.7-1.2,1-2.1,1c-0.5,0-0.9-0.1-1.3-0.4c-0.2-0.1-0.4-0.4-0.7-0.7V13h-1V3.8z
	 M30.9,3.8h1.1v5.3l2.9-2.8h1.4l-2.6,2.5l2.7,4.2H35l-2.1-3.4l-0.9,0.9V13h-1.1V3.8z M27.8,11.4c0.3-0.5,0.5-1.5,0.5-2.9
	c0-1-0.1-1.9-0.4-2.5s-0.7-1-1.5-1C25.8,5,25.3,5.3,25,6c-0.3,0.6-0.5,1.5-0.5,2.8c0,0.9,0.1,1.6,0.3,2.2c0.3,0.8,0.8,1.3,1.5,1.3
	C27,12.2,27.4,11.9,27.8,11.4z M28.9,5.4c0.4,0.7,0.6,1.8,0.6,3c0,1.2-0.2,2.2-0.5,3c-0.5,1.1-1.4,1.7-2.6,1.7
	c-1.1,0-1.9-0.5-2.4-1.4c-0.4-0.8-0.7-1.8-0.7-3.1c0-1,0.1-1.9,0.4-2.6c0.5-1.4,1.4-2,2.7-2C27.6,4,28.4,4.5,28.9,5.4z M16.7,11
	c0.3-0.6,0.8-1.1,1.6-1.6l1.2-0.7c0.5-0.3,0.9-0.6,1.1-0.8c0.3-0.3,0.5-0.7,0.5-1.2c0-0.5-0.2-0.9-0.5-1.2C20.4,5.2,20,5,19.4,5
	c-0.8,0-1.3,0.3-1.6,0.9c-0.2,0.3-0.2,0.7-0.3,1.3h-1.1c0-0.8,0.2-1.4,0.4-1.9C17.4,4.4,18.2,4,19.5,4c1,0,1.8,0.3,2.2,0.8
	c0.5,0.6,0.7,1.2,0.7,1.8c0,0.7-0.2,1.3-0.8,1.8c-0.3,0.3-0.8,0.7-1.6,1.1l-0.9,0.5c-0.4,0.2-0.7,0.4-1,0.6
	c-0.4,0.4-0.7,0.8-0.8,1.2h4.9V13h-6.1C16.3,12.2,16.4,11.5,16.7,11z M9.6,11c0.3-0.6,0.8-1.1,1.6-1.6l1.2-0.7
	c0.5-0.3,0.9-0.6,1.1-0.8C13.9,7.6,14,7.2,14,6.7c0-0.5-0.2-0.9-0.5-1.2C13.3,5.2,12.8,5,12.3,5c-0.8,0-1.3,0.3-1.6,0.9
	c-0.2,0.3-0.2,0.7-0.3,1.3H9.3c0-0.8,0.2-1.4,0.4-1.9C10.2,4.4,11.1,4,12.3,4c1,0,1.8,0.3,2.2,0.8c0.5,0.6,0.7,1.2,0.7,1.8
	c0,0.7-0.2,1.3-0.8,1.8c-0.3,0.3-0.8,0.7-1.6,1.1l-0.9,0.5c-0.4,0.2-0.7,0.4-1,0.6c-0.4,0.4-0.7,0.8-0.8,1.2h4.9V13H9.1
	C9.1,12.2,9.3,11.5,9.6,11z"/>
<path fill="#8DA0CB" d="M247.9,19.8c0,0.4,0.1,0.7,0.3,0.9c0.3,0.4,0.8,0.5,1.5,0.5c0.4,0,0.8-0.1,1.1-0.3c0.3-0.2,0.5-0.5,0.5-0.8
	c0-0.3-0.1-0.5-0.4-0.7c-0.2-0.1-0.5-0.2-1-0.3l-0.9-0.2c-0.6-0.1-1-0.3-1.3-0.5c-0.5-0.3-0.7-0.7-0.7-1.3c0-0.6,0.2-1.1,0.7-1.5
	c0.5-0.4,1.1-0.6,1.8-0.6c1,0,1.7,0.3,2.2,0.9c0.3,0.4,0.4,0.8,0.4,1.2h-1.1c0-0.3-0.1-0.5-0.3-0.7c-0.3-0.3-0.7-0.4-1.3-0.4
	c-0.4,0-0.8,0.1-1,0.2c-0.2,0.2-0.3,0.4-0.3,0.6c0,0.3,0.1,0.5,0.4,0.7c0.2,0.1,0.4,0.2,0.7,0.3l0.7,0.2c0.8,0.2,1.4,0.4,1.6,0.6
	c0.4,0.3,0.7,0.7,0.7,1.4c0,0.6-0.2,1.1-0.7,1.5c-0.4,0.4-1.1,0.7-2.1,0.7c-1,0-1.7-0.2-2.1-0.7c-0.4-0.5-0.6-1-0.7-1.7H247.9z
	 M240.8,12.7h1.1V18l2.9-2.8h1.4l-2.6,2.5l2.7,4.2h-1.4l-2.1-3.4l-0.9,0.9v2.5h-1.1V12.7z M238.9,15.5c0.5,0.4,0.8,1,0.9,1.9h-1.1
	c-0.1-0.4-0.2-0.8-0.5-1c-0.2-0.3-0.6-0.4-1.1-0.4c-0.7,0-1.2,0.4-1.5,1.1c-0.2,0.5-0.3,1-0.3,1.7s0.1,1.2,0.4,1.7
	c0.3,0.5,0.7,0.7,1.3,0.7c0.5,0,0.8-0.1,1.1-0.4c0.3-0.3,0.5-0.7,0.6-1.2h1.1c-0.1,0.9-0.4,1.5-0.9,1.9c-0.5,0.4-1.1,0.6-1.9,0.6
	c-0.9,0-1.6-0.3-2.1-1c-0.5-0.6-0.8-1.4-0.8-2.4c0-1.2,0.3-2.1,0.9-2.7c0.6-0.7,1.3-1,2.2-1C237.8,15,238.4,15.2,238.9,15.5z
	 M232.2,15.8c0.6,0.6,0.9,1.4,0.9,2.5c0,1.1-0.3,2-0.8,2.7c-0.5,0.7-1.3,1.1-2.4,1.1c-0.9,0-1.7-0.3-2.2-0.9
	c-0.5-0.6-0.8-1.5-0.8-2.5c0-1.1,0.3-2,0.9-2.7c0.6-0.7,1.3-1,2.3-1C230.9,15,231.6,15.3,232.2,15.8z M231.5,20.3
	c0.3-0.6,0.4-1.2,0.4-1.9c0-0.6-0.1-1.1-0.3-1.5c-0.3-0.6-0.9-0.9-1.6-0.9c-0.7,0-1.2,0.3-1.5,0.8c-0.3,0.5-0.5,1.2-0.5,1.9
	c0,0.7,0.2,1.3,0.5,1.8c0.3,0.5,0.8,0.7,1.5,0.7C230.7,21.1,231.2,20.9,231.5,20.3z M224.5,12.7h1.1v9.2h-1.1V12.7z M221.6,20.4
	c0.3-0.5,0.5-1.1,0.5-1.9c0-0.7-0.1-1.3-0.5-1.8c-0.3-0.5-0.7-0.7-1.3-0.7c-0.5,0-1,0.2-1.3,0.6c-0.4,0.4-0.6,1-0.6,1.9
	c0,0.6,0.1,1.1,0.2,1.5c0.3,0.7,0.8,1.1,1.7,1.1C220.8,21.1,221.3,20.8,221.6,20.4z M217.3,12.6h1.1V16c0.2-0.3,0.5-0.6,0.9-0.7
	c0.3-0.2,0.7-0.2,1.1-0.2c0.8,0,1.5,0.3,2,0.9c0.5,0.6,0.8,1.4,0.8,2.5c0,1.1-0.3,1.9-0.8,2.6c-0.5,0.7-1.2,1-2.1,1
	c-0.5,0-0.9-0.1-1.3-0.4c-0.2-0.1-0.4-0.4-0.7-0.7v0.9h-1V12.6z M203.1,15.2h1.1v1c0.3-0.3,0.5-0.6,0.7-0.7c0.4-0.3,0.8-0.4,1.3-0.4
	c0.5,0,1,0.1,1.3,0.4c0.2,0.1,0.4,0.4,0.5,0.7c0.2-0.4,0.5-0.6,0.9-0.8c0.3-0.2,0.7-0.3,1.1-0.3c0.9,0,1.5,0.3,1.8,1
	c0.2,0.3,0.3,0.8,0.3,1.4v4.5H211v-4.6c0-0.4-0.1-0.8-0.3-0.9c-0.2-0.2-0.5-0.2-0.8-0.2c-0.4,0-0.8,0.1-1.1,0.4
	c-0.3,0.3-0.5,0.8-0.5,1.5v3.9h-1.1v-4.4c0-0.5-0.1-0.8-0.2-1c-0.2-0.3-0.5-0.5-1-0.5c-0.4,0-0.8,0.2-1.2,0.5
	c-0.3,0.3-0.5,0.9-0.5,1.8v3.6h-1.1V15.2z M196.8,19.6c0.1,0.6,0.4,1.1,0.9,1.3c0.3,0.1,0.6,0.2,0.9,0.2c0.7,0,1.2-0.2,1.5-0.6
	c0.3-0.4,0.5-0.9,0.5-1.4c0-0.6-0.2-1.1-0.6-1.4c-0.4-0.3-0.8-0.5-1.4-0.5c-0.4,0-0.7,0.1-1,0.2c-0.3,0.2-0.5,0.4-0.7,0.6l-1-0.1
	l0.7-4.8h4.7v1.1h-3.8l-0.4,2.5c0.2-0.2,0.4-0.3,0.6-0.4c0.3-0.1,0.7-0.2,1.2-0.2c0.8,0,1.5,0.3,2.1,0.8c0.6,0.5,0.9,1.2,0.9,2
	c0,0.8-0.3,1.6-0.8,2.2c-0.5,0.6-1.4,1-2.5,1c-0.7,0-1.4-0.2-1.9-0.6c-0.6-0.4-0.9-1-0.9-1.9H196.8z M192.7,20.5h1.3v1.4h-1.3V20.5z
	 M185.8,15.5v-0.9c0.8-0.1,1.4-0.2,1.7-0.4c0.3-0.2,0.6-0.6,0.7-1.3h0.9v8.9h-1.2v-6.3H185.8z"/>
<g>
	<defs>
		<rect id="SVGID_1_" x="-27.5" y="-24.3" width="282" height="192"/>
	</defs>
	<clipPath id="SVGID_2_">
		<use xlink:href="#SVGID_1_"  overflow="visible"/>
	</clipPath>
	
		<polyline clip-path="url(#SVGID_2_)" fill="none" stroke="#808080" stroke-width="0.5" stroke-miterlimit="10" stroke-dasharray="5,5" points="
		-26.5,166.8 -23.2,110.2 -18.8,34.7 -10,-116.3 7.6,-418.4 42.7,-1022.5 7.6,-418.4 113,-2230.7 253.5,-4647.2 	"/>
	<path clip-path="url(#SVGID_2_)" fill="#808080" d="M11.6-20.1h1.1v9.2h-1.1V-20.1z M8.1-15c0.3,0,0.4-0.1,0.5-0.3
		c0.1-0.1,0.1-0.2,0.1-0.4c0-0.4-0.1-0.7-0.4-0.8c-0.3-0.2-0.7-0.3-1.2-0.3c-0.6,0-1,0.2-1.2,0.5c-0.1,0.2-0.2,0.4-0.3,0.8H4.5
		c0-0.8,0.3-1.4,0.8-1.7c0.5-0.3,1.1-0.5,1.8-0.5c0.8,0,1.4,0.1,1.9,0.4c0.5,0.3,0.7,0.8,0.7,1.4v3.9c0,0.1,0,0.2,0.1,0.3
		c0,0.1,0.1,0.1,0.3,0.1c0.1,0,0.1,0,0.2,0c0.1,0,0.1,0,0.2,0v0.8c-0.2,0.1-0.3,0.1-0.4,0.1c-0.1,0-0.2,0-0.4,0
		c-0.4,0-0.7-0.1-0.8-0.4c-0.1-0.1-0.2-0.4-0.2-0.6c-0.2,0.3-0.6,0.6-1,0.8c-0.4,0.2-0.9,0.3-1.4,0.3c-0.6,0-1.1-0.2-1.5-0.6
		c-0.4-0.4-0.6-0.9-0.6-1.4c0-0.6,0.2-1.1,0.6-1.4c0.4-0.3,0.9-0.6,1.5-0.6L8.1-15z M5.7-11.9c0.2,0.2,0.5,0.3,0.8,0.3
		c0.4,0,0.8-0.1,1.2-0.3c0.6-0.3,0.9-0.8,0.9-1.5v-0.9c-0.1,0.1-0.3,0.2-0.5,0.2C7.9-14.1,7.7-14,7.5-14l-0.7,0.1
		c-0.4,0.1-0.7,0.1-0.9,0.3c-0.3,0.2-0.5,0.5-0.5,0.9C5.4-12.4,5.5-12.1,5.7-11.9z M2-14.8c0-0.5-0.2-0.9-0.3-1.2
		c-0.3-0.5-0.8-0.8-1.5-0.8c-0.5,0-0.9,0.2-1.3,0.6c-0.3,0.4-0.5,0.8-0.6,1.4H2z M1.5-17.4c0.4,0.2,0.8,0.5,1,0.9
		c0.2,0.3,0.4,0.7,0.4,1.2c0.1,0.3,0.1,0.8,0.1,1.5h-4.9c0,0.7,0.2,1.2,0.5,1.6c0.3,0.4,0.8,0.6,1.4,0.6c0.6,0,1.1-0.2,1.4-0.6
		c0.2-0.2,0.3-0.5,0.4-0.8H3c0,0.2-0.1,0.5-0.3,0.8c-0.2,0.3-0.4,0.5-0.6,0.7c-0.3,0.3-0.8,0.6-1.3,0.7c-0.3,0.1-0.6,0.1-0.9,0.1
		c-0.8,0-1.5-0.3-2.1-0.9C-2.7-12.2-3-13.1-3-14.1c0-1.1,0.3-1.9,0.9-2.6c0.6-0.7,1.3-1,2.3-1C0.6-17.8,1.1-17.7,1.5-17.4z M-6-17.4
		c0.2,0.1,0.4,0.3,0.7,0.7v-3.4h1.1v9.2h-1v-0.9c-0.3,0.4-0.6,0.7-0.9,0.9c-0.4,0.2-0.8,0.3-1.2,0.3c-0.7,0-1.4-0.3-1.9-0.9
		c-0.5-0.6-0.8-1.5-0.8-2.5c0-1,0.2-1.8,0.7-2.5c0.5-0.7,1.2-1.1,2.1-1.1C-6.8-17.7-6.4-17.6-6-17.4z M-8.6-12.4
		c0.3,0.5,0.8,0.7,1.5,0.7c0.5,0,0.9-0.2,1.3-0.7c0.3-0.4,0.5-1.1,0.5-1.9c0-0.8-0.2-1.5-0.5-1.9c-0.3-0.4-0.8-0.6-1.3-0.6
		c-0.6,0-1,0.2-1.4,0.7C-8.9-15.7-9-15-9-14.2C-9-13.5-8.9-12.9-8.6-12.4z M-12.9-20.1h1.3v9.2h-1.3V-20.1z"/>
</g>
<line fill="none" stroke="#292724" stroke-miterlimit="10" x1="-26.5" y1="195.7" x2="253.5" y2="195.7"/>
<line fill="none" stroke="#292724" stroke-miterlimit="10" x1="-26.5" y1="195.7" x2="-26.5" y2="190.7"/>
<line fill="none" stroke="#292724" stroke-miterlimit="10" x1="42.7" y1="195.7" x2="42.7" y2="190.7"/>
<line fill="none" stroke="#292724" stroke-miterlimit="10" x1="113" y1="195.7" x2="113" y2="190.7"/>
<line fill="none" stroke="#292724" stroke-miterlimit="10" x1="253.5" y1="195.7" x2="253.5" y2="190.7"/>
<path fill="#292724" d="M-22.6,202.1c-0.3-0.3-0.4-0.6-0.4-1.1c0-0.6,0.2-1,0.6-1.4c0.4-0.4,1-0.6,1.7-0.6c0.7,0,1.3,0.2,1.7,0.6
	c0.4,0.4,0.6,0.8,0.6,1.3c0,0.5-0.1,0.8-0.4,1.1c-0.1,0.2-0.3,0.3-0.6,0.5c0.3,0.1,0.6,0.3,0.7,0.5c0.3,0.3,0.5,0.8,0.5,1.4
	c0,0.7-0.2,1.2-0.7,1.7c-0.4,0.5-1.1,0.7-1.9,0.7c-0.7,0-1.3-0.2-1.8-0.6c-0.5-0.4-0.8-1-0.8-1.7c0-0.4,0.1-0.8,0.3-1.1
	c0.2-0.3,0.5-0.6,1-0.7C-22.2,202.3-22.4,202.2-22.6,202.1z M-19.6,205.4c0.3-0.2,0.4-0.6,0.4-1.1c0-0.5-0.1-0.8-0.4-1.1
	c-0.3-0.2-0.7-0.4-1.1-0.4c-0.4,0-0.8,0.1-1.1,0.4c-0.3,0.3-0.4,0.6-0.4,1.1c0,0.4,0.1,0.7,0.4,1c0.3,0.3,0.7,0.4,1.2,0.4
	C-20.2,205.8-19.9,205.7-19.6,205.4z M-19.7,201.8c0.2-0.2,0.3-0.5,0.3-0.8c0-0.3-0.1-0.5-0.3-0.8c-0.2-0.2-0.6-0.4-1-0.4
	c-0.5,0-0.8,0.1-1,0.4c-0.2,0.2-0.3,0.5-0.3,0.8c0,0.4,0.1,0.6,0.4,0.8c0.3,0.2,0.6,0.3,0.9,0.3C-20.3,202.1-20,202-19.7,201.8z
	 M-28.8,204.8c0.2-0.5,0.7-0.9,1.4-1.3l1-0.6c0.4-0.3,0.8-0.5,0.9-0.7c0.3-0.3,0.4-0.6,0.4-1c0-0.4-0.1-0.8-0.4-1
	c-0.3-0.3-0.6-0.4-1-0.4c-0.6,0-1.1,0.2-1.3,0.7c-0.1,0.3-0.2,0.6-0.2,1.1h-1c0-0.6,0.1-1.2,0.4-1.6c0.4-0.7,1.1-1.1,2.2-1.1
	c0.9,0,1.5,0.2,1.9,0.7c0.4,0.5,0.6,1,0.6,1.5c0,0.6-0.2,1.1-0.6,1.5c-0.2,0.2-0.7,0.5-1.3,0.9l-0.7,0.4c-0.3,0.2-0.6,0.4-0.8,0.5
	c-0.3,0.3-0.6,0.6-0.7,1h4.1v0.9h-5.1C-29.2,205.8-29,205.2-28.8,204.8z M-34.5,201.2v-0.7c0.7-0.1,1.2-0.2,1.4-0.3
	c0.3-0.2,0.5-0.5,0.6-1.1h0.7v7.4h-1v-5.3H-34.5z"/>
<path fill="#292724" d="M49.2,204.8c0.2-0.5,0.7-0.9,1.4-1.3l1-0.6c0.4-0.3,0.8-0.5,0.9-0.7c0.3-0.3,0.4-0.6,0.4-1
	c0-0.4-0.1-0.8-0.4-1c-0.3-0.3-0.6-0.4-1-0.4c-0.6,0-1.1,0.2-1.3,0.7c-0.1,0.3-0.2,0.6-0.2,1.1h-1c0-0.6,0.1-1.2,0.4-1.6
	c0.4-0.7,1.1-1.1,2.2-1.1c0.9,0,1.5,0.2,1.9,0.7c0.4,0.5,0.6,1,0.6,1.5c0,0.6-0.2,1.1-0.6,1.5c-0.2,0.2-0.7,0.5-1.3,0.9l-0.7,0.4
	c-0.3,0.2-0.6,0.4-0.8,0.5c-0.3,0.3-0.6,0.6-0.7,1H54v0.9h-5.1C48.9,205.8,49,205.2,49.2,204.8z M46.4,202.7
	c0.3-0.2,0.5-0.7,0.5-1.3c0-0.5-0.1-1-0.4-1.2c-0.3-0.3-0.6-0.4-1.1-0.4c-0.5,0-0.8,0.2-1.1,0.5c-0.3,0.3-0.4,0.7-0.4,1.2
	c0,0.5,0.1,0.9,0.4,1.2c0.2,0.3,0.6,0.4,1.1,0.4C45.8,203.1,46.1,203,46.4,202.7z M44,204.6c0,0.5,0.2,0.9,0.6,1.1
	c0.2,0.1,0.4,0.2,0.6,0.2c0.4,0,0.8-0.2,1.1-0.6c0.3-0.4,0.5-1.1,0.7-2.3c-0.2,0.3-0.5,0.6-0.8,0.7c-0.3,0.1-0.6,0.2-1,0.2
	c-0.7,0-1.3-0.2-1.7-0.7c-0.4-0.4-0.6-1-0.6-1.7c0-0.7,0.2-1.3,0.6-1.8c0.4-0.5,1-0.8,1.8-0.8c1.1,0,1.8,0.5,2.2,1.5
	c0.2,0.5,0.3,1.2,0.3,2c0,0.9-0.1,1.7-0.4,2.4c-0.5,1.2-1.2,1.8-2.3,1.8c-0.7,0-1.3-0.2-1.7-0.6c-0.4-0.4-0.6-0.9-0.6-1.4H44z
	 M37.7,201.2v-0.7c0.7-0.1,1.2-0.2,1.4-0.3c0.3-0.2,0.5-0.5,0.6-1.1h0.7v7.4h-1v-5.3H37.7z M31.7,202.1c-0.3-0.3-0.4-0.6-0.4-1.1
	c0-0.6,0.2-1,0.6-1.4c0.4-0.4,1-0.6,1.7-0.6c0.7,0,1.3,0.2,1.7,0.6c0.4,0.4,0.6,0.8,0.6,1.3c0,0.5-0.1,0.8-0.4,1.1
	c-0.1,0.2-0.3,0.3-0.6,0.5c0.3,0.1,0.6,0.3,0.7,0.5c0.3,0.3,0.5,0.8,0.5,1.4c0,0.7-0.2,1.2-0.7,1.7c-0.4,0.5-1.1,0.7-1.9,0.7
	c-0.7,0-1.3-0.2-1.8-0.6c-0.5-0.4-0.8-1-0.8-1.7c0-0.4,0.1-0.8,0.3-1.1c0.2-0.3,0.5-0.6,1-0.7C32.1,202.3,31.9,202.2,31.7,202.1z
	 M34.7,205.4c0.3-0.2,0.4-0.6,0.4-1.1c0-0.5-0.1-0.8-0.4-1.1c-0.3-0.2-0.7-0.4-1.1-0.4c-0.4,0-0.8,0.1-1.1,0.4
	c-0.3,0.3-0.4,0.6-0.4,1.1c0,0.4,0.1,0.7,0.4,1c0.3,0.3,0.7,0.4,1.2,0.4C34.1,205.8,34.5,205.7,34.7,205.4z M34.6,201.8
	c0.2-0.2,0.3-0.5,0.3-0.8c0-0.3-0.1-0.5-0.3-0.8c-0.2-0.2-0.6-0.4-1-0.4c-0.5,0-0.8,0.1-1,0.4c-0.2,0.2-0.3,0.5-0.3,0.8
	c0,0.4,0.1,0.6,0.4,0.8c0.3,0.2,0.6,0.3,0.9,0.3C34,202.1,34.3,202,34.6,201.8z"/>
<path fill="#292724" d="M125.3,206.4v-1.8H122v-0.9l3.4-4.7h0.8v4.8h1.1v0.8h-1.1v1.8H125.3z M125.2,203.8v-3.4l-2.4,3.4H125.2z
	 M116.8,202.1c-0.3-0.3-0.4-0.6-0.4-1.1c0-0.6,0.2-1,0.6-1.4c0.4-0.4,1-0.6,1.7-0.6c0.7,0,1.3,0.2,1.7,0.6c0.4,0.4,0.6,0.8,0.6,1.3
	c0,0.5-0.1,0.8-0.4,1.1c-0.1,0.2-0.3,0.3-0.6,0.5c0.3,0.1,0.6,0.3,0.7,0.5c0.3,0.3,0.5,0.8,0.5,1.4c0,0.7-0.2,1.2-0.7,1.7
	c-0.4,0.5-1.1,0.7-1.9,0.7c-0.7,0-1.3-0.2-1.8-0.6c-0.5-0.4-0.8-1-0.8-1.7c0-0.4,0.1-0.8,0.3-1.1c0.2-0.3,0.5-0.6,1-0.7
	C117.1,202.3,116.9,202.2,116.8,202.1z M119.8,205.4c0.3-0.2,0.4-0.6,0.4-1.1c0-0.5-0.1-0.8-0.4-1.1c-0.3-0.2-0.7-0.4-1.1-0.4
	c-0.4,0-0.8,0.1-1.1,0.4c-0.3,0.3-0.4,0.6-0.4,1.1c0,0.4,0.1,0.7,0.4,1c0.3,0.3,0.7,0.4,1.2,0.4
	C119.2,205.8,119.5,205.7,119.8,205.4z M119.6,201.8c0.2-0.2,0.3-0.5,0.3-0.8c0-0.3-0.1-0.5-0.3-0.8c-0.2-0.2-0.6-0.4-1-0.4
	s-0.8,0.1-1,0.4c-0.2,0.2-0.3,0.5-0.3,0.8c0,0.4,0.1,0.6,0.4,0.8c0.3,0.2,0.6,0.3,0.9,0.3C119.1,202.1,119.4,202,119.6,201.8z
	 M110.7,205.9c-0.4-0.5-0.6-1.1-0.6-1.8h1c0,0.5,0.1,0.8,0.3,1.1c0.2,0.4,0.7,0.6,1.3,0.6c0.5,0,0.9-0.1,1.2-0.4
	c0.3-0.3,0.4-0.6,0.4-1c0-0.5-0.2-0.9-0.5-1.1c-0.3-0.2-0.8-0.3-1.3-0.3c-0.1,0-0.1,0-0.2,0c-0.1,0-0.1,0-0.2,0v-0.8
	c0.1,0,0.2,0,0.2,0c0.1,0,0.1,0,0.2,0c0.4,0,0.6-0.1,0.9-0.2c0.4-0.2,0.6-0.5,0.6-1c0-0.4-0.1-0.7-0.4-0.9s-0.6-0.3-0.9-0.3
	c-0.6,0-1.1,0.2-1.3,0.6c-0.1,0.2-0.2,0.6-0.2,1h-0.9c0-0.6,0.1-1,0.3-1.4c0.4-0.7,1.1-1,2-1c0.8,0,1.3,0.2,1.8,0.5
	c0.4,0.3,0.6,0.8,0.6,1.5c0,0.5-0.1,0.8-0.4,1.1c-0.2,0.2-0.4,0.3-0.6,0.4c0.4,0.1,0.7,0.3,0.9,0.6c0.2,0.3,0.3,0.7,0.3,1.1
	c0,0.7-0.2,1.3-0.7,1.7c-0.5,0.4-1.1,0.7-2,0.7C111.7,206.6,111.1,206.4,110.7,205.9z M108.1,205.3c0.2-0.3,0.4-0.7,0.4-1.2
	c0-0.4-0.1-0.7-0.3-1.1c-0.2-0.3-0.6-0.5-1.2-0.5c-0.4,0-0.8,0.1-1.1,0.4c-0.3,0.3-0.5,0.7-0.5,1.2c0,0.5,0.1,0.9,0.4,1.2
	c0.3,0.3,0.7,0.5,1.1,0.5C107.5,205.8,107.8,205.6,108.1,205.3z M108.8,199.6c0.3,0.4,0.5,0.9,0.5,1.3h-0.9
	c-0.1-0.3-0.1-0.5-0.3-0.7c-0.2-0.3-0.6-0.5-1-0.5c-0.5,0-0.9,0.2-1.2,0.7c-0.3,0.5-0.5,1.2-0.5,2.1c0.2-0.3,0.5-0.6,0.8-0.7
	c0.3-0.1,0.6-0.2,1-0.2c0.6,0,1.2,0.2,1.6,0.6c0.5,0.4,0.7,1,0.7,1.8c0,0.7-0.2,1.3-0.7,1.8c-0.4,0.5-1.1,0.8-1.9,0.8
	c-0.7,0-1.3-0.3-1.8-0.8c-0.5-0.5-0.8-1.4-0.8-2.7c0-0.9,0.1-1.7,0.3-2.4c0.4-1.2,1.2-1.9,2.4-1.9
	C107.9,198.9,108.4,199.2,108.8,199.6z M99,201.2v-0.7c0.7-0.1,1.2-0.2,1.4-0.3c0.3-0.2,0.5-0.5,0.6-1.1h0.7v7.4h-1v-5.3H99z"/>
<path fill="#292724" d="M263.3,202.1c-0.3-0.3-0.4-0.6-0.4-1.1c0-0.6,0.2-1,0.6-1.4c0.4-0.4,1-0.6,1.7-0.6c0.7,0,1.3,0.2,1.7,0.6
	c0.4,0.4,0.6,0.8,0.6,1.3c0,0.5-0.1,0.8-0.4,1.1c-0.1,0.2-0.3,0.3-0.6,0.5c0.3,0.1,0.6,0.3,0.7,0.5c0.3,0.3,0.5,0.8,0.5,1.4
	c0,0.7-0.2,1.2-0.7,1.7s-1.1,0.7-1.9,0.7c-0.7,0-1.3-0.2-1.8-0.6c-0.5-0.4-0.8-1-0.8-1.7c0-0.4,0.1-0.8,0.3-1.1
	c0.2-0.3,0.5-0.6,1-0.7C263.6,202.3,263.4,202.2,263.3,202.1z M266.3,205.4c0.3-0.2,0.4-0.6,0.4-1.1c0-0.5-0.1-0.8-0.4-1.1
	c-0.3-0.2-0.7-0.4-1.1-0.4c-0.4,0-0.8,0.1-1.1,0.4c-0.3,0.3-0.4,0.6-0.4,1.1c0,0.4,0.1,0.7,0.4,1c0.3,0.3,0.7,0.4,1.2,0.4
	C265.6,205.8,266,205.7,266.3,205.4z M266.1,201.8c0.2-0.2,0.3-0.5,0.3-0.8c0-0.3-0.1-0.5-0.3-0.8c-0.2-0.2-0.6-0.4-1-0.4
	c-0.5,0-0.8,0.1-1,0.4c-0.2,0.2-0.3,0.5-0.3,0.8c0,0.4,0.1,0.6,0.4,0.8c0.3,0.2,0.6,0.3,0.9,0.3C265.6,202.1,265.9,202,266.1,201.8z
	 M260.5,205.3c0.2-0.3,0.4-0.7,0.4-1.2c0-0.4-0.1-0.7-0.3-1.1c-0.2-0.3-0.6-0.5-1.2-0.5c-0.4,0-0.8,0.1-1.1,0.4
	c-0.3,0.3-0.5,0.7-0.5,1.2c0,0.5,0.1,0.9,0.4,1.2c0.3,0.3,0.7,0.5,1.1,0.5C259.9,205.8,260.2,205.6,260.5,205.3z M261.2,199.6
	c0.3,0.4,0.5,0.9,0.5,1.3h-0.9c-0.1-0.3-0.1-0.5-0.3-0.7c-0.2-0.3-0.6-0.5-1-0.5c-0.5,0-0.9,0.2-1.2,0.7c-0.3,0.5-0.5,1.2-0.5,2.1
	c0.2-0.3,0.5-0.6,0.8-0.7c0.3-0.1,0.6-0.2,1-0.2c0.6,0,1.2,0.2,1.6,0.6c0.5,0.4,0.7,1,0.7,1.8c0,0.7-0.2,1.3-0.7,1.8
	c-0.4,0.5-1.1,0.8-1.9,0.8c-0.7,0-1.3-0.3-1.8-0.8c-0.5-0.5-0.8-1.4-0.8-2.7c0-0.9,0.1-1.7,0.3-2.4c0.4-1.2,1.2-1.9,2.4-1.9
	C260.3,198.9,260.9,199.2,261.2,199.6z M256,199.1v0.8c-0.2,0.2-0.6,0.6-1,1.2c-0.4,0.6-0.7,1.2-1.1,1.9c-0.3,0.6-0.5,1.2-0.7,1.8
	c-0.1,0.3-0.2,0.9-0.4,1.7h-1c0.2-1.4,0.8-2.8,1.6-4.2c0.5-0.8,1-1.5,1.5-2.1h-4.1v-0.9H256z M245.2,204.8c0.2-0.5,0.7-0.9,1.4-1.3
	l1-0.6c0.4-0.3,0.8-0.5,0.9-0.7c0.3-0.3,0.4-0.6,0.4-1c0-0.4-0.1-0.8-0.4-1s-0.6-0.4-1-0.4c-0.6,0-1.1,0.2-1.3,0.7
	c-0.1,0.3-0.2,0.6-0.2,1.1h-1c0-0.6,0.1-1.2,0.4-1.6c0.4-0.7,1.1-1.1,2.2-1.1c0.9,0,1.5,0.2,1.9,0.7c0.4,0.5,0.6,1,0.6,1.5
	c0,0.6-0.2,1.1-0.6,1.5c-0.2,0.2-0.7,0.5-1.3,0.9l-0.7,0.4c-0.3,0.2-0.6,0.4-0.8,0.5c-0.3,0.3-0.6,0.6-0.7,1h4.1v0.9h-5.1
	C244.8,205.8,245,205.2,245.2,204.8z M239.4,205.9c-0.4-0.5-0.6-1.1-0.6-1.8h1c0,0.5,0.1,0.8,0.3,1.1c0.2,0.4,0.7,0.6,1.3,0.6
	c0.5,0,0.9-0.1,1.2-0.4c0.3-0.3,0.4-0.6,0.4-1c0-0.5-0.2-0.9-0.5-1.1c-0.3-0.2-0.8-0.3-1.3-0.3c-0.1,0-0.1,0-0.2,0
	c-0.1,0-0.1,0-0.2,0v-0.8c0.1,0,0.2,0,0.2,0c0.1,0,0.1,0,0.2,0c0.4,0,0.6-0.1,0.9-0.2c0.4-0.2,0.6-0.5,0.6-1c0-0.4-0.1-0.7-0.4-0.9
	c-0.3-0.2-0.6-0.3-0.9-0.3c-0.6,0-1.1,0.2-1.3,0.6c-0.1,0.2-0.2,0.6-0.2,1H239c0-0.6,0.1-1,0.3-1.4c0.4-0.7,1.1-1,2-1
	c0.8,0,1.3,0.2,1.8,0.5c0.4,0.3,0.6,0.8,0.6,1.5c0,0.5-0.1,0.8-0.4,1.1c-0.2,0.2-0.4,0.3-0.6,0.4c0.4,0.1,0.7,0.3,0.9,0.6
	c0.2,0.3,0.3,0.7,0.3,1.1c0,0.7-0.2,1.3-0.7,1.7c-0.5,0.4-1.1,0.7-2,0.7C240.4,206.6,239.8,206.4,239.4,205.9z"/>
<path fill="#292724" d="M160.5,220.9c0,0.3,0.1,0.5,0.2,0.7c0.2,0.2,0.6,0.4,1.2,0.4c0.4,0,0.6-0.1,0.8-0.2c0.2-0.1,0.3-0.3,0.3-0.5
	c0-0.2-0.1-0.4-0.2-0.5c-0.2-0.1-0.8-0.3-1.9-0.5c-0.8-0.2-1.3-0.4-1.6-0.7c-0.3-0.3-0.5-0.7-0.5-1.2c0-0.6,0.2-1.2,0.7-1.6
	c0.5-0.5,1.2-0.7,2.1-0.7c0.8,0,1.5,0.2,2.1,0.5c0.5,0.3,0.8,0.9,0.9,1.8h-1.8c0-0.2-0.1-0.4-0.2-0.5c-0.2-0.2-0.5-0.4-1-0.4
	c-0.4,0-0.7,0.1-0.8,0.2c-0.2,0.1-0.2,0.3-0.2,0.4c0,0.2,0.1,0.4,0.3,0.4c0.2,0.1,0.8,0.3,1.9,0.5c0.7,0.2,1.2,0.4,1.6,0.8
	c0.4,0.3,0.5,0.8,0.5,1.3c0,0.7-0.3,1.2-0.8,1.7c-0.5,0.4-1.3,0.6-2.3,0.6c-1.1,0-1.9-0.2-2.4-0.7c-0.5-0.5-0.8-1-0.8-1.7H160.5z
	 M156.2,216.4c0.5,0.2,0.8,0.5,1.1,1c0.3,0.4,0.4,0.9,0.5,1.4c0,0.3,0.1,0.8,0.1,1.3h-4.7c0,0.7,0.2,1.2,0.6,1.4
	c0.2,0.2,0.5,0.3,0.9,0.3c0.4,0,0.7-0.1,0.9-0.3c0.1-0.1,0.2-0.3,0.3-0.5h1.8c0,0.4-0.3,0.8-0.6,1.2c-0.6,0.7-1.4,1-2.4,1
	c-0.9,0-1.6-0.3-2.3-0.8c-0.7-0.6-1-1.5-1-2.7c0-1.2,0.3-2.1,0.9-2.7c0.6-0.6,1.4-0.9,2.3-0.9C155.2,216.1,155.7,216.2,156.2,216.4z
	 M153.7,217.9c-0.2,0.3-0.4,0.6-0.4,1.1h2.8c0-0.5-0.2-0.8-0.4-1.1c-0.3-0.2-0.6-0.4-1-0.4C154.2,217.6,153.9,217.7,153.7,217.9z
	 M150.8,216.1c0,0,0.1,0,0.2,0v1.8c-0.1,0-0.2,0-0.3,0c-0.1,0-0.2,0-0.2,0c-0.7,0-1.2,0.2-1.4,0.7c-0.1,0.3-0.2,0.7-0.2,1.2v3.3H147
	v-6.8h1.7v1.2c0.3-0.5,0.5-0.8,0.7-0.9C149.7,216.2,150.1,216.1,150.8,216.1C150.7,216.1,150.7,216.1,150.8,216.1z M144.8,222.2
	c-0.6,0.7-1.4,1.1-2.6,1.1c-1.2,0-2-0.4-2.6-1.1c-0.6-0.7-0.9-1.6-0.9-2.6c0-1,0.3-1.8,0.9-2.6c0.6-0.7,1.4-1.1,2.6-1.1
	c1.2,0,2,0.4,2.6,1.1c0.6,0.7,0.9,1.6,0.9,2.6C145.7,220.7,145.4,221.5,144.8,222.2z M143.4,221.3c0.3-0.4,0.4-0.9,0.4-1.6
	c0-0.7-0.1-1.2-0.4-1.6c-0.3-0.4-0.7-0.6-1.2-0.6c-0.5,0-0.9,0.2-1.2,0.6c-0.3,0.4-0.4,0.9-0.4,1.6c0,0.7,0.1,1.2,0.4,1.6
	c0.3,0.4,0.7,0.6,1.2,0.6C142.7,221.8,143.1,221.6,143.4,221.3z M130.9,214.8c0.8-0.8,1.7-1.1,2.9-1.1c1.6,0,2.7,0.5,3.4,1.5
	c0.4,0.6,0.6,1.1,0.6,1.7h-1.9c-0.1-0.4-0.3-0.8-0.5-1c-0.4-0.4-0.9-0.6-1.6-0.6c-0.7,0-1.2,0.3-1.7,0.8c-0.4,0.6-0.6,1.4-0.6,2.4
	c0,1,0.2,1.8,0.6,2.3c0.4,0.5,1,0.8,1.6,0.8c0.7,0,1.2-0.2,1.5-0.7c0.2-0.2,0.4-0.6,0.5-1.1h1.9c-0.2,1-0.6,1.8-1.3,2.4
	c-0.7,0.6-1.6,0.9-2.6,0.9c-1.3,0-2.4-0.4-3.1-1.3c-0.8-0.9-1.1-2-1.1-3.5C129.7,216.9,130.1,215.7,130.9,214.8z M124.9,213.8
	c0.1,0,0.2,0,0.4,0v1.4c-0.1,0-0.3,0-0.5,0c-0.2,0-0.4,0-0.5,0.2c-0.1,0.1-0.1,0.2-0.1,0.4s0,0.3,0,0.6h1.2v1.3h-1.2v5.5h-1.8v-5.5
	h-1v-1.3h1v-0.4c0-0.7,0.1-1.2,0.4-1.5c0.3-0.4,0.9-0.6,1.9-0.6C124.7,213.8,124.8,213.8,124.9,213.8z M120,222.2
	c-0.6,0.7-1.4,1.1-2.6,1.1c-1.2,0-2-0.4-2.6-1.1c-0.6-0.7-0.9-1.6-0.9-2.6c0-1,0.3-1.8,0.9-2.6c0.6-0.7,1.5-1.1,2.6-1.1
	c1.2,0,2,0.4,2.6,1.1c0.6,0.7,0.9,1.6,0.9,2.6C120.8,220.7,120.5,221.5,120,222.2z M118.5,221.3c0.3-0.4,0.4-0.9,0.4-1.6
	c0-0.7-0.1-1.2-0.4-1.6c-0.3-0.4-0.7-0.6-1.2-0.6c-0.5,0-0.9,0.2-1.2,0.6c-0.3,0.4-0.4,0.9-0.4,1.6c0,0.7,0.1,1.2,0.4,1.6
	c0.3,0.4,0.7,0.6,1.2,0.6C117.9,221.8,118.3,221.6,118.5,221.3z M109.5,216.1c0,0,0.1,0,0.2,0v1.8c-0.1,0-0.2,0-0.3,0
	c-0.1,0-0.2,0-0.2,0c-0.7,0-1.2,0.2-1.4,0.7c-0.1,0.3-0.2,0.7-0.2,1.2v3.3h-1.8v-6.8h1.7v1.2c0.3-0.5,0.5-0.8,0.7-0.9
	C108.5,216.2,108.9,216.1,109.5,216.1C109.5,216.1,109.5,216.1,109.5,216.1z M102.8,216.4c0.5,0.2,0.8,0.5,1.1,1
	c0.3,0.4,0.4,0.9,0.5,1.4c0,0.3,0.1,0.8,0.1,1.3h-4.7c0,0.7,0.2,1.2,0.6,1.4c0.2,0.2,0.5,0.3,0.9,0.3c0.4,0,0.7-0.1,0.9-0.3
	c0.1-0.1,0.2-0.3,0.3-0.5h1.8c0,0.4-0.3,0.8-0.6,1.2c-0.6,0.7-1.4,1-2.4,1c-0.9,0-1.6-0.3-2.3-0.8c-0.7-0.6-1-1.5-1-2.7
	c0-1.2,0.3-2.1,0.9-2.7c0.6-0.6,1.4-0.9,2.3-0.9C101.9,216.1,102.4,216.2,102.8,216.4z M100.3,217.9c-0.2,0.3-0.4,0.6-0.4,1.1h2.8
	c0-0.5-0.2-0.8-0.4-1.1c-0.3-0.2-0.6-0.4-1-0.4C100.9,217.6,100.6,217.7,100.3,217.9z M95.1,221.2c0.3-0.4,0.4-0.9,0.4-1.5
	c0-0.5-0.1-0.9-0.2-1.2c-0.2-0.6-0.7-0.9-1.3-0.9c-0.6,0-1.1,0.3-1.3,0.9c-0.1,0.3-0.2,0.7-0.2,1.2c0,0.6,0.1,1.1,0.4,1.4
	c0.3,0.4,0.7,0.6,1.2,0.6C94.5,221.8,94.8,221.6,95.1,221.2z M96.6,217.1c0.5,0.6,0.8,1.5,0.8,2.5c0,1.1-0.2,1.9-0.8,2.6
	c-0.5,0.7-1.2,1-2.1,1c-0.6,0-1-0.1-1.4-0.3c-0.2-0.1-0.4-0.4-0.7-0.7v0.9h-1.7v-9.2h1.8v3.3c0.2-0.3,0.5-0.6,0.7-0.7
	c0.3-0.2,0.7-0.3,1.2-0.3C95.4,216.1,96.1,216.4,96.6,217.1z M87.9,216.3c0.3,0.1,0.6,0.3,0.8,0.6c0.2,0.2,0.3,0.5,0.4,0.9
	c0,0.2,0.1,0.6,0.1,1l0,4.3h-1.8v-4.3c0-0.3,0-0.5-0.1-0.6c-0.2-0.3-0.4-0.5-0.9-0.5c-0.5,0-0.8,0.2-1,0.6c-0.1,0.2-0.1,0.5-0.1,0.8
	v4.1h-1.8V219c0-0.4,0-0.7-0.1-0.9c-0.1-0.3-0.4-0.5-0.9-0.5c-0.5,0-0.8,0.2-1,0.5c-0.1,0.2-0.1,0.5-0.1,0.8v4.1h-1.8v-6.8h1.7v1
	c0.2-0.4,0.4-0.6,0.6-0.8c0.3-0.3,0.8-0.4,1.3-0.4c0.5,0,0.9,0.1,1.3,0.3c0.3,0.2,0.5,0.5,0.6,0.8c0.2-0.4,0.5-0.7,0.9-0.9
	c0.4-0.2,0.8-0.3,1.2-0.3C87.3,216.1,87.6,216.2,87.9,216.3z M73.4,216.3v4.1c0,0.4,0,0.7,0.1,0.9c0.2,0.3,0.5,0.5,1,0.5
	c0.6,0,1-0.2,1.2-0.7c0.1-0.3,0.2-0.6,0.2-1.1v-3.7h1.8v6.8H76v-1c0,0-0.1,0.1-0.1,0.2c-0.1,0.1-0.1,0.2-0.2,0.3
	c-0.3,0.2-0.5,0.4-0.8,0.5c-0.3,0.1-0.6,0.1-0.9,0.1c-1,0-1.7-0.4-2-1.1c-0.2-0.4-0.3-1-0.3-1.8v-4.1H73.4z M62.5,213.9h2l3.7,6.4
	v-6.4H70v9.2H68l-3.8-6.5v6.5h-1.8V213.9z"/>
<line fill="none" stroke="#292724" stroke-miterlimit="10" x1="-36.5" y1="-24.3" x2="-36.5" y2="166.8"/>
<line fill="none" stroke="#292724" stroke-miterlimit="10" x1="-36.5" y1="185.7" x2="-31.5" y2="185.7"/>
<line fill="none" stroke="#292724" stroke-miterlimit="10" x1="-36.5" y1="119.1" x2="-31.5" y2="119.1"/>
<line fill="none" stroke="#292724" stroke-miterlimit="10" x1="-36.5" y1="52.4" x2="-31.5" y2="52.4"/>
<line fill="none" stroke="#292724" stroke-miterlimit="10" x1="-36.5" y1="-14.3" x2="-31.5" y2="-14.3"/>
<path fill="#292724" d="M-43.1,184.7c-0.4-0.3-1.2-0.4-2.4-0.4c-0.8,0-1.5,0.1-2.1,0.3s-0.8,0.6-0.8,1.2c0,0.6,0.3,1,0.8,1.2
	c0.5,0.3,1.3,0.4,2.3,0.4c0.8,0,1.4-0.1,1.8-0.2c0.7-0.2,1.1-0.7,1.1-1.3C-42.4,185.4-42.6,185-43.1,184.7z M-48,183.7
	c0.6-0.3,1.5-0.5,2.5-0.5c1,0,1.9,0.2,2.5,0.5c0.9,0.4,1.4,1.2,1.4,2.1c0,0.9-0.4,1.6-1.2,2c-0.6,0.4-1.5,0.5-2.6,0.5
	c-0.8,0-1.6-0.1-2.2-0.3c-1.1-0.4-1.7-1.2-1.7-2.2C-49.2,184.9-48.8,184.2-48,183.7z"/>
<path fill="#292724" d="M-43.1,109.2c-0.4-0.3-1.2-0.4-2.4-0.4c-0.8,0-1.5,0.1-2.1,0.3s-0.8,0.6-0.8,1.2c0,0.6,0.3,1,0.8,1.2
	c0.5,0.3,1.3,0.4,2.3,0.4c0.8,0,1.4-0.1,1.8-0.2c0.7-0.2,1.1-0.7,1.1-1.3C-42.4,109.9-42.6,109.5-43.1,109.2z M-48,108.3
	c0.6-0.3,1.5-0.5,2.5-0.5c1,0,1.9,0.2,2.5,0.5c0.9,0.4,1.4,1.2,1.4,2.1c0,0.9-0.4,1.6-1.2,2c-0.6,0.4-1.5,0.5-2.6,0.5
	c-0.8,0-1.6-0.1-2.2-0.3c-1.1-0.4-1.7-1.2-1.7-2.2C-49.2,109.4-48.8,108.7-48,108.3z M-43.1,115.2c-0.4-0.3-1.2-0.4-2.4-0.4
	c-0.8,0-1.5,0.1-2.1,0.3c-0.5,0.2-0.8,0.6-0.8,1.2c0,0.6,0.3,1,0.8,1.2c0.5,0.3,1.3,0.4,2.3,0.4c0.8,0,1.4-0.1,1.8-0.2
	c0.7-0.2,1.1-0.7,1.1-1.3C-42.4,115.8-42.6,115.4-43.1,115.2z M-48,114.2c0.6-0.3,1.5-0.5,2.5-0.5c1,0,1.9,0.2,2.5,0.5
	c0.9,0.4,1.4,1.2,1.4,2.1c0,0.9-0.4,1.6-1.2,2c-0.6,0.4-1.5,0.5-2.6,0.5c-0.8,0-1.6-0.1-2.2-0.3c-1.1-0.4-1.7-1.2-1.7-2.2
	C-49.2,115.3-48.8,114.6-48,114.2z M-43.1,121.1c-0.4-0.3-1.2-0.4-2.4-0.4c-0.8,0-1.5,0.1-2.1,0.3c-0.5,0.2-0.8,0.6-0.8,1.2
	c0,0.6,0.3,1,0.8,1.2c0.5,0.3,1.3,0.4,2.3,0.4c0.8,0,1.4-0.1,1.8-0.2c0.7-0.2,1.1-0.7,1.1-1.3C-42.4,121.8-42.6,121.4-43.1,121.1z
	 M-48,120.1c0.6-0.3,1.5-0.5,2.5-0.5c1,0,1.9,0.2,2.5,0.5c0.9,0.4,1.4,1.2,1.4,2.1c0,0.9-0.4,1.6-1.2,2c-0.6,0.4-1.5,0.5-2.6,0.5
	c-0.8,0-1.6-0.1-2.2-0.3c-1.1-0.4-1.7-1.2-1.7-2.2C-49.2,121.3-48.8,120.6-48,120.1z M-47,130h-0.7c-0.1-0.7-0.2-1.2-0.3-1.4
	c-0.2-0.3-0.5-0.5-1.1-0.6v-0.7h7.4v1H-47V130z"/>
<path fill="#292724" d="M-43.1,42.6c-0.4-0.3-1.2-0.4-2.4-0.4c-0.8,0-1.5,0.1-2.1,0.3s-0.8,0.6-0.8,1.2c0,0.6,0.3,1,0.8,1.2
	c0.5,0.3,1.3,0.4,2.3,0.4c0.8,0,1.4-0.1,1.8-0.2c0.7-0.2,1.1-0.7,1.1-1.3C-42.4,43.2-42.6,42.8-43.1,42.6z M-48,41.6
	c0.6-0.3,1.5-0.5,2.5-0.5c1,0,1.9,0.2,2.5,0.5c0.9,0.4,1.4,1.2,1.4,2.1c0,0.9-0.4,1.6-1.2,2c-0.6,0.4-1.5,0.5-2.6,0.5
	c-0.8,0-1.6-0.1-2.2-0.3c-1.1-0.4-1.7-1.2-1.7-2.2C-49.2,42.7-48.8,42-48,41.6z M-43.1,48.5c-0.4-0.3-1.2-0.4-2.4-0.4
	c-0.8,0-1.5,0.1-2.1,0.3s-0.8,0.6-0.8,1.2c0,0.6,0.3,1,0.8,1.2c0.5,0.3,1.3,0.4,2.3,0.4c0.8,0,1.4-0.1,1.8-0.2
	c0.7-0.2,1.1-0.7,1.1-1.3C-42.4,49.2-42.6,48.8-43.1,48.5z M-48,47.5c0.6-0.3,1.5-0.5,2.5-0.5c1,0,1.9,0.2,2.5,0.5
	c0.9,0.4,1.4,1.2,1.4,2.1c0,0.9-0.4,1.6-1.2,2c-0.6,0.4-1.5,0.5-2.6,0.5c-0.8,0-1.6-0.1-2.2-0.3c-1.1-0.4-1.7-1.2-1.7-2.2
	C-49.2,48.7-48.8,48-48,47.5z M-43.1,54.4c-0.4-0.3-1.2-0.4-2.4-0.4c-0.8,0-1.5,0.1-2.1,0.3s-0.8,0.6-0.8,1.2c0,0.6,0.3,1,0.8,1.2
	c0.5,0.3,1.3,0.4,2.3,0.4c0.8,0,1.4-0.1,1.8-0.2c0.7-0.2,1.1-0.7,1.1-1.3C-42.4,55.1-42.6,54.7-43.1,54.4z M-48,53.5
	c0.6-0.3,1.5-0.5,2.5-0.5c1,0,1.9,0.2,2.5,0.5c0.9,0.4,1.4,1.2,1.4,2.1c0,0.9-0.4,1.6-1.2,2c-0.6,0.4-1.5,0.5-2.6,0.5
	c-0.8,0-1.6-0.1-2.2-0.3c-1.1-0.4-1.7-1.2-1.7-2.2C-49.2,54.6-48.8,53.9-48,53.5z M-43.4,63.7c-0.5-0.2-0.9-0.7-1.3-1.4l-0.6-1
	c-0.3-0.4-0.5-0.8-0.7-0.9c-0.3-0.3-0.6-0.4-1-0.4c-0.4,0-0.8,0.1-1,0.4c-0.3,0.3-0.4,0.6-0.4,1c0,0.6,0.2,1.1,0.7,1.3
	c0.3,0.1,0.6,0.2,1.1,0.2v1c-0.6,0-1.2-0.1-1.6-0.4c-0.7-0.4-1.1-1.1-1.1-2.2c0-0.9,0.2-1.5,0.7-1.9c0.5-0.4,1-0.6,1.5-0.6
	c0.6,0,1.1,0.2,1.5,0.6c0.2,0.2,0.5,0.7,0.9,1.3l0.4,0.7c0.2,0.3,0.4,0.6,0.5,0.8c0.3,0.3,0.6,0.6,1,0.7v-4.1h0.9v5.1
	C-42.4,64-43,63.9-43.4,63.7z"/>
<path fill="#292724" d="M-43.1-24.1c-0.4-0.3-1.2-0.4-2.4-0.4c-0.8,0-1.5,0.1-2.1,0.3s-0.8,0.6-0.8,1.2c0,0.6,0.3,1,0.8,1.2
	c0.5,0.3,1.3,0.4,2.3,0.4c0.8,0,1.4-0.1,1.8-0.2c0.7-0.2,1.1-0.7,1.1-1.3C-42.4-23.4-42.6-23.8-43.1-24.1z M-48-25.1
	c0.6-0.3,1.5-0.5,2.5-0.5c1,0,1.9,0.2,2.5,0.5c0.9,0.4,1.4,1.2,1.4,2.1c0,0.9-0.4,1.6-1.2,2c-0.6,0.4-1.5,0.5-2.6,0.5
	c-0.8,0-1.6-0.1-2.2-0.3c-1.1-0.4-1.7-1.2-1.7-2.2C-49.2-23.9-48.8-24.6-48-25.1z M-43.1-18.2c-0.4-0.3-1.2-0.4-2.4-0.4
	c-0.8,0-1.5,0.1-2.1,0.3s-0.8,0.6-0.8,1.2c0,0.6,0.3,1,0.8,1.2c0.5,0.3,1.3,0.4,2.3,0.4c0.8,0,1.4-0.1,1.8-0.2
	c0.7-0.2,1.1-0.7,1.1-1.3C-42.4-17.5-42.6-17.9-43.1-18.2z M-48-19.1c0.6-0.3,1.5-0.5,2.5-0.5c1,0,1.9,0.2,2.5,0.5
	c0.9,0.4,1.4,1.2,1.4,2.1c0,0.9-0.4,1.6-1.2,2c-0.6,0.4-1.5,0.5-2.6,0.5c-0.8,0-1.6-0.1-2.2-0.3c-1.1-0.4-1.7-1.2-1.7-2.2
	C-49.2-18-48.8-18.7-48-19.1z M-43.1-12.2c-0.4-0.3-1.2-0.4-2.4-0.4c-0.8,0-1.5,0.1-2.1,0.3s-0.8,0.6-0.8,1.2c0,0.6,0.3,1,0.8,1.2
	c0.5,0.3,1.3,0.4,2.3,0.4c0.8,0,1.4-0.1,1.8-0.2c0.7-0.2,1.1-0.7,1.1-1.3C-42.4-11.6-42.6-12-43.1-12.2z M-48-13.2
	c0.6-0.3,1.5-0.5,2.5-0.5c1,0,1.9,0.2,2.5,0.5c0.9,0.4,1.4,1.2,1.4,2.1c0,0.9-0.4,1.6-1.2,2c-0.6,0.4-1.5,0.5-2.6,0.5
	c-0.8,0-1.6-0.1-2.2-0.3c-1.1-0.4-1.7-1.2-1.7-2.2C-49.2-12.1-48.8-12.8-48-13.2z M-42.3-3.1c-0.5,0.4-1.1,0.6-1.8,0.6v-1
	c0.5,0,0.8-0.1,1.1-0.3c0.4-0.2,0.6-0.7,0.6-1.3c0-0.5-0.1-0.9-0.4-1.2c-0.3-0.3-0.6-0.4-1-0.4c-0.5,0-0.9,0.2-1.1,0.5
	C-45.1-6-45.2-5.5-45.2-5c0,0.1,0,0.1,0,0.2c0,0.1,0,0.1,0,0.2H-46c0-0.1,0-0.2,0-0.2c0-0.1,0-0.1,0-0.2c0-0.4-0.1-0.6-0.2-0.9
	c-0.2-0.4-0.5-0.6-1-0.6c-0.4,0-0.7,0.1-0.9,0.4c-0.2,0.3-0.3,0.6-0.3,0.9c0,0.6,0.2,1.1,0.6,1.3c0.2,0.1,0.6,0.2,1,0.2v0.9
	c-0.6,0-1-0.1-1.4-0.3c-0.7-0.4-1-1.1-1-2c0-0.8,0.2-1.3,0.5-1.8c0.3-0.4,0.8-0.6,1.5-0.6c0.5,0,0.8,0.1,1.1,0.4
	c0.2,0.2,0.3,0.4,0.4,0.6c0.1-0.4,0.3-0.7,0.6-0.9c0.3-0.2,0.7-0.3,1.1-0.3c0.7,0,1.3,0.2,1.7,0.7c0.4,0.5,0.7,1.1,0.7,2
	C-41.6-4.2-41.8-3.5-42.3-3.1z"/>
<path fill="#292724" d="M-66,21.4c1.1-0.5,2.3-0.7,3.4-0.7c1.3,0,2.5,0.3,3.8,0.9c0.7,0.3,1.3,0.6,1.6,0.9l0.6,0.4v1.3
	c-1-0.6-1.8-0.9-2.4-1.1c-1.1-0.4-2.2-0.6-3.5-0.6c-0.8,0-1.6,0.1-2.3,0.2c-1.1,0.2-2.1,0.6-3,1.1l-0.7,0.4v-1.3
	C-67.6,22.3-66.8,21.8-66,21.4z M-61,27.3c-0.4-0.3-0.9-0.4-1.5-0.4c-0.8,0-1.4,0.2-1.8,0.6c-0.2,0.3-0.3,0.6-0.3,0.9
	c0,0.5,0.2,0.9,0.6,1.1c0.4,0.2,0.9,0.4,1.5,0.4c0.6,0,1.1-0.1,1.5-0.4c0.4-0.2,0.6-0.6,0.6-1.1C-60.4,28-60.6,27.6-61,27.3z
	 M-65.8,27.8c0.2-0.3,0.4-0.6,0.8-0.8h-3.2v-1.8h9.2v1.7h-0.9c0.4,0.3,0.7,0.5,0.9,0.9c0.2,0.3,0.3,0.7,0.3,1.2c0,0.8-0.3,1.5-1,2
	c-0.6,0.5-1.5,0.8-2.5,0.8c-1.2,0-2.1-0.3-2.7-0.8c-0.7-0.5-1-1.3-1-2.1C-66.1,28.5-66,28.1-65.8,27.8z M-65.5,33.7
	c0.4-0.4,1-0.7,1.8-0.7h4.6v1.8h-4.1c-0.4,0-0.6,0-0.8,0.1c-0.4,0.2-0.5,0.5-0.5,1c0,0.6,0.3,1,0.8,1.2c0.3,0.1,0.6,0.2,1,0.2h3.7
	v1.8h-6.8v-1.7h1c-0.4-0.2-0.6-0.4-0.8-0.6c-0.3-0.4-0.4-0.8-0.4-1.4C-66.1,34.7-65.9,34.1-65.5,33.7z M-59.9,41.3
	c0.7,0.6,1.1,1.4,1.1,2.6s-0.4,2-1.1,2.6c-0.7,0.6-1.6,0.9-2.6,0.9c-1,0-1.8-0.3-2.6-0.9c-0.7-0.6-1.1-1.4-1.1-2.6s0.4-2,1.1-2.6
	c0.7-0.6,1.6-0.9,2.6-0.9C-61.5,40.5-60.7,40.8-59.9,41.3z M-60.9,42.8c-0.4-0.3-0.9-0.4-1.6-0.4c-0.7,0-1.2,0.1-1.6,0.4
	c-0.4,0.3-0.6,0.7-0.6,1.2c0,0.5,0.2,0.9,0.6,1.2c0.4,0.3,0.9,0.4,1.6,0.4c0.7,0,1.2-0.1,1.6-0.4c0.4-0.3,0.6-0.7,0.6-1.2
	S-60.6,43-60.9,42.8z M-63.5,50.1c-0.3,0-0.5,0.1-0.7,0.3c-0.3,0.2-0.4,0.5-0.4,0.9c0,0.6,0.3,1,0.9,1.2c0.3,0.1,0.7,0.2,1.3,0.2
	c0.5,0,0.9-0.1,1.2-0.2c0.6-0.2,0.8-0.6,0.8-1.2c0-0.4-0.1-0.7-0.3-0.9c-0.2-0.2-0.5-0.3-0.9-0.3v-1.8c0.5,0,1.1,0.2,1.5,0.6
	c0.8,0.6,1.2,1.4,1.2,2.5c0,1.1-0.3,1.9-1,2.4c-0.6,0.5-1.5,0.8-2.5,0.8c-1.2,0-2.1-0.3-2.7-0.9c-0.6-0.6-1-1.4-1-2.4
	c0-0.9,0.2-1.6,0.6-2.1c0.4-0.5,1.1-0.9,2-1V50.1z M-65.8,57c0.2-0.5,0.5-0.8,1-1.1c0.4-0.3,0.9-0.4,1.4-0.5c0.3,0,0.8-0.1,1.3-0.1
	V60c0.7,0,1.2-0.2,1.4-0.6c0.2-0.2,0.3-0.5,0.3-0.9c0-0.4-0.1-0.7-0.3-0.9c-0.1-0.1-0.3-0.2-0.5-0.3v-1.8c0.4,0,0.8,0.3,1.2,0.6
	c0.7,0.6,1,1.4,1,2.4c0,0.9-0.3,1.6-0.8,2.3c-0.6,0.7-1.5,1-2.7,1c-1.2,0-2.1-0.3-2.7-0.9c-0.6-0.6-0.9-1.4-0.9-2.3
	C-66.1,58-66,57.5-65.8,57z M-64.3,59.5c0.3,0.2,0.6,0.4,1.1,0.4v-2.8c-0.5,0-0.8,0.2-1.1,0.4c-0.2,0.3-0.4,0.6-0.4,1
	C-64.6,59-64.5,59.3-64.3,59.5z M-62,68.3c0.4-0.1,0.7-0.2,0.9-0.3c0.4-0.3,0.6-0.8,0.6-1.6c0-0.5,0-0.8-0.1-1.1
	c-0.2-0.5-0.5-0.8-1.1-0.8c-0.3,0-0.5,0.1-0.7,0.4c-0.2,0.3-0.3,0.7-0.4,1.3l-0.2,1c-0.2,1-0.5,1.6-0.7,2c-0.4,0.6-1.1,0.9-2,0.9
	c-0.8,0-1.5-0.3-2.1-0.9c-0.5-0.6-0.8-1.5-0.8-2.6c0-1,0.3-1.8,0.8-2.5c0.5-0.7,1.3-1,2.2-1.1v1.9c-0.6,0-0.9,0.3-1.2,0.7
	c-0.2,0.3-0.2,0.7-0.2,1.1c0,0.5,0.1,0.9,0.3,1.2c0.2,0.3,0.5,0.4,0.8,0.4c0.3,0,0.6-0.1,0.7-0.4c0.1-0.2,0.2-0.6,0.4-1.2l0.4-1.6
	c0.2-0.7,0.4-1.2,0.7-1.6c0.4-0.5,1.1-0.8,1.9-0.8c0.8,0,1.5,0.3,2.1,1c0.6,0.6,0.8,1.6,0.8,2.7c0,1.2-0.3,2.1-0.8,2.8
	c-0.5,0.7-1.3,1-2.3,1V68.3z M-68.6,71.3v-1.5l9.5,3.6v1.5L-68.6,71.3z M-61.3,79.1c0.3,0,0.5-0.1,0.7-0.2c0.2-0.2,0.4-0.6,0.4-1.2
	c0-0.4-0.1-0.6-0.2-0.8c-0.1-0.2-0.3-0.3-0.5-0.3c-0.2,0-0.4,0.1-0.5,0.2c-0.1,0.2-0.3,0.8-0.5,1.9c-0.2,0.8-0.4,1.3-0.7,1.6
	c-0.3,0.3-0.7,0.5-1.2,0.5c-0.6,0-1.2-0.2-1.6-0.7c-0.5-0.5-0.7-1.2-0.7-2.1c0-0.8,0.2-1.5,0.5-2.1c0.3-0.5,0.9-0.8,1.8-0.9v1.8
	c-0.2,0-0.4,0.1-0.5,0.2c-0.2,0.2-0.4,0.5-0.4,1c0,0.4,0.1,0.7,0.2,0.8c0.1,0.2,0.3,0.2,0.4,0.2c0.2,0,0.4-0.1,0.4-0.3
	c0.1-0.2,0.3-0.8,0.5-1.9c0.2-0.7,0.4-1.2,0.8-1.6c0.3-0.4,0.8-0.5,1.3-0.5c0.7,0,1.2,0.3,1.7,0.8c0.4,0.5,0.6,1.3,0.6,2.3
	c0,1.1-0.2,1.9-0.7,2.4c-0.5,0.5-1,0.8-1.7,0.8V79.1z M-68.3,87.6v-1.8h5l-2.6-2.2v-2.2l2.6,2.4l4.2-2.5v2.2l-2.9,1.6l0.8,0.7h2.1
	v1.8H-68.3z M-63.5,90.6c-0.3,0-0.5,0.1-0.7,0.3c-0.3,0.2-0.4,0.5-0.4,0.9c0,0.6,0.3,1,0.9,1.2c0.3,0.1,0.7,0.2,1.3,0.2
	c0.5,0,0.9-0.1,1.2-0.2c0.6-0.2,0.8-0.6,0.8-1.2c0-0.4-0.1-0.7-0.3-0.9c-0.2-0.2-0.5-0.3-0.9-0.3v-1.8c0.5,0,1.1,0.2,1.5,0.6
	c0.8,0.6,1.2,1.4,1.2,2.5c0,1.1-0.3,1.9-1,2.4c-0.6,0.5-1.5,0.8-2.5,0.8c-1.2,0-2.1-0.3-2.7-0.9c-0.6-0.6-1-1.4-1-2.4
	c0-0.9,0.2-1.6,0.6-2.1c0.4-0.5,1.1-0.9,2-1V90.6z M-59.9,96.8c0.7,0.6,1.1,1.4,1.1,2.6s-0.4,2-1.1,2.6c-0.7,0.6-1.6,0.9-2.6,0.9
	c-1,0-1.8-0.3-2.6-0.9c-0.7-0.6-1.1-1.4-1.1-2.6s0.4-2,1.1-2.6c0.7-0.6,1.6-0.9,2.6-0.9C-61.5,96-60.7,96.3-59.9,96.8z M-60.9,98.3
	c-0.4-0.3-0.9-0.4-1.6-0.4c-0.7,0-1.2,0.1-1.6,0.4c-0.4,0.3-0.6,0.7-0.6,1.2c0,0.5,0.2,0.9,0.6,1.2c0.4,0.3,0.9,0.4,1.6,0.4
	c0.7,0,1.2-0.1,1.6-0.4s0.6-0.7,0.6-1.2C-60.4,99-60.6,98.6-60.9,98.3z M-59.1,104.3v1.8h-9.2v-1.8H-59.1z M-67.3,108.3
	c0.4-0.3,0.9-0.4,1.4-0.4c0.6,0,1,0.1,1.4,0.4c0.2,0.2,0.4,0.4,0.5,0.7c0.2-0.5,0.4-0.8,0.8-1.1c0.4-0.2,0.8-0.4,1.4-0.4
	c0.5,0,1,0.1,1.5,0.4c0.3,0.2,0.5,0.4,0.7,0.7c0.2,0.3,0.4,0.6,0.5,1c0.1,0.4,0.1,0.8,0.1,1.3v4.2h-9.2v-4.5
	C-68.3,109.5-68,108.7-67.3,108.3z M-63.2,113.3h2.5v-2.3c0-0.4-0.1-0.7-0.2-0.9c-0.2-0.4-0.6-0.6-1.2-0.6c-0.5,0-0.8,0.2-1,0.6
	c-0.1,0.2-0.2,0.5-0.2,0.9V113.3z M-66.7,113.3h2v-2.3c0-0.4-0.1-0.7-0.2-1c-0.2-0.3-0.4-0.4-0.8-0.4c-0.4,0-0.7,0.2-0.9,0.5
	c-0.1,0.3-0.1,0.7-0.1,1.1V113.3z M-66,119.1c-0.8-0.3-1.6-0.8-2.5-1.4v-1.3l0.7,0.4c1,0.5,2,0.9,3,1.1c0.7,0.1,1.4,0.2,2.3,0.2
	c1.3,0,2.5-0.2,3.5-0.6c0.6-0.2,1.4-0.6,2.4-1.1v1.3l-0.6,0.4c-0.4,0.3-0.9,0.6-1.6,0.9c-1.3,0.6-2.6,0.9-3.8,0.9
	C-63.7,119.9-64.9,119.6-66,119.1z M-65.8,126c0.2-0.5,0.5-0.8,1-1.1c0.4-0.3,0.9-0.4,1.4-0.5c0.3,0,0.8-0.1,1.3-0.1v4.7
	c0.7,0,1.2-0.2,1.4-0.6c0.2-0.2,0.3-0.5,0.3-0.9c0-0.4-0.1-0.7-0.3-0.9c-0.1-0.1-0.3-0.2-0.5-0.3v-1.8c0.4,0,0.8,0.3,1.2,0.6
	c0.7,0.6,1,1.4,1,2.4c0,0.9-0.3,1.6-0.8,2.3c-0.6,0.7-1.5,1-2.7,1c-1.2,0-2.1-0.3-2.7-0.9c-0.6-0.6-0.9-1.4-0.9-2.3
	C-66.1,127-66,126.5-65.8,126z M-64.3,128.5c0.3,0.2,0.6,0.4,1.1,0.4v-2.8c-0.5,0-0.8,0.2-1.1,0.4c-0.2,0.3-0.4,0.6-0.4,1
	C-64.6,128-64.5,128.3-64.3,128.5z M-64.6,135.2h-1.3v-0.9h-1.9v-1.8h1.9v-1.1h1.3v1.1h3.6c0.3,0,0.5,0,0.5-0.1
	c0.1-0.1,0.1-0.3,0.1-0.7c0-0.1,0-0.1,0-0.2c0-0.1,0-0.1,0-0.2h1.3l0,0.8c0,0.8-0.1,1.4-0.4,1.7c-0.2,0.2-0.5,0.3-0.9,0.3h-4.2
	V135.2z M-63.3,139c0-0.3-0.1-0.6-0.2-0.7c-0.1-0.3-0.3-0.4-0.5-0.4c-0.3,0-0.5,0.1-0.6,0.3c-0.1,0.2-0.2,0.5-0.2,0.9
	c0,0.4,0.1,0.7,0.3,0.9c0.2,0.1,0.4,0.2,0.6,0.2v1.7c-0.6,0-1.1-0.2-1.5-0.5c-0.6-0.5-0.9-1.3-0.9-2.4c0-0.7,0.1-1.4,0.4-2
	s0.9-0.9,1.7-0.9h3.1c0.2,0,0.5,0,0.8,0c0.2,0,0.4,0,0.5-0.1c0.1-0.1,0.2-0.1,0.2-0.3h0.3v1.9c-0.1,0.1-0.3,0.1-0.4,0.1
	c-0.1,0-0.3,0-0.4,0.1c0.3,0.2,0.5,0.5,0.7,0.8c0.2,0.4,0.3,0.8,0.3,1.3c0,0.6-0.2,1.1-0.5,1.5c-0.4,0.4-0.9,0.6-1.5,0.6
	c-0.8,0-1.4-0.3-1.8-1c-0.2-0.4-0.3-0.9-0.4-1.6L-63.3,139z M-62.4,137.9c0.1,0.1,0.1,0.2,0.2,0.3c0,0.1,0.1,0.3,0.1,0.5l0.1,0.4
	c0.1,0.4,0.1,0.6,0.2,0.8c0.2,0.3,0.4,0.4,0.8,0.4c0.3,0,0.5-0.1,0.7-0.3c0.1-0.2,0.2-0.4,0.2-0.6c0-0.4-0.1-0.7-0.3-1.1
	c-0.2-0.3-0.6-0.5-1.2-0.5H-62.4z M-68.1,144.7c0.1-0.3,0.4-0.6,0.6-0.9c0.2-0.2,0.5-0.4,0.8-0.5c0.3-0.1,0.6-0.2,1-0.2
	c0.4,0,0.9,0.1,1.3,0.3c0.4,0.2,0.7,0.6,0.9,1.1c0.2-0.4,0.4-0.7,0.7-0.9c0.3-0.2,0.8-0.3,1.4-0.3h0.6c0.4,0,0.7,0,0.9-0.1
	c0.2-0.1,0.4-0.2,0.5-0.4h0.2v2.1c-0.2,0.1-0.4,0.1-0.5,0.1c-0.3,0.1-0.5,0.1-0.8,0.1l-0.9,0c-0.6,0-1,0.1-1.2,0.3
	c-0.2,0.2-0.3,0.6-0.3,1.2v2h3.6v1.9h-9.2v-4.5C-68.3,145.5-68.2,145-68.1,144.7z M-66.7,148.8h2.5v-2.2c0-0.4-0.1-0.8-0.2-1
	c-0.2-0.4-0.5-0.6-1-0.6c-0.6,0-0.9,0.2-1.1,0.6c-0.1,0.2-0.2,0.5-0.2,0.9V148.8z"/>
</svg>
