<?xml version="1.0" encoding="utf-8"?>
<!-- Generator: Adobe Illustrator 17.1.0, SVG Export Plug-In . SVG Version: 6.00 Build 0)  -->
<!DOCTYPE svg PUBLIC "-//W3C//DTD SVG 1.1//EN" "http://www.w3.org/Graphics/SVG/1.1/DTD/svg11.dtd">
<svg version="1.1" id="Layer_1" xmlns="http://www.w3.org/2000/svg" xmlns:xlink="http://www.w3.org/1999/xlink" x="0px" y="0px"
	 viewBox="0 0 361.7 224.9" enable-background="new 0 0 361.7 224.9" xml:space="preserve">
<path fill="none" stroke="#66C2A5" stroke-width="1.5" stroke-miterlimit="10" d="M164.3,38l11.4,103.5l11.4,37.2l11.4,18.1
	l11.4,12.5l11.4-9.1l11.4-1.3l11.4,7l11.4-3.4l11.4,7.3l11.4-4.2l11.4-9.2l11.4-1.9l11.4-12.8l11.4-51.8l11.4-73.6 M16.1,208.4
	l11.4-5.8l11.4,2.4l11.4-5.6l11.4-4.3l11.4-5.9l11.4-36L95.9,48.1"/>
<path fill="#66C2A5" d="M17.8,208.4c0,2.2-3.4,2.2-3.4,0C14.5,206.2,17.8,206.2,17.8,208.4"/>
<path fill="none" stroke="#66C2A5" stroke-width="0.75" stroke-miterlimit="10" d="M17.8,208.4c0,2.2-3.4,2.2-3.4,0
	C14.5,206.2,17.8,206.2,17.8,208.4"/>
<path fill="#66C2A5" d="M29.2,202.6c0,2.2-3.4,2.2-3.4,0C25.9,200.3,29.2,200.3,29.2,202.6"/>
<path fill="none" stroke="#66C2A5" stroke-width="0.75" stroke-miterlimit="10" d="M29.2,202.6c0,2.2-3.4,2.2-3.4,0
	C25.9,200.3,29.2,200.3,29.2,202.6"/>
<path fill="#66C2A5" d="M40.6,205c0,2.2-3.4,2.2-3.4,0C37.3,202.7,40.6,202.7,40.6,205"/>
<path fill="none" stroke="#66C2A5" stroke-width="0.75" stroke-miterlimit="10" d="M40.6,205c0,2.2-3.4,2.2-3.4,0
	C37.3,202.7,40.6,202.7,40.6,205"/>
<path fill="#66C2A5" d="M52,199.4c0,2.2-3.4,2.2-3.4,0C48.7,197.2,52,197.2,52,199.4"/>
<path fill="none" stroke="#66C2A5" stroke-width="0.75" stroke-miterlimit="10" d="M52,199.4c0,2.2-3.4,2.2-3.4,0
	C48.7,197.2,52,197.2,52,199.4"/>
<path fill="#66C2A5" d="M63.4,195.1c0,2.2-3.4,2.2-3.4,0C60.1,192.9,63.4,192.9,63.4,195.1"/>
<path fill="none" stroke="#66C2A5" stroke-width="0.75" stroke-miterlimit="10" d="M63.4,195.1c0,2.2-3.4,2.2-3.4,0
	C60.1,192.9,63.4,192.9,63.4,195.1"/>
<path fill="#66C2A5" d="M74.8,189.2c0,2.2-3.4,2.2-3.4,0C71.5,187,74.8,187,74.8,189.2"/>
<path fill="none" stroke="#66C2A5" stroke-width="0.75" stroke-miterlimit="10" d="M74.8,189.2c0,2.2-3.4,2.2-3.4,0
	C71.5,187,74.8,187,74.8,189.2"/>
<path fill="#66C2A5" d="M86.2,153.2c0,2.2-3.4,2.2-3.4,0C82.9,151,86.2,151,86.2,153.2"/>
<path fill="none" stroke="#66C2A5" stroke-width="0.75" stroke-miterlimit="10" d="M86.2,153.2c0,2.2-3.4,2.2-3.4,0
	C82.9,151,86.2,151,86.2,153.2"/>
<path fill="#66C2A5" d="M97.6,48.1c0,2.2-3.4,2.2-3.4,0C94.3,45.9,97.6,45.9,97.6,48.1"/>
<path fill="none" stroke="#66C2A5" stroke-width="0.75" stroke-miterlimit="10" d="M97.6,48.1c0,2.2-3.4,2.2-3.4,0
	C94.3,45.9,97.6,45.9,97.6,48.1"/>
<path fill="#66C2A5" d="M166,38c0,2.2-3.4,2.2-3.4,0C162.7,35.8,166,35.8,166,38"/>
<path fill="none" stroke="#66C2A5" stroke-width="0.75" stroke-miterlimit="10" d="M166,38c0,2.2-3.4,2.2-3.4,0
	C162.7,35.8,166,35.8,166,38"/>
<path fill="#66C2A5" d="M177.4,141.5c0,2.2-3.4,2.2-3.4,0C174.1,139.3,177.4,139.3,177.4,141.5"/>
<path fill="none" stroke="#66C2A5" stroke-width="0.75" stroke-miterlimit="10" d="M177.4,141.5c0,2.2-3.4,2.2-3.4,0
	C174.1,139.3,177.4,139.3,177.4,141.5"/>
<path fill="#66C2A5" d="M188.8,178.8c0,2.2-3.4,2.2-3.4,0C185.5,176.5,188.8,176.5,188.8,178.8"/>
<path fill="none" stroke="#66C2A5" stroke-width="0.75" stroke-miterlimit="10" d="M188.8,178.8c0,2.2-3.4,2.2-3.4,0
	C185.5,176.5,188.8,176.5,188.8,178.8"/>
<path fill="#66C2A5" d="M200.2,196.9c0,2.2-3.4,2.2-3.4,0C196.9,194.6,200.2,194.6,200.2,196.9"/>
<path fill="none" stroke="#66C2A5" stroke-width="0.75" stroke-miterlimit="10" d="M200.2,196.9c0,2.2-3.4,2.2-3.4,0
	C196.9,194.6,200.2,194.6,200.2,196.9"/>
<path fill="#66C2A5" d="M211.6,209.4c0,2.2-3.4,2.2-3.4,0C208.3,207.1,211.6,207.1,211.6,209.4"/>
<path fill="none" stroke="#66C2A5" stroke-width="0.75" stroke-miterlimit="10" d="M211.6,209.4c0,2.2-3.4,2.2-3.4,0
	C208.3,207.1,211.6,207.1,211.6,209.4"/>
<path fill="#66C2A5" d="M223,200.3c0,2.2-3.4,2.2-3.4,0C219.7,198.1,223,198.1,223,200.3"/>
<path fill="none" stroke="#66C2A5" stroke-width="0.75" stroke-miterlimit="10" d="M223,200.3c0,2.2-3.4,2.2-3.4,0
	C219.7,198.1,223,198.1,223,200.3"/>
<path fill="#66C2A5" d="M234.4,199c0,2.2-3.4,2.2-3.4,0C231.1,196.8,234.4,196.8,234.4,199"/>
<path fill="none" stroke="#66C2A5" stroke-width="0.75" stroke-miterlimit="10" d="M234.4,199c0,2.2-3.4,2.2-3.4,0
	C231.1,196.8,234.4,196.8,234.4,199"/>
<path fill="#66C2A5" d="M245.8,206c0,2.2-3.4,2.2-3.4,0C242.5,203.8,245.8,203.8,245.8,206"/>
<path fill="none" stroke="#66C2A5" stroke-width="0.75" stroke-miterlimit="10" d="M245.8,206c0,2.2-3.4,2.2-3.4,0
	C242.5,203.8,245.8,203.8,245.8,206"/>
<path fill="#66C2A5" d="M257.2,202.6c0,2.2-3.4,2.2-3.4,0C253.9,200.4,257.2,200.4,257.2,202.6"/>
<path fill="none" stroke="#66C2A5" stroke-width="0.75" stroke-miterlimit="10" d="M257.2,202.6c0,2.2-3.4,2.2-3.4,0
	C253.9,200.4,257.2,200.4,257.2,202.6"/>
<path fill="#66C2A5" d="M268.6,210c0,2.2-3.4,2.2-3.4,0S268.6,207.7,268.6,210"/>
<path fill="none" stroke="#66C2A5" stroke-width="0.75" stroke-miterlimit="10" d="M268.6,210c0,2.2-3.4,2.2-3.4,0
	S268.6,207.7,268.6,210"/>
<path fill="#66C2A5" d="M280,205.8c0,2.2-3.4,2.2-3.4,0C276.7,203.5,280,203.5,280,205.8"/>
<path fill="none" stroke="#66C2A5" stroke-width="0.75" stroke-miterlimit="10" d="M280,205.8c0,2.2-3.4,2.2-3.4,0
	C276.7,203.5,280,203.5,280,205.8"/>
<path fill="#66C2A5" d="M291.4,196.6c0,2.2-3.4,2.2-3.4,0C288.1,194.3,291.4,194.3,291.4,196.6"/>
<path fill="none" stroke="#66C2A5" stroke-width="0.75" stroke-miterlimit="10" d="M291.4,196.6c0,2.2-3.4,2.2-3.4,0
	C288.1,194.3,291.4,194.3,291.4,196.6"/>
<path fill="#66C2A5" d="M302.8,194.6c0,2.2-3.4,2.2-3.4,0C299.5,192.4,302.8,192.4,302.8,194.6"/>
<path fill="none" stroke="#66C2A5" stroke-width="0.75" stroke-miterlimit="10" d="M302.8,194.6c0,2.2-3.4,2.2-3.4,0
	C299.5,192.4,302.8,192.4,302.8,194.6"/>
<path fill="#66C2A5" d="M314.2,181.8c0,2.2-3.4,2.2-3.4,0C310.9,179.6,314.2,179.6,314.2,181.8"/>
<path fill="none" stroke="#66C2A5" stroke-width="0.75" stroke-miterlimit="10" d="M314.2,181.8c0,2.2-3.4,2.2-3.4,0
	C310.9,179.6,314.2,179.6,314.2,181.8"/>
<path fill="#66C2A5" d="M325.6,130c0,2.2-3.4,2.2-3.4,0C322.3,127.8,325.6,127.8,325.6,130"/>
<path fill="none" stroke="#66C2A5" stroke-width="0.75" stroke-miterlimit="10" d="M325.6,130c0,2.2-3.4,2.2-3.4,0
	C322.3,127.8,325.6,127.8,325.6,130"/>
<path fill="#66C2A5" d="M337,56.4c0,2.2-3.4,2.2-3.4,0C333.7,54.2,337,54.2,337,56.4"/>
<path fill="none" stroke="#66C2A5" stroke-width="0.75" stroke-miterlimit="10" d="M337,56.4c0,2.2-3.4,2.2-3.4,0
	C333.7,54.2,337,54.2,337,56.4"/>
<line fill="none" stroke="#292724" stroke-width="0.75" stroke-miterlimit="10" x1="16.1" y1="217.5" x2="358.1" y2="217.5"/>
<path fill="#292724" d="M16.7,224c0.2-0.3,0.3-0.9,0.3-1.7c0-0.6-0.1-1.1-0.2-1.5c-0.1-0.4-0.4-0.6-0.9-0.6c-0.4,0-0.7,0.2-0.9,0.6
	c-0.2,0.4-0.3,0.9-0.3,1.6c0,0.5,0.1,1,0.2,1.3c0.2,0.5,0.5,0.7,0.9,0.7C16.2,224.4,16.5,224.3,16.7,224z M17.4,220.5
	c0.2,0.4,0.4,1,0.4,1.8c0,0.7-0.1,1.3-0.3,1.8c-0.3,0.7-0.8,1-1.5,1c-0.6,0-1.1-0.3-1.4-0.8c-0.3-0.5-0.4-1.1-0.4-1.8
	c0-0.6,0.1-1.1,0.2-1.5c0.3-0.8,0.8-1.2,1.6-1.2C16.6,219.6,17.1,219.9,17.4,220.5z"/>
<path fill="#292724" d="M132.6,224c0.2-0.3,0.3-0.9,0.3-1.7c0-0.6-0.1-1.1-0.2-1.5c-0.1-0.4-0.4-0.6-0.9-0.6c-0.4,0-0.7,0.2-0.9,0.6
	c-0.2,0.4-0.3,0.9-0.3,1.6c0,0.5,0.1,1,0.2,1.3c0.2,0.5,0.5,0.7,0.9,0.7C132.2,224.4,132.4,224.3,132.6,224z M133.3,220.5
	c0.2,0.4,0.4,1,0.4,1.8c0,0.7-0.1,1.3-0.3,1.8c-0.3,0.7-0.8,1-1.5,1c-0.6,0-1.1-0.3-1.4-0.8c-0.3-0.5-0.4-1.1-0.4-1.8
	c0-0.6,0.1-1.1,0.2-1.5c0.3-0.8,0.8-1.2,1.6-1.2C132.5,219.6,133,219.9,133.3,220.5z M126.4,221.2v-0.5c0.5,0,0.8-0.1,1-0.2
	c0.2-0.1,0.3-0.4,0.4-0.8h0.5v5.2h-0.7v-3.7H126.4z"/>
<path fill="#292724" d="M246.6,224c0.2-0.3,0.3-0.9,0.3-1.7c0-0.6-0.1-1.1-0.2-1.5c-0.1-0.4-0.4-0.6-0.9-0.6c-0.4,0-0.7,0.2-0.9,0.6
	c-0.2,0.4-0.3,0.9-0.3,1.6c0,0.5,0.1,1,0.2,1.3c0.2,0.5,0.5,0.7,0.9,0.7C246.2,224.4,246.4,224.3,246.6,224z M247.3,220.5
	c0.2,0.4,0.4,1,0.4,1.8c0,0.7-0.1,1.3-0.3,1.8c-0.3,0.7-0.8,1-1.5,1c-0.6,0-1.1-0.3-1.4-0.8c-0.3-0.5-0.4-1.1-0.4-1.8
	c0-0.6,0.1-1.1,0.2-1.5c0.3-0.8,0.8-1.2,1.6-1.2C246.5,219.6,247,219.9,247.3,220.5z M240.2,223.7c0.2-0.3,0.5-0.6,0.9-0.9l0.7-0.4
	c0.3-0.2,0.5-0.3,0.7-0.5c0.2-0.2,0.3-0.4,0.3-0.7c0-0.3-0.1-0.5-0.3-0.7c-0.2-0.2-0.4-0.3-0.7-0.3c-0.5,0-0.8,0.2-0.9,0.5
	c-0.1,0.2-0.1,0.4-0.2,0.8H240c0-0.5,0.1-0.8,0.3-1.1c0.3-0.5,0.8-0.8,1.5-0.8c0.6,0,1,0.2,1.3,0.5c0.3,0.3,0.4,0.7,0.4,1.1
	c0,0.4-0.1,0.8-0.4,1.1c-0.2,0.2-0.5,0.4-0.9,0.6l-0.5,0.3c-0.2,0.1-0.4,0.3-0.6,0.4c-0.2,0.2-0.4,0.4-0.5,0.7h2.9v0.6h-3.6
	C239.9,224.4,240,224,240.2,223.7z"/>
<path fill="#292724" d="M360.6,224c0.2-0.3,0.3-0.9,0.3-1.7c0-0.6-0.1-1.1-0.2-1.5c-0.1-0.4-0.4-0.6-0.9-0.6c-0.4,0-0.7,0.2-0.9,0.6
	c-0.2,0.4-0.3,0.9-0.3,1.6c0,0.5,0.1,1,0.2,1.3c0.2,0.5,0.5,0.7,0.9,0.7C360.2,224.4,360.4,224.3,360.6,224z M361.3,220.5
	c0.2,0.4,0.4,1,0.4,1.8c0,0.7-0.1,1.3-0.3,1.8c-0.3,0.7-0.8,1-1.5,1c-0.6,0-1.1-0.3-1.4-0.8c-0.3-0.5-0.4-1.1-0.4-1.8
	c0-0.6,0.1-1.1,0.2-1.5c0.3-0.8,0.8-1.2,1.6-1.2C360.5,219.6,361,219.9,361.3,220.5z M354.2,224.5c-0.3-0.3-0.4-0.8-0.4-1.2h0.7
	c0,0.3,0.1,0.6,0.2,0.7c0.2,0.3,0.5,0.4,0.9,0.4c0.3,0,0.6-0.1,0.8-0.3c0.2-0.2,0.3-0.4,0.3-0.7c0-0.4-0.1-0.6-0.3-0.8
	c-0.2-0.1-0.5-0.2-0.9-0.2c0,0-0.1,0-0.1,0c0,0-0.1,0-0.1,0v-0.6c0.1,0,0.1,0,0.2,0c0,0,0.1,0,0.1,0c0.2,0,0.4,0,0.6-0.1
	c0.3-0.1,0.4-0.4,0.4-0.7c0-0.3-0.1-0.5-0.3-0.6c-0.2-0.1-0.4-0.2-0.6-0.2c-0.4,0-0.7,0.1-0.9,0.4c-0.1,0.2-0.1,0.4-0.2,0.7h-0.7
	c0-0.4,0.1-0.7,0.2-1c0.3-0.5,0.7-0.7,1.4-0.7c0.5,0,0.9,0.1,1.2,0.4c0.3,0.2,0.4,0.6,0.4,1c0,0.3-0.1,0.6-0.3,0.8
	c-0.1,0.1-0.2,0.2-0.4,0.3c0.3,0.1,0.5,0.2,0.6,0.4c0.2,0.2,0.2,0.5,0.2,0.8c0,0.5-0.2,0.9-0.5,1.2c-0.3,0.3-0.8,0.5-1.4,0.5
	C355,225,354.5,224.9,354.2,224.5z"/>
<line fill="none" stroke="#292724" stroke-width="0.75" stroke-miterlimit="10" x1="8.6" y1="38" x2="8.6" y2="210"/>
<path fill="#292724" d="M4.4,193.6c-0.3-0.2-0.9-0.3-1.7-0.3c-0.6,0-1.1,0.1-1.5,0.2c-0.4,0.1-0.6,0.4-0.6,0.9
	c0,0.4,0.2,0.7,0.6,0.9c0.4,0.2,0.9,0.3,1.6,0.3c0.5,0,1-0.1,1.3-0.2c0.5-0.2,0.7-0.5,0.7-0.9C4.8,194.1,4.7,193.8,4.4,193.6z
	 M0.9,193c0.4-0.2,1-0.4,1.8-0.4c0.7,0,1.3,0.1,1.8,0.3c0.7,0.3,1,0.8,1,1.5c0,0.6-0.3,1.1-0.8,1.4c-0.5,0.3-1.1,0.4-1.8,0.4
	c-0.6,0-1.1-0.1-1.5-0.2c-0.8-0.3-1.2-0.8-1.2-1.6C0,193.8,0.3,193.3,0.9,193z M4.4,197.8c-0.3-0.2-0.9-0.3-1.7-0.3
	c-0.6,0-1.1,0.1-1.5,0.2c-0.4,0.1-0.6,0.4-0.6,0.9c0,0.4,0.2,0.7,0.6,0.9c0.4,0.2,0.9,0.3,1.6,0.3c0.5,0,1-0.1,1.3-0.2
	c0.5-0.2,0.7-0.5,0.7-0.9C4.8,198.3,4.7,198,4.4,197.8z M0.9,197.1c0.4-0.2,1-0.4,1.8-0.4c0.7,0,1.3,0.1,1.8,0.3
	c0.7,0.3,1,0.8,1,1.5c0,0.6-0.3,1.1-0.8,1.4c-0.5,0.3-1.1,0.4-1.8,0.4c-0.6,0-1.1-0.1-1.5-0.2c-0.8-0.3-1.2-0.8-1.2-1.6
	C0,197.9,0.3,197.4,0.9,197.1z M4.4,202c-0.3-0.2-0.9-0.3-1.7-0.3c-0.6,0-1.1,0.1-1.5,0.2c-0.4,0.1-0.6,0.4-0.6,0.9
	c0,0.4,0.2,0.7,0.6,0.9c0.4,0.2,0.9,0.3,1.6,0.3c0.5,0,1-0.1,1.3-0.2c0.5-0.2,0.7-0.5,0.7-0.9C4.8,202.4,4.7,202.2,4.4,202z
	 M0.9,201.3c0.4-0.2,1-0.4,1.8-0.4c0.7,0,1.3,0.1,1.8,0.3c0.7,0.3,1,0.8,1,1.5c0,0.6-0.3,1.1-0.8,1.4c-0.5,0.3-1.1,0.4-1.8,0.4
	c-0.6,0-1.1-0.1-1.5-0.2c-0.8-0.3-1.2-0.8-1.2-1.6C0,202.1,0.3,201.6,0.9,201.3z M4.4,206.1c-0.3-0.2-0.9-0.3-1.7-0.3
	c-0.6,0-1.1,0.1-1.5,0.2c-0.4,0.1-0.6,0.4-0.6,0.9c0,0.4,0.2,0.7,0.6,0.9c0.4,0.2,0.9,0.3,1.6,0.3c0.5,0,1-0.1,1.3-0.2
	c0.5-0.2,0.7-0.5,0.7-0.9C4.8,206.6,4.7,206.3,4.4,206.1z M0.9,205.5c0.4-0.2,1-0.4,1.8-0.4c0.7,0,1.3,0.1,1.8,0.3
	c0.7,0.3,1,0.8,1,1.5c0,0.6-0.3,1.1-0.8,1.4c-0.5,0.3-1.1,0.4-1.8,0.4c-0.6,0-1.1-0.1-1.5-0.2c-0.8-0.3-1.2-0.8-1.2-1.6
	C0,206.3,0.3,205.8,0.9,205.5z M4.4,210.3C4,210.1,3.5,210,2.7,210c-0.6,0-1.1,0.1-1.5,0.2c-0.4,0.1-0.6,0.4-0.6,0.9
	c0,0.4,0.2,0.7,0.6,0.9c0.4,0.2,0.9,0.3,1.6,0.3c0.5,0,1-0.1,1.3-0.2c0.5-0.2,0.7-0.5,0.7-0.9C4.8,210.8,4.7,210.5,4.4,210.3z
	 M0.9,209.6c0.4-0.2,1-0.4,1.8-0.4c0.7,0,1.3,0.1,1.8,0.3c0.7,0.3,1,0.8,1,1.5c0,0.6-0.3,1.1-0.8,1.4c-0.5,0.3-1.1,0.4-1.8,0.4
	c-0.6,0-1.1-0.1-1.5-0.2c-0.8-0.3-1.2-0.8-1.2-1.6C0,210.4,0.3,209.9,0.9,209.6z M1.5,216.6H1c0-0.5-0.1-0.8-0.2-1
	c-0.1-0.2-0.4-0.3-0.8-0.4v-0.5h5.2v0.7H1.5V216.6z"/>
<path fill="#292724" d="M4.4,129.4c-0.3-0.2-0.9-0.3-1.7-0.3c-0.6,0-1.1,0.1-1.5,0.2c-0.4,0.1-0.6,0.4-0.6,0.9
	c0,0.4,0.2,0.7,0.6,0.9c0.4,0.2,0.9,0.3,1.6,0.3c0.5,0,1-0.1,1.3-0.2c0.5-0.2,0.7-0.5,0.7-0.9C4.8,129.9,4.7,129.6,4.4,129.4z
	 M0.9,128.8c0.4-0.2,1-0.4,1.8-0.4c0.7,0,1.3,0.1,1.8,0.3c0.7,0.3,1,0.8,1,1.5c0,0.6-0.3,1.1-0.8,1.4c-0.5,0.3-1.1,0.4-1.8,0.4
	c-0.6,0-1.1-0.1-1.5-0.2C0.4,131.5,0,131,0,130.2C0,129.6,0.3,129.1,0.9,128.8z M4.4,133.6c-0.3-0.2-0.9-0.3-1.7-0.3
	c-0.6,0-1.1,0.1-1.5,0.2c-0.4,0.1-0.6,0.4-0.6,0.9c0,0.4,0.2,0.7,0.6,0.9c0.4,0.2,0.9,0.3,1.6,0.3c0.5,0,1-0.1,1.3-0.2
	c0.5-0.2,0.7-0.5,0.7-0.9C4.8,134.1,4.7,133.8,4.4,133.6z M0.9,132.9c0.4-0.2,1-0.4,1.8-0.4c0.7,0,1.3,0.1,1.8,0.3
	c0.7,0.3,1,0.8,1,1.5c0,0.6-0.3,1.1-0.8,1.4c-0.5,0.3-1.1,0.4-1.8,0.4c-0.6,0-1.1-0.1-1.5-0.2c-0.8-0.3-1.2-0.8-1.2-1.6
	C0,133.7,0.3,133.2,0.9,132.9z M4.4,137.8c-0.3-0.2-0.9-0.3-1.7-0.3c-0.6,0-1.1,0.1-1.5,0.2c-0.4,0.1-0.6,0.4-0.6,0.9
	c0,0.4,0.2,0.7,0.6,0.9c0.4,0.2,0.9,0.3,1.6,0.3c0.5,0,1-0.1,1.3-0.2c0.5-0.2,0.7-0.5,0.7-0.9C4.8,138.2,4.7,138,4.4,137.8z
	 M0.9,137.1c0.4-0.2,1-0.4,1.8-0.4c0.7,0,1.3,0.1,1.8,0.3c0.7,0.3,1,0.8,1,1.5c0,0.6-0.3,1.1-0.8,1.4c-0.5,0.3-1.1,0.4-1.8,0.4
	c-0.6,0-1.1-0.1-1.5-0.2c-0.8-0.3-1.2-0.8-1.2-1.6C0,137.9,0.3,137.4,0.9,137.1z M4.4,141.9c-0.3-0.2-0.9-0.3-1.7-0.3
	c-0.6,0-1.1,0.1-1.5,0.2c-0.4,0.1-0.6,0.4-0.6,0.9c0,0.4,0.2,0.7,0.6,0.9c0.4,0.2,0.9,0.3,1.6,0.3c0.5,0,1-0.1,1.3-0.2
	c0.5-0.2,0.7-0.5,0.7-0.9C4.8,142.4,4.7,142.1,4.4,141.9z M0.9,141.3c0.4-0.2,1-0.4,1.8-0.4c0.7,0,1.3,0.1,1.8,0.3
	c0.7,0.3,1,0.8,1,1.5c0,0.6-0.3,1.1-0.8,1.4c-0.5,0.3-1.1,0.4-1.8,0.4c-0.6,0-1.1-0.1-1.5-0.2C0.4,144,0,143.5,0,142.7
	C0,142.1,0.3,141.6,0.9,141.3z M4.4,146.1c-0.3-0.2-0.9-0.3-1.7-0.3c-0.6,0-1.1,0.1-1.5,0.2c-0.4,0.1-0.6,0.4-0.6,0.9
	c0,0.4,0.2,0.7,0.6,0.9c0.4,0.2,0.9,0.3,1.6,0.3c0.5,0,1-0.1,1.3-0.2c0.5-0.2,0.7-0.5,0.7-0.9C4.8,146.6,4.7,146.3,4.4,146.1z
	 M0.9,145.4c0.4-0.2,1-0.4,1.8-0.4c0.7,0,1.3,0.1,1.8,0.3c0.7,0.3,1,0.8,1,1.5c0,0.6-0.3,1.1-0.8,1.4c-0.5,0.3-1.1,0.4-1.8,0.4
	c-0.6,0-1.1-0.1-1.5-0.2c-0.8-0.3-1.2-0.8-1.2-1.6C0,146.2,0.3,145.7,0.9,145.4z M4.1,152.6c-0.3-0.2-0.6-0.5-0.9-0.9l-0.4-0.7
	c-0.2-0.3-0.3-0.5-0.5-0.7c-0.2-0.2-0.4-0.3-0.7-0.3c-0.3,0-0.5,0.1-0.7,0.3c-0.2,0.2-0.3,0.4-0.3,0.7c0,0.5,0.2,0.8,0.5,0.9
	c0.2,0.1,0.4,0.1,0.8,0.2v0.7c-0.5,0-0.8-0.1-1.1-0.3C0.3,152.2,0,151.7,0,151c0-0.6,0.2-1,0.5-1.3c0.3-0.3,0.7-0.4,1.1-0.4
	c0.4,0,0.8,0.1,1.1,0.4c0.2,0.2,0.4,0.5,0.6,0.9l0.3,0.5c0.1,0.2,0.3,0.4,0.4,0.6c0.2,0.2,0.4,0.4,0.7,0.5v-2.9h0.6v3.6
	C4.8,152.9,4.4,152.8,4.1,152.6z"/>
<path fill="#292724" d="M4.4,65.2C4,65,3.5,64.9,2.7,64.9c-0.6,0-1.1,0.1-1.5,0.2c-0.4,0.1-0.6,0.4-0.6,0.9c0,0.4,0.2,0.7,0.6,0.9
	c0.4,0.2,0.9,0.3,1.6,0.3c0.5,0,1-0.1,1.3-0.2c0.5-0.2,0.7-0.5,0.7-0.9C4.8,65.7,4.7,65.4,4.4,65.2z M0.9,64.6
	c0.4-0.2,1-0.4,1.8-0.4c0.7,0,1.3,0.1,1.8,0.3c0.7,0.3,1,0.8,1,1.5c0,0.6-0.3,1.1-0.8,1.4c-0.5,0.3-1.1,0.4-1.8,0.4
	c-0.6,0-1.1-0.1-1.5-0.2C0.4,67.3,0,66.8,0,66C0,65.3,0.3,64.9,0.9,64.6z M4.4,69.4c-0.3-0.2-0.9-0.3-1.7-0.3
	c-0.6,0-1.1,0.1-1.5,0.2c-0.4,0.1-0.6,0.4-0.6,0.9c0,0.4,0.2,0.7,0.6,0.9c0.4,0.2,0.9,0.3,1.6,0.3c0.5,0,1-0.1,1.3-0.2
	c0.5-0.2,0.7-0.5,0.7-0.9C4.8,69.9,4.7,69.6,4.4,69.4z M0.9,68.7c0.4-0.2,1-0.4,1.8-0.4c0.7,0,1.3,0.1,1.8,0.3c0.7,0.3,1,0.8,1,1.5
	c0,0.6-0.3,1.1-0.8,1.4C4.1,71.9,3.5,72,2.7,72c-0.6,0-1.1-0.1-1.5-0.2C0.4,71.5,0,71,0,70.2C0,69.5,0.3,69,0.9,68.7z M4.4,73.6
	c-0.3-0.2-0.9-0.3-1.7-0.3c-0.6,0-1.1,0.1-1.5,0.2c-0.4,0.1-0.6,0.4-0.6,0.9c0,0.4,0.2,0.7,0.6,0.9c0.4,0.2,0.9,0.3,1.6,0.3
	c0.5,0,1-0.1,1.3-0.2c0.5-0.2,0.7-0.5,0.7-0.9C4.8,74,4.7,73.8,4.4,73.6z M0.9,72.9c0.4-0.2,1-0.4,1.8-0.4c0.7,0,1.3,0.1,1.8,0.3
	c0.7,0.3,1,0.8,1,1.5c0,0.6-0.3,1.1-0.8,1.4c-0.5,0.3-1.1,0.4-1.8,0.4c-0.6,0-1.1-0.1-1.5-0.2C0.4,75.6,0,75.1,0,74.4
	C0,73.7,0.3,73.2,0.9,72.9z M4.4,77.7c-0.3-0.2-0.9-0.3-1.7-0.3c-0.6,0-1.1,0.1-1.5,0.2c-0.4,0.1-0.6,0.4-0.6,0.9
	c0,0.4,0.2,0.7,0.6,0.9c0.4,0.2,0.9,0.3,1.6,0.3c0.5,0,1-0.1,1.3-0.2c0.5-0.2,0.7-0.5,0.7-0.9C4.8,78.2,4.7,77.9,4.4,77.7z
	 M0.9,77.1c0.4-0.2,1-0.4,1.8-0.4c0.7,0,1.3,0.1,1.8,0.3c0.7,0.3,1,0.8,1,1.5c0,0.6-0.3,1.1-0.8,1.4c-0.5,0.3-1.1,0.4-1.8,0.4
	c-0.6,0-1.1-0.1-1.5-0.2C0.4,79.8,0,79.3,0,78.5C0,77.9,0.3,77.4,0.9,77.1z M4.4,81.9c-0.3-0.2-0.9-0.3-1.7-0.3
	c-0.6,0-1.1,0.1-1.5,0.2c-0.4,0.1-0.6,0.4-0.6,0.9c0,0.4,0.2,0.7,0.6,0.9c0.4,0.2,0.9,0.3,1.6,0.3c0.5,0,1-0.1,1.3-0.2
	c0.5-0.2,0.7-0.5,0.7-0.9C4.8,82.4,4.7,82.1,4.4,81.9z M0.9,81.2c0.4-0.2,1-0.4,1.8-0.4c0.7,0,1.3,0.1,1.8,0.3c0.7,0.3,1,0.8,1,1.5
	c0,0.6-0.3,1.1-0.8,1.4c-0.5,0.3-1.1,0.4-1.8,0.4c-0.6,0-1.1-0.1-1.5-0.2C0.4,84,0,83.5,0,82.7C0,82,0.3,81.5,0.9,81.2z M4.9,88.3
	c-0.3,0.3-0.8,0.4-1.2,0.4V88c0.3,0,0.6-0.1,0.7-0.2c0.3-0.2,0.4-0.5,0.4-0.9c0-0.3-0.1-0.6-0.3-0.8c-0.2-0.2-0.4-0.3-0.7-0.3
	c-0.4,0-0.6,0.1-0.8,0.3c-0.1,0.2-0.2,0.5-0.2,0.9c0,0,0,0.1,0,0.1c0,0,0,0.1,0,0.1H2.3c0-0.1,0-0.1,0-0.2c0,0,0-0.1,0-0.1
	c0-0.2,0-0.4-0.1-0.6c-0.1-0.3-0.4-0.4-0.7-0.4c-0.3,0-0.5,0.1-0.6,0.3c-0.1,0.2-0.2,0.4-0.2,0.6c0,0.4,0.1,0.7,0.4,0.9
	c0.2,0.1,0.4,0.1,0.7,0.2v0.7c-0.4,0-0.7-0.1-1-0.2C0.3,88.1,0,87.6,0,86.9c0-0.5,0.1-0.9,0.4-1.2c0.2-0.3,0.6-0.4,1-0.4
	c0.3,0,0.6,0.1,0.8,0.3c0.1,0.1,0.2,0.2,0.3,0.4c0.1-0.3,0.2-0.5,0.4-0.6c0.2-0.2,0.5-0.2,0.8-0.2c0.5,0,0.9,0.2,1.2,0.5
	c0.3,0.3,0.5,0.8,0.5,1.4C5.4,87.6,5.2,88,4.9,88.3z"/>
<path fill="#292724" d="M4.4,1C4,0.8,3.5,0.7,2.7,0.7c-0.6,0-1.1,0.1-1.5,0.2C0.8,1.1,0.6,1.4,0.6,1.8c0,0.4,0.2,0.7,0.6,0.9
	c0.4,0.2,0.9,0.3,1.6,0.3c0.5,0,1-0.1,1.3-0.2c0.5-0.2,0.7-0.5,0.7-0.9C4.8,1.5,4.7,1.2,4.4,1z M0.9,0.4C1.3,0.1,1.9,0,2.6,0
	c0.7,0,1.3,0.1,1.8,0.3c0.7,0.3,1,0.8,1,1.5c0,0.6-0.3,1.1-0.8,1.4C4.1,3.5,3.5,3.6,2.7,3.6c-0.6,0-1.1-0.1-1.5-0.2
	C0.4,3.1,0,2.6,0,1.8C0,1.1,0.3,0.7,0.9,0.4z M4.4,5.2C4,5,3.5,4.9,2.7,4.9C2.1,4.9,1.6,5,1.2,5.1C0.8,5.2,0.6,5.5,0.6,6
	c0,0.4,0.2,0.7,0.6,0.9C1.5,7,2.1,7.1,2.8,7.1c0.5,0,1-0.1,1.3-0.2C4.6,6.7,4.8,6.4,4.8,6C4.8,5.7,4.7,5.4,4.4,5.2z M0.9,4.5
	c0.4-0.2,1-0.4,1.8-0.4c0.7,0,1.3,0.1,1.8,0.3c0.7,0.3,1,0.8,1,1.5c0,0.6-0.3,1.1-0.8,1.4C4.1,7.7,3.5,7.8,2.7,7.8
	c-0.6,0-1.1-0.1-1.5-0.2C0.4,7.3,0,6.8,0,6C0,5.3,0.3,4.8,0.9,4.5z M4.4,9.4C4,9.2,3.5,9.1,2.7,9.1c-0.6,0-1.1,0.1-1.5,0.2
	c-0.4,0.1-0.6,0.4-0.6,0.9c0,0.4,0.2,0.7,0.6,0.9c0.4,0.2,0.9,0.3,1.6,0.3c0.5,0,1-0.1,1.3-0.2c0.5-0.2,0.7-0.5,0.7-0.9
	C4.8,9.8,4.7,9.6,4.4,9.4z M0.9,8.7c0.4-0.2,1-0.4,1.8-0.4c0.7,0,1.3,0.1,1.8,0.3c0.7,0.3,1,0.8,1,1.5c0,0.6-0.3,1.1-0.8,1.4
	C4.1,11.8,3.5,12,2.7,12c-0.6,0-1.1-0.1-1.5-0.2C0.4,11.4,0,10.9,0,10.2C0,9.5,0.3,9,0.9,8.7z M4.4,13.5c-0.3-0.2-0.9-0.3-1.7-0.3
	c-0.6,0-1.1,0.1-1.5,0.2c-0.4,0.1-0.6,0.4-0.6,0.9c0,0.4,0.2,0.7,0.6,0.9c0.4,0.2,0.9,0.3,1.6,0.3c0.5,0,1-0.1,1.3-0.2
	c0.5-0.2,0.7-0.5,0.7-0.9C4.8,14,4.7,13.7,4.4,13.5z M0.9,12.9c0.4-0.2,1-0.4,1.8-0.4c0.7,0,1.3,0.1,1.8,0.3c0.7,0.3,1,0.8,1,1.5
	c0,0.6-0.3,1.1-0.8,1.4c-0.5,0.3-1.1,0.4-1.8,0.4c-0.6,0-1.1-0.1-1.5-0.2C0.4,15.6,0,15.1,0,14.3C0,13.7,0.3,13.2,0.9,12.9z
	 M4.4,17.7c-0.3-0.2-0.9-0.3-1.7-0.3c-0.6,0-1.1,0.1-1.5,0.2c-0.4,0.1-0.6,0.4-0.6,0.9c0,0.4,0.2,0.7,0.6,0.9
	c0.4,0.2,0.9,0.3,1.6,0.3c0.5,0,1-0.1,1.3-0.2c0.5-0.2,0.7-0.5,0.7-0.9C4.8,18.2,4.7,17.9,4.4,17.7z M0.9,17c0.4-0.2,1-0.4,1.8-0.4
	c0.7,0,1.3,0.1,1.8,0.3c0.7,0.3,1,0.8,1,1.5c0,0.6-0.3,1.1-0.8,1.4c-0.5,0.3-1.1,0.4-1.8,0.4c-0.6,0-1.1-0.1-1.5-0.2
	C0.4,19.8,0,19.3,0,18.5C0,17.8,0.3,17.3,0.9,17z M5.3,22.2H4v2.3H3.3L0,22.1v-0.6h3.4v-0.8H4v0.8h1.3V22.2z M3.4,22.2H1l2.4,1.7
	V22.2z"/>
</svg>
